<?xml version="1.0" encoding="utf-8" standalone="no"?>
<!DOCTYPE svg PUBLIC "-//W3C//DTD SVG 1.1//EN"
  "http://www.w3.org/Graphics/SVG/1.1/DTD/svg11.dtd">
<!-- Created with matplotlib (https://matplotlib.org/) -->
<svg height="239.226821pt" version="1.1" viewBox="0 0 583.266277 239.226821" width="583.266277pt" xmlns="http://www.w3.org/2000/svg" xmlns:xlink="http://www.w3.org/1999/xlink">
 <defs>
  <style type="text/css">
*{stroke-linecap:butt;stroke-linejoin:round;}
  </style>
 </defs>
 <g id="figure_1">
  <g id="patch_1">
   <path d="M 0 239.226821
L 583.266277 239.226821
L 583.266277 0
L 0 0
z
" style="fill:#ffffff;"/>
  </g>
  <g id="axes_1">
   <g id="line2d_1">
    <path clip-path="url(#p5e2366d138)" d="M 13.419701 113.296386
L 134.724049 113.296386
" style="fill:none;stroke:#7f7f7f;stroke-dasharray:1.85,0.8;stroke-dashoffset:0;stroke-width:0.5;"/>
   </g>
   <g id="line2d_2">
    <path clip-path="url(#p5e2366d138)" d="M 27.254564 -1
L 28.270613 46.593834
L 29.281566 84.040134
L 30.276724 113.064792
L 31.256086 135.453604
L 32.219651 152.605383
L 33.151624 165.429867
L 34.052005 174.930719
L 34.920793 181.875868
L 35.742193 186.775078
L 36.516205 190.151765
L 37.242828 192.399047
L 37.906266 193.787295
L 38.50652 194.574314
L 39.059385 194.956836
L 39.580658 195.054082
L 40.117728 194.919421
L 40.717981 194.52283
L 41.428808 193.765776
L 42.297597 192.490698
L 43.387531 190.465303
L 44.809185 187.314668
L 46.846889 182.202235
L 54.855539 161.592635
L 57.414515 155.875011
L 59.831327 151.008621
L 62.184954 146.762357
L 64.506988 143.025037
L 66.829023 139.702914
L 69.18265 136.720967
L 71.567869 134.054534
L 74.016273 131.64842
L 76.543657 129.474573
L 77.838942 128.469589
L 77.839102 240.226821
M 77.886148 240.226821
L 77.996903 113.296386
L 134.736686 113.296386
L 134.736686 113.296386
" style="fill:none;stroke:#ff7f0e;stroke-linecap:square;stroke-width:1.5;"/>
   </g>
   <g id="line2d_3">
    <path clip-path="url(#p5e2366d138)" d="M 27.254564 -1
L 28.270613 46.593834
L 29.281566 84.040134
L 30.276724 113.064792
L 31.256086 135.453604
L 32.219651 152.605383
L 33.151624 165.429867
L 34.052005 174.930719
L 34.920793 181.875868
L 35.742193 186.775078
L 36.516205 190.151765
L 37.242828 192.399047
L 37.906266 193.787295
L 38.50652 194.574314
L 39.059385 194.956836
L 39.580658 195.054082
L 40.117728 194.919421
L 40.717981 194.52283
L 41.428808 193.765776
L 42.297597 192.490698
L 43.387531 190.465303
L 44.809185 187.314668
L 46.846889 182.202235
L 54.855539 161.592635
L 57.414515 155.875011
L 59.831327 151.008621
L 62.184954 146.762357
L 64.506988 143.025037
L 66.829023 139.702914
L 69.18265 136.720967
L 71.567869 134.054534
L 74.016273 131.64842
L 76.543657 129.474573
L 79.181615 127.4989
L 81.945941 125.706898
L 84.86823 124.078183
L 87.995868 122.591911
L 91.360449 121.242001
L 95.025156 120.014894
L 99.053176 118.90482
L 103.523487 117.907362
L 108.56246 117.015049
L 114.343852 116.222772
L 121.073013 115.531148
L 129.113255 114.935732
L 134.736686 114.626309
L 134.736686 114.626309
" style="fill:none;stroke:#ff7f0e;stroke-dasharray:3.7,1.6;stroke-dashoffset:0;"/>
   </g>
   <g id="line2d_4">
    <path clip-path="url(#p5e2366d138)" d="M 17.59332 -1
L 18.603367 42.9036
L 19.614321 77.578287
L 20.609478 104.407498
L 21.58884 125.092297
L 22.552405 140.953975
L 23.500174 153.022842
L 24.416351 161.971333
L 25.300936 168.532925
L 26.153928 173.266645
L 26.959532 176.546334
L 27.717747 178.750619
L 28.412778 180.137658
L 29.06042 180.966082
L 29.660674 181.39053
L 30.229336 181.528999
L 30.813793 181.439489
L 31.461436 181.103912
L 32.219651 180.444512
L 33.135828 179.335272
L 34.288947 177.565522
L 35.805378 174.796954
L 38.048431 170.187294
L 44.998739 155.647419
L 47.699881 150.647515
L 50.227266 146.427815
L 52.691466 142.741052
L 55.124073 139.495569
L 57.572477 136.594682
L 60.068269 133.980379
L 62.627246 131.621379
L 65.265204 129.490935
L 68.013734 127.556091
L 70.90443 125.793075
L 73.968884 124.185245
L 77.254484 122.714728
L 77.854738 122.471057
L 77.981107 113.296386
L 134.736686 113.296386
L 134.736686 113.296386
" style="fill:none;stroke:#1f77b4;stroke-linecap:square;stroke-opacity:0.6;stroke-width:3;"/>
   </g>
   <g id="line2d_5">
    <path clip-path="url(#p5e2366d138)" d="M 17.59332 -1
L 18.603367 42.9036
L 19.614321 77.578287
L 20.609478 104.407498
L 21.58884 125.092297
L 22.552405 140.953975
L 23.500174 153.022842
L 24.416351 161.971333
L 25.300936 168.532925
L 26.153928 173.266645
L 26.959532 176.546334
L 27.717747 178.750619
L 28.412778 180.137658
L 29.06042 180.966082
L 29.660674 181.39053
L 30.229336 181.528999
L 30.813793 181.439489
L 31.461436 181.103912
L 32.219651 180.444512
L 33.135828 179.335272
L 34.288947 177.565522
L 35.805378 174.796954
L 38.048431 170.187294
L 44.998739 155.647419
L 47.699881 150.647515
L 50.227266 146.427815
L 52.691466 142.741052
L 55.124073 139.495569
L 57.572477 136.594682
L 60.068269 133.980379
L 62.627246 131.621379
L 65.265204 129.490935
L 68.013734 127.556091
L 70.90443 125.793075
L 73.968884 124.185245
L 77.254484 122.714728
L 80.792822 121.376892
L 84.647084 120.159511
L 88.896249 119.053513
L 93.635095 118.053639
L 98.989991 117.155753
L 105.134695 116.356655
L 112.306148 115.654811
L 120.867663 115.047943
L 131.372105 114.534981
L 134.736686 114.409304
L 134.736686 114.409304
" style="fill:none;stroke:#1f77b4;stroke-dasharray:3.7,1.6;stroke-dashoffset:0;"/>
   </g>
   <g id="text_1">
    <!-- A. Truncated Potential -->
    <defs>
     <path d="M 34.1875 63.1875
L 20.796875 26.90625
L 47.609375 26.90625
z
M 28.609375 72.90625
L 39.796875 72.90625
L 67.578125 0
L 57.328125 0
L 50.6875 18.703125
L 17.828125 18.703125
L 11.1875 0
L 0.78125 0
z
" id="DejaVuSans-65"/>
     <path d="M 10.6875 12.40625
L 21 12.40625
L 21 0
L 10.6875 0
z
" id="DejaVuSans-46"/>
     <path id="DejaVuSans-32"/>
     <path d="M -0.296875 72.90625
L 61.375 72.90625
L 61.375 64.59375
L 35.5 64.59375
L 35.5 0
L 25.59375 0
L 25.59375 64.59375
L -0.296875 64.59375
z
" id="DejaVuSans-84"/>
     <path d="M 41.109375 46.296875
Q 39.59375 47.171875 37.8125 47.578125
Q 36.03125 48 33.890625 48
Q 26.265625 48 22.1875 43.046875
Q 18.109375 38.09375 18.109375 28.8125
L 18.109375 0
L 9.078125 0
L 9.078125 54.6875
L 18.109375 54.6875
L 18.109375 46.1875
Q 20.953125 51.171875 25.484375 53.578125
Q 30.03125 56 36.53125 56
Q 37.453125 56 38.578125 55.875
Q 39.703125 55.765625 41.0625 55.515625
z
" id="DejaVuSans-114"/>
     <path d="M 8.5 21.578125
L 8.5 54.6875
L 17.484375 54.6875
L 17.484375 21.921875
Q 17.484375 14.15625 20.5 10.265625
Q 23.53125 6.390625 29.59375 6.390625
Q 36.859375 6.390625 41.078125 11.03125
Q 45.3125 15.671875 45.3125 23.6875
L 45.3125 54.6875
L 54.296875 54.6875
L 54.296875 0
L 45.3125 0
L 45.3125 8.40625
Q 42.046875 3.421875 37.71875 1
Q 33.40625 -1.421875 27.6875 -1.421875
Q 18.265625 -1.421875 13.375 4.4375
Q 8.5 10.296875 8.5 21.578125
z
M 31.109375 56
z
" id="DejaVuSans-117"/>
     <path d="M 54.890625 33.015625
L 54.890625 0
L 45.90625 0
L 45.90625 32.71875
Q 45.90625 40.484375 42.875 44.328125
Q 39.84375 48.1875 33.796875 48.1875
Q 26.515625 48.1875 22.3125 43.546875
Q 18.109375 38.921875 18.109375 30.90625
L 18.109375 0
L 9.078125 0
L 9.078125 54.6875
L 18.109375 54.6875
L 18.109375 46.1875
Q 21.34375 51.125 25.703125 53.5625
Q 30.078125 56 35.796875 56
Q 45.21875 56 50.046875 50.171875
Q 54.890625 44.34375 54.890625 33.015625
z
" id="DejaVuSans-110"/>
     <path d="M 48.78125 52.59375
L 48.78125 44.1875
Q 44.96875 46.296875 41.140625 47.34375
Q 37.3125 48.390625 33.40625 48.390625
Q 24.65625 48.390625 19.8125 42.84375
Q 14.984375 37.3125 14.984375 27.296875
Q 14.984375 17.28125 19.8125 11.734375
Q 24.65625 6.203125 33.40625 6.203125
Q 37.3125 6.203125 41.140625 7.25
Q 44.96875 8.296875 48.78125 10.40625
L 48.78125 2.09375
Q 45.015625 0.34375 40.984375 -0.53125
Q 36.96875 -1.421875 32.421875 -1.421875
Q 20.0625 -1.421875 12.78125 6.34375
Q 5.515625 14.109375 5.515625 27.296875
Q 5.515625 40.671875 12.859375 48.328125
Q 20.21875 56 33.015625 56
Q 37.15625 56 41.109375 55.140625
Q 45.0625 54.296875 48.78125 52.59375
z
" id="DejaVuSans-99"/>
     <path d="M 34.28125 27.484375
Q 23.390625 27.484375 19.1875 25
Q 14.984375 22.515625 14.984375 16.5
Q 14.984375 11.71875 18.140625 8.90625
Q 21.296875 6.109375 26.703125 6.109375
Q 34.1875 6.109375 38.703125 11.40625
Q 43.21875 16.703125 43.21875 25.484375
L 43.21875 27.484375
z
M 52.203125 31.203125
L 52.203125 0
L 43.21875 0
L 43.21875 8.296875
Q 40.140625 3.328125 35.546875 0.953125
Q 30.953125 -1.421875 24.3125 -1.421875
Q 15.921875 -1.421875 10.953125 3.296875
Q 6 8.015625 6 15.921875
Q 6 25.140625 12.171875 29.828125
Q 18.359375 34.515625 30.609375 34.515625
L 43.21875 34.515625
L 43.21875 35.40625
Q 43.21875 41.609375 39.140625 45
Q 35.0625 48.390625 27.6875 48.390625
Q 23 48.390625 18.546875 47.265625
Q 14.109375 46.140625 10.015625 43.890625
L 10.015625 52.203125
Q 14.9375 54.109375 19.578125 55.046875
Q 24.21875 56 28.609375 56
Q 40.484375 56 46.34375 49.84375
Q 52.203125 43.703125 52.203125 31.203125
z
" id="DejaVuSans-97"/>
     <path d="M 18.3125 70.21875
L 18.3125 54.6875
L 36.8125 54.6875
L 36.8125 47.703125
L 18.3125 47.703125
L 18.3125 18.015625
Q 18.3125 11.328125 20.140625 9.421875
Q 21.96875 7.515625 27.59375 7.515625
L 36.8125 7.515625
L 36.8125 0
L 27.59375 0
Q 17.1875 0 13.234375 3.875
Q 9.28125 7.765625 9.28125 18.015625
L 9.28125 47.703125
L 2.6875 47.703125
L 2.6875 54.6875
L 9.28125 54.6875
L 9.28125 70.21875
z
" id="DejaVuSans-116"/>
     <path d="M 56.203125 29.59375
L 56.203125 25.203125
L 14.890625 25.203125
Q 15.484375 15.921875 20.484375 11.0625
Q 25.484375 6.203125 34.421875 6.203125
Q 39.59375 6.203125 44.453125 7.46875
Q 49.3125 8.734375 54.109375 11.28125
L 54.109375 2.78125
Q 49.265625 0.734375 44.1875 -0.34375
Q 39.109375 -1.421875 33.890625 -1.421875
Q 20.796875 -1.421875 13.15625 6.1875
Q 5.515625 13.8125 5.515625 26.8125
Q 5.515625 40.234375 12.765625 48.109375
Q 20.015625 56 32.328125 56
Q 43.359375 56 49.78125 48.890625
Q 56.203125 41.796875 56.203125 29.59375
z
M 47.21875 32.234375
Q 47.125 39.59375 43.09375 43.984375
Q 39.0625 48.390625 32.421875 48.390625
Q 24.90625 48.390625 20.390625 44.140625
Q 15.875 39.890625 15.1875 32.171875
z
" id="DejaVuSans-101"/>
     <path d="M 45.40625 46.390625
L 45.40625 75.984375
L 54.390625 75.984375
L 54.390625 0
L 45.40625 0
L 45.40625 8.203125
Q 42.578125 3.328125 38.25 0.953125
Q 33.9375 -1.421875 27.875 -1.421875
Q 17.96875 -1.421875 11.734375 6.484375
Q 5.515625 14.40625 5.515625 27.296875
Q 5.515625 40.1875 11.734375 48.09375
Q 17.96875 56 27.875 56
Q 33.9375 56 38.25 53.625
Q 42.578125 51.265625 45.40625 46.390625
z
M 14.796875 27.296875
Q 14.796875 17.390625 18.875 11.75
Q 22.953125 6.109375 30.078125 6.109375
Q 37.203125 6.109375 41.296875 11.75
Q 45.40625 17.390625 45.40625 27.296875
Q 45.40625 37.203125 41.296875 42.84375
Q 37.203125 48.484375 30.078125 48.484375
Q 22.953125 48.484375 18.875 42.84375
Q 14.796875 37.203125 14.796875 27.296875
z
" id="DejaVuSans-100"/>
     <path d="M 19.671875 64.796875
L 19.671875 37.40625
L 32.078125 37.40625
Q 38.96875 37.40625 42.71875 40.96875
Q 46.484375 44.53125 46.484375 51.125
Q 46.484375 57.671875 42.71875 61.234375
Q 38.96875 64.796875 32.078125 64.796875
z
M 9.8125 72.90625
L 32.078125 72.90625
Q 44.34375 72.90625 50.609375 67.359375
Q 56.890625 61.8125 56.890625 51.125
Q 56.890625 40.328125 50.609375 34.8125
Q 44.34375 29.296875 32.078125 29.296875
L 19.671875 29.296875
L 19.671875 0
L 9.8125 0
z
" id="DejaVuSans-80"/>
     <path d="M 30.609375 48.390625
Q 23.390625 48.390625 19.1875 42.75
Q 14.984375 37.109375 14.984375 27.296875
Q 14.984375 17.484375 19.15625 11.84375
Q 23.34375 6.203125 30.609375 6.203125
Q 37.796875 6.203125 41.984375 11.859375
Q 46.1875 17.53125 46.1875 27.296875
Q 46.1875 37.015625 41.984375 42.703125
Q 37.796875 48.390625 30.609375 48.390625
z
M 30.609375 56
Q 42.328125 56 49.015625 48.375
Q 55.71875 40.765625 55.71875 27.296875
Q 55.71875 13.875 49.015625 6.21875
Q 42.328125 -1.421875 30.609375 -1.421875
Q 18.84375 -1.421875 12.171875 6.21875
Q 5.515625 13.875 5.515625 27.296875
Q 5.515625 40.765625 12.171875 48.375
Q 18.84375 56 30.609375 56
z
" id="DejaVuSans-111"/>
     <path d="M 9.421875 54.6875
L 18.40625 54.6875
L 18.40625 0
L 9.421875 0
z
M 9.421875 75.984375
L 18.40625 75.984375
L 18.40625 64.59375
L 9.421875 64.59375
z
" id="DejaVuSans-105"/>
     <path d="M 9.421875 75.984375
L 18.40625 75.984375
L 18.40625 0
L 9.421875 0
z
" id="DejaVuSans-108"/>
    </defs>
    <g transform="translate(7.2 16.318125)scale(0.12 -0.12)">
     <use xlink:href="#DejaVuSans-65"/>
     <use x="68.392578" xlink:href="#DejaVuSans-46"/>
     <use x="100.179688" xlink:href="#DejaVuSans-32"/>
     <use x="131.966797" xlink:href="#DejaVuSans-84"/>
     <use x="192.832031" xlink:href="#DejaVuSans-114"/>
     <use x="233.945312" xlink:href="#DejaVuSans-117"/>
     <use x="297.324219" xlink:href="#DejaVuSans-110"/>
     <use x="360.703125" xlink:href="#DejaVuSans-99"/>
     <use x="415.683594" xlink:href="#DejaVuSans-97"/>
     <use x="476.962891" xlink:href="#DejaVuSans-116"/>
     <use x="516.171875" xlink:href="#DejaVuSans-101"/>
     <use x="577.695312" xlink:href="#DejaVuSans-100"/>
     <use x="641.171875" xlink:href="#DejaVuSans-32"/>
     <use x="672.958984" xlink:href="#DejaVuSans-80"/>
     <use x="733.214844" xlink:href="#DejaVuSans-111"/>
     <use x="794.396484" xlink:href="#DejaVuSans-116"/>
     <use x="833.605469" xlink:href="#DejaVuSans-101"/>
     <use x="895.128906" xlink:href="#DejaVuSans-110"/>
     <use x="958.507812" xlink:href="#DejaVuSans-116"/>
     <use x="997.716797" xlink:href="#DejaVuSans-105"/>
     <use x="1025.5" xlink:href="#DejaVuSans-97"/>
     <use x="1086.779297" xlink:href="#DejaVuSans-108"/>
    </g>
   </g>
   <g id="legend_1"/>
  </g>
  <g id="axes_2">
   <g id="line2d_6">
    <path clip-path="url(#p79ee1aa57c)" d="M 158.984918 113.296386
L 280.289266 113.296386
" style="fill:none;stroke:#7f7f7f;stroke-dasharray:1.85,0.8;stroke-dashoffset:0;stroke-width:0.5;"/>
   </g>
   <g id="line2d_7">
    <path clip-path="url(#p79ee1aa57c)" d="M 172.819781 -1
L 173.83583 46.593834
L 174.846784 84.040134
L 175.841941 113.064792
L 176.821303 135.453604
L 177.784868 152.605383
L 178.716841 165.429867
L 179.617222 174.930719
L 180.486011 181.875868
L 181.30741 186.775078
L 182.081422 190.151765
L 182.808045 192.399047
L 183.471483 193.787295
L 184.071737 194.574314
L 184.624603 194.956836
L 185.145876 195.054082
L 185.682945 194.919421
L 186.283199 194.52283
L 186.994026 193.765776
L 187.862814 192.490698
L 188.952749 190.465303
L 190.374402 187.314668
L 192.412106 182.202235
L 200.420756 161.592635
L 202.979733 155.875011
L 205.396544 151.008621
L 207.750171 146.762357
L 210.072206 143.025037
L 212.39424 139.702914
L 214.747867 136.720967
L 217.133086 134.054534
L 219.58149 131.64842
L 222.108874 129.474573
L 223.419955 128.457758
L 223.562121 113.296386
L 280.301903 113.296386
L 280.301903 113.296386
" style="fill:none;stroke:#ff7f0e;stroke-linecap:square;stroke-width:1.5;"/>
   </g>
   <g id="line2d_8">
    <path clip-path="url(#p79ee1aa57c)" d="M 172.819781 -1
L 173.83583 46.593834
L 174.846784 84.040134
L 175.841941 113.064792
L 176.821303 135.453604
L 177.784868 152.605383
L 178.716841 165.429867
L 179.617222 174.930719
L 180.486011 181.875868
L 181.30741 186.775078
L 182.081422 190.151765
L 182.808045 192.399047
L 183.471483 193.787295
L 184.071737 194.574314
L 184.624603 194.956836
L 185.145876 195.054082
L 185.682945 194.919421
L 186.283199 194.52283
L 186.994026 193.765776
L 187.862814 192.490698
L 188.952749 190.465303
L 190.374402 187.314668
L 192.412106 182.202235
L 200.420756 161.592635
L 202.979733 155.875011
L 205.396544 151.008621
L 207.750171 146.762357
L 210.072206 143.025037
L 212.39424 139.702914
L 214.747867 136.720967
L 217.133086 134.054534
L 219.58149 131.64842
L 222.108874 129.474573
L 224.746832 127.4989
L 227.511159 125.706898
L 230.433447 124.078183
L 233.561086 122.591911
L 236.925666 121.242001
L 240.590374 120.014894
L 244.618393 118.90482
L 249.088704 117.907362
L 254.127677 117.015049
L 259.909069 116.222772
L 266.638231 115.531148
L 274.678473 114.935732
L 280.301903 114.626309
L 280.301903 114.626309
" style="fill:none;stroke:#ff7f0e;stroke-dasharray:3.7,1.6;stroke-dashoffset:0;"/>
   </g>
   <g id="line2d_9">
    <path clip-path="url(#p79ee1aa57c)" d="M 163.350823 -1
L 164.358138 40.883303
L 165.369092 74.031707
L 166.364249 99.64845
L 167.343611 119.367099
L 168.307176 134.456802
L 169.239149 145.74054
L 170.155326 154.240409
L 171.024115 160.350303
L 171.861311 164.754994
L 172.651118 167.800664
L 173.393538 169.840803
L 174.088568 171.140469
L 174.720415 171.885428
L 175.304872 172.255913
L 175.873534 172.361553
L 176.457991 172.242775
L 177.12143 171.867844
L 177.895441 171.159003
L 178.843211 169.968937
L 180.027922 168.101732
L 181.607537 165.163766
L 184.040145 160.107635
L 190.058479 147.468021
L 192.80701 142.29201
L 195.350191 137.965502
L 197.814391 134.204087
L 200.246998 130.889429
L 202.695402 127.924693
L 205.175398 125.267578
L 207.718579 122.867041
L 210.34074 120.696683
L 213.073475 118.723527
L 215.932579 116.933021
L 218.96544 115.29682
L 222.203651 113.8041
L 223.672694 113.296386
L 280.301903 113.296386
L 280.301903 113.296386
" style="fill:none;stroke:#1f77b4;stroke-linecap:square;stroke-opacity:0.6;stroke-width:3;"/>
   </g>
   <g id="line2d_10">
    <path clip-path="url(#p79ee1aa57c)" d="M 163.158537 -1
L 164.168584 42.9036
L 165.179538 77.578287
L 166.174696 104.407498
L 167.154057 125.092297
L 168.117622 140.953975
L 169.065392 153.022842
L 169.981569 161.971333
L 170.866153 168.532925
L 171.719145 173.266645
L 172.524749 176.546334
L 173.282965 178.750619
L 173.977995 180.137658
L 174.625638 180.966082
L 175.225891 181.39053
L 175.794553 181.528999
L 176.379011 181.439489
L 177.026653 181.103912
L 177.784868 180.444512
L 178.701045 179.335272
L 179.854164 177.565522
L 181.370595 174.796954
L 183.613649 170.187294
L 190.563956 155.647419
L 193.265099 150.647515
L 195.792483 146.427815
L 198.256683 142.741052
L 200.689291 139.495569
L 203.137694 136.594682
L 205.633487 133.980379
L 208.192463 131.621379
L 210.830421 129.490935
L 213.578952 127.556091
L 216.469648 125.793075
L 219.534101 124.185245
L 222.819701 122.714728
L 226.35804 121.376892
L 230.212301 120.159511
L 234.461466 119.053513
L 239.200312 118.053639
L 244.555208 117.155753
L 250.699912 116.356655
L 257.871366 115.654811
L 266.432881 115.047943
L 276.937323 114.534981
L 280.301903 114.409304
L 280.301903 114.409304
" style="fill:none;stroke:#1f77b4;stroke-dasharray:3.7,1.6;stroke-dashoffset:0;"/>
   </g>
   <g id="text_2">
    <!-- B. Shifted Potential -->
    <defs>
     <path d="M 19.671875 34.8125
L 19.671875 8.109375
L 35.5 8.109375
Q 43.453125 8.109375 47.28125 11.40625
Q 51.125 14.703125 51.125 21.484375
Q 51.125 28.328125 47.28125 31.5625
Q 43.453125 34.8125 35.5 34.8125
z
M 19.671875 64.796875
L 19.671875 42.828125
L 34.28125 42.828125
Q 41.5 42.828125 45.03125 45.53125
Q 48.578125 48.25 48.578125 53.8125
Q 48.578125 59.328125 45.03125 62.0625
Q 41.5 64.796875 34.28125 64.796875
z
M 9.8125 72.90625
L 35.015625 72.90625
Q 46.296875 72.90625 52.390625 68.21875
Q 58.5 63.53125 58.5 54.890625
Q 58.5 48.1875 55.375 44.234375
Q 52.25 40.28125 46.1875 39.3125
Q 53.46875 37.75 57.5 32.78125
Q 61.53125 27.828125 61.53125 20.40625
Q 61.53125 10.640625 54.890625 5.3125
Q 48.25 0 35.984375 0
L 9.8125 0
z
" id="DejaVuSans-66"/>
     <path d="M 53.515625 70.515625
L 53.515625 60.890625
Q 47.90625 63.578125 42.921875 64.890625
Q 37.9375 66.21875 33.296875 66.21875
Q 25.25 66.21875 20.875 63.09375
Q 16.5 59.96875 16.5 54.203125
Q 16.5 49.359375 19.40625 46.890625
Q 22.3125 44.4375 30.421875 42.921875
L 36.375 41.703125
Q 47.40625 39.59375 52.65625 34.296875
Q 57.90625 29 57.90625 20.125
Q 57.90625 9.515625 50.796875 4.046875
Q 43.703125 -1.421875 29.984375 -1.421875
Q 24.8125 -1.421875 18.96875 -0.25
Q 13.140625 0.921875 6.890625 3.21875
L 6.890625 13.375
Q 12.890625 10.015625 18.65625 8.296875
Q 24.421875 6.59375 29.984375 6.59375
Q 38.421875 6.59375 43.015625 9.90625
Q 47.609375 13.234375 47.609375 19.390625
Q 47.609375 24.75 44.3125 27.78125
Q 41.015625 30.8125 33.5 32.328125
L 27.484375 33.5
Q 16.453125 35.6875 11.515625 40.375
Q 6.59375 45.0625 6.59375 53.421875
Q 6.59375 63.09375 13.40625 68.65625
Q 20.21875 74.21875 32.171875 74.21875
Q 37.3125 74.21875 42.625 73.28125
Q 47.953125 72.359375 53.515625 70.515625
z
" id="DejaVuSans-83"/>
     <path d="M 54.890625 33.015625
L 54.890625 0
L 45.90625 0
L 45.90625 32.71875
Q 45.90625 40.484375 42.875 44.328125
Q 39.84375 48.1875 33.796875 48.1875
Q 26.515625 48.1875 22.3125 43.546875
Q 18.109375 38.921875 18.109375 30.90625
L 18.109375 0
L 9.078125 0
L 9.078125 75.984375
L 18.109375 75.984375
L 18.109375 46.1875
Q 21.34375 51.125 25.703125 53.5625
Q 30.078125 56 35.796875 56
Q 45.21875 56 50.046875 50.171875
Q 54.890625 44.34375 54.890625 33.015625
z
" id="DejaVuSans-104"/>
     <path d="M 37.109375 75.984375
L 37.109375 68.5
L 28.515625 68.5
Q 23.6875 68.5 21.796875 66.546875
Q 19.921875 64.59375 19.921875 59.515625
L 19.921875 54.6875
L 34.71875 54.6875
L 34.71875 47.703125
L 19.921875 47.703125
L 19.921875 0
L 10.890625 0
L 10.890625 47.703125
L 2.296875 47.703125
L 2.296875 54.6875
L 10.890625 54.6875
L 10.890625 58.5
Q 10.890625 67.625 15.140625 71.796875
Q 19.390625 75.984375 28.609375 75.984375
z
" id="DejaVuSans-102"/>
    </defs>
    <g transform="translate(162.061467 16.318125)scale(0.12 -0.12)">
     <use xlink:href="#DejaVuSans-66"/>
     <use x="68.603516" xlink:href="#DejaVuSans-46"/>
     <use x="100.390625" xlink:href="#DejaVuSans-32"/>
     <use x="132.177734" xlink:href="#DejaVuSans-83"/>
     <use x="195.654297" xlink:href="#DejaVuSans-104"/>
     <use x="259.033203" xlink:href="#DejaVuSans-105"/>
     <use x="286.816406" xlink:href="#DejaVuSans-102"/>
     <use x="322.005859" xlink:href="#DejaVuSans-116"/>
     <use x="361.214844" xlink:href="#DejaVuSans-101"/>
     <use x="422.738281" xlink:href="#DejaVuSans-100"/>
     <use x="486.214844" xlink:href="#DejaVuSans-32"/>
     <use x="518.001953" xlink:href="#DejaVuSans-80"/>
     <use x="578.257812" xlink:href="#DejaVuSans-111"/>
     <use x="639.439453" xlink:href="#DejaVuSans-116"/>
     <use x="678.648438" xlink:href="#DejaVuSans-101"/>
     <use x="740.171875" xlink:href="#DejaVuSans-110"/>
     <use x="803.550781" xlink:href="#DejaVuSans-116"/>
     <use x="842.759766" xlink:href="#DejaVuSans-105"/>
     <use x="870.542969" xlink:href="#DejaVuSans-97"/>
     <use x="931.822266" xlink:href="#DejaVuSans-108"/>
    </g>
   </g>
   <g id="legend_2">
    <g id="line2d_11">
     <path d="M 276.720177 207.769008
L 296.720177 207.769008
" style="fill:none;stroke:#ff7f0e;stroke-linecap:square;stroke-width:1.5;"/>
    </g>
    <g id="line2d_12"/>
    <g id="text_3">
     <!-- truncated force -->
     <g transform="translate(304.720177 211.269008)scale(0.1 -0.1)">
      <use xlink:href="#DejaVuSans-116"/>
      <use x="39.208984" xlink:href="#DejaVuSans-114"/>
      <use x="80.322266" xlink:href="#DejaVuSans-117"/>
      <use x="143.701172" xlink:href="#DejaVuSans-110"/>
      <use x="207.080078" xlink:href="#DejaVuSans-99"/>
      <use x="262.060547" xlink:href="#DejaVuSans-97"/>
      <use x="323.339844" xlink:href="#DejaVuSans-116"/>
      <use x="362.548828" xlink:href="#DejaVuSans-101"/>
      <use x="424.072266" xlink:href="#DejaVuSans-100"/>
      <use x="487.548828" xlink:href="#DejaVuSans-32"/>
      <use x="519.335938" xlink:href="#DejaVuSans-102"/>
      <use x="554.541016" xlink:href="#DejaVuSans-111"/>
      <use x="615.722656" xlink:href="#DejaVuSans-114"/>
      <use x="656.804688" xlink:href="#DejaVuSans-99"/>
      <use x="711.785156" xlink:href="#DejaVuSans-101"/>
     </g>
    </g>
    <g id="line2d_13">
     <path d="M 276.720177 222.447133
L 296.720177 222.447133
" style="fill:none;stroke:#ff7f0e;stroke-dasharray:3.7,1.6;stroke-dashoffset:0;"/>
    </g>
    <g id="line2d_14"/>
    <g id="text_4">
     <!-- original force -->
     <defs>
      <path d="M 45.40625 27.984375
Q 45.40625 37.75 41.375 43.109375
Q 37.359375 48.484375 30.078125 48.484375
Q 22.859375 48.484375 18.828125 43.109375
Q 14.796875 37.75 14.796875 27.984375
Q 14.796875 18.265625 18.828125 12.890625
Q 22.859375 7.515625 30.078125 7.515625
Q 37.359375 7.515625 41.375 12.890625
Q 45.40625 18.265625 45.40625 27.984375
z
M 54.390625 6.78125
Q 54.390625 -7.171875 48.1875 -13.984375
Q 42 -20.796875 29.203125 -20.796875
Q 24.46875 -20.796875 20.265625 -20.09375
Q 16.0625 -19.390625 12.109375 -17.921875
L 12.109375 -9.1875
Q 16.0625 -11.328125 19.921875 -12.34375
Q 23.78125 -13.375 27.78125 -13.375
Q 36.625 -13.375 41.015625 -8.765625
Q 45.40625 -4.15625 45.40625 5.171875
L 45.40625 9.625
Q 42.625 4.78125 38.28125 2.390625
Q 33.9375 0 27.875 0
Q 17.828125 0 11.671875 7.65625
Q 5.515625 15.328125 5.515625 27.984375
Q 5.515625 40.671875 11.671875 48.328125
Q 17.828125 56 27.875 56
Q 33.9375 56 38.28125 53.609375
Q 42.625 51.21875 45.40625 46.390625
L 45.40625 54.6875
L 54.390625 54.6875
z
" id="DejaVuSans-103"/>
     </defs>
     <g transform="translate(304.720177 225.947133)scale(0.1 -0.1)">
      <use xlink:href="#DejaVuSans-111"/>
      <use x="61.181641" xlink:href="#DejaVuSans-114"/>
      <use x="102.294922" xlink:href="#DejaVuSans-105"/>
      <use x="130.078125" xlink:href="#DejaVuSans-103"/>
      <use x="193.554688" xlink:href="#DejaVuSans-105"/>
      <use x="221.337891" xlink:href="#DejaVuSans-110"/>
      <use x="284.716797" xlink:href="#DejaVuSans-97"/>
      <use x="345.996094" xlink:href="#DejaVuSans-108"/>
      <use x="373.779297" xlink:href="#DejaVuSans-32"/>
      <use x="405.566406" xlink:href="#DejaVuSans-102"/>
      <use x="440.771484" xlink:href="#DejaVuSans-111"/>
      <use x="501.953125" xlink:href="#DejaVuSans-114"/>
      <use x="543.035156" xlink:href="#DejaVuSans-99"/>
      <use x="598.015625" xlink:href="#DejaVuSans-101"/>
     </g>
    </g>
    <g id="line2d_15">
     <path d="M 402.051427 207.769008
L 422.051427 207.769008
" style="fill:none;stroke:#1f77b4;stroke-linecap:square;stroke-opacity:0.6;stroke-width:3;"/>
    </g>
    <g id="line2d_16"/>
    <g id="text_5">
     <!-- truncated potential -->
     <defs>
      <path d="M 18.109375 8.203125
L 18.109375 -20.796875
L 9.078125 -20.796875
L 9.078125 54.6875
L 18.109375 54.6875
L 18.109375 46.390625
Q 20.953125 51.265625 25.265625 53.625
Q 29.59375 56 35.59375 56
Q 45.5625 56 51.78125 48.09375
Q 58.015625 40.1875 58.015625 27.296875
Q 58.015625 14.40625 51.78125 6.484375
Q 45.5625 -1.421875 35.59375 -1.421875
Q 29.59375 -1.421875 25.265625 0.953125
Q 20.953125 3.328125 18.109375 8.203125
z
M 48.6875 27.296875
Q 48.6875 37.203125 44.609375 42.84375
Q 40.53125 48.484375 33.40625 48.484375
Q 26.265625 48.484375 22.1875 42.84375
Q 18.109375 37.203125 18.109375 27.296875
Q 18.109375 17.390625 22.1875 11.75
Q 26.265625 6.109375 33.40625 6.109375
Q 40.53125 6.109375 44.609375 11.75
Q 48.6875 17.390625 48.6875 27.296875
z
" id="DejaVuSans-112"/>
     </defs>
     <g transform="translate(430.051427 211.269008)scale(0.1 -0.1)">
      <use xlink:href="#DejaVuSans-116"/>
      <use x="39.208984" xlink:href="#DejaVuSans-114"/>
      <use x="80.322266" xlink:href="#DejaVuSans-117"/>
      <use x="143.701172" xlink:href="#DejaVuSans-110"/>
      <use x="207.080078" xlink:href="#DejaVuSans-99"/>
      <use x="262.060547" xlink:href="#DejaVuSans-97"/>
      <use x="323.339844" xlink:href="#DejaVuSans-116"/>
      <use x="362.548828" xlink:href="#DejaVuSans-101"/>
      <use x="424.072266" xlink:href="#DejaVuSans-100"/>
      <use x="487.548828" xlink:href="#DejaVuSans-32"/>
      <use x="519.335938" xlink:href="#DejaVuSans-112"/>
      <use x="582.8125" xlink:href="#DejaVuSans-111"/>
      <use x="643.994141" xlink:href="#DejaVuSans-116"/>
      <use x="683.203125" xlink:href="#DejaVuSans-101"/>
      <use x="744.726562" xlink:href="#DejaVuSans-110"/>
      <use x="808.105469" xlink:href="#DejaVuSans-116"/>
      <use x="847.314453" xlink:href="#DejaVuSans-105"/>
      <use x="875.097656" xlink:href="#DejaVuSans-97"/>
      <use x="936.376953" xlink:href="#DejaVuSans-108"/>
     </g>
    </g>
    <g id="line2d_17">
     <path d="M 402.051427 222.447133
L 422.051427 222.447133
" style="fill:none;stroke:#1f77b4;stroke-dasharray:3.7,1.6;stroke-dashoffset:0;"/>
    </g>
    <g id="line2d_18"/>
    <g id="text_6">
     <!-- original potential -->
     <g transform="translate(430.051427 225.947133)scale(0.1 -0.1)">
      <use xlink:href="#DejaVuSans-111"/>
      <use x="61.181641" xlink:href="#DejaVuSans-114"/>
      <use x="102.294922" xlink:href="#DejaVuSans-105"/>
      <use x="130.078125" xlink:href="#DejaVuSans-103"/>
      <use x="193.554688" xlink:href="#DejaVuSans-105"/>
      <use x="221.337891" xlink:href="#DejaVuSans-110"/>
      <use x="284.716797" xlink:href="#DejaVuSans-97"/>
      <use x="345.996094" xlink:href="#DejaVuSans-108"/>
      <use x="373.779297" xlink:href="#DejaVuSans-32"/>
      <use x="405.566406" xlink:href="#DejaVuSans-112"/>
      <use x="469.042969" xlink:href="#DejaVuSans-111"/>
      <use x="530.224609" xlink:href="#DejaVuSans-116"/>
      <use x="569.433594" xlink:href="#DejaVuSans-101"/>
      <use x="630.957031" xlink:href="#DejaVuSans-110"/>
      <use x="694.335938" xlink:href="#DejaVuSans-116"/>
      <use x="733.544922" xlink:href="#DejaVuSans-105"/>
      <use x="761.328125" xlink:href="#DejaVuSans-97"/>
      <use x="822.607422" xlink:href="#DejaVuSans-108"/>
     </g>
    </g>
   </g>
  </g>
  <g id="axes_3">
   <g id="line2d_19">
    <path clip-path="url(#p7b92ee16ef)" d="M 304.550136 113.296386
L 425.854484 113.296386
" style="fill:none;stroke:#7f7f7f;stroke-dasharray:1.85,0.8;stroke-dashoffset:0;stroke-width:0.5;"/>
   </g>
   <g id="line2d_20">
    <path clip-path="url(#p7b92ee16ef)" d="M 318.683575 -1
L 319.701174 43.500696
L 320.712128 78.390031
L 321.707286 105.369935
L 322.686647 126.11965
L 323.634416 141.727133
L 324.566389 153.56142
L 325.46677 162.274452
L 326.319763 168.491873
L 327.141162 172.922635
L 327.899378 175.877616
L 328.610205 177.812805
L 329.257847 178.976061
L 329.842305 179.602779
L 330.379374 179.870495
L 330.900647 179.88266
L 331.453512 179.661633
L 332.085358 179.153087
L 332.843574 178.237547
L 333.775547 176.740931
L 334.960258 174.387456
L 336.539874 170.713466
L 339.004074 164.343408
L 344.627504 149.703409
L 347.328646 143.371648
L 349.792846 138.147701
L 352.162269 133.633701
L 354.5001 129.651908
L 356.822135 126.130955
L 359.159965 122.986369
L 361.529388 120.169509
L 363.9462 117.639284
L 366.441992 115.347993
L 369.000969 113.29934
L 369.617019 113.296386
L 425.867121 113.296386
L 425.867121 113.296386
" style="fill:none;stroke:#ff7f0e;stroke-linecap:square;stroke-width:1.5;"/>
   </g>
   <g id="line2d_21">
    <path clip-path="url(#p7b92ee16ef)" d="M 318.384998 -1
L 319.401047 46.593834
L 320.412001 84.040134
L 321.407159 113.064792
L 322.38652 135.453604
L 323.350086 152.605383
L 324.282059 165.429867
L 325.182439 174.930719
L 326.051228 181.875868
L 326.872628 186.775078
L 327.646639 190.151765
L 328.373262 192.399047
L 329.036701 193.787295
L 329.636955 194.574314
L 330.18982 194.956836
L 330.711093 195.054082
L 331.248162 194.919421
L 331.848416 194.52283
L 332.559243 193.765776
L 333.428031 192.490698
L 334.517966 190.465303
L 335.93962 187.314668
L 337.977324 182.202235
L 345.985973 161.592635
L 348.54495 155.875011
L 350.961762 151.008621
L 353.315388 146.762357
L 355.637423 143.025037
L 357.959458 139.702914
L 360.313084 136.720967
L 362.698304 134.054534
L 365.146707 131.64842
L 367.674092 129.474573
L 370.312049 127.4989
L 373.076376 125.706898
L 375.998665 124.078183
L 379.126303 122.591911
L 382.490884 121.242001
L 386.155591 120.014894
L 390.18361 118.90482
L 394.653922 117.907362
L 399.692895 117.015049
L 405.474287 116.222772
L 412.203448 115.531148
L 420.24369 114.935732
L 425.867121 114.626309
L 425.867121 114.626309
" style="fill:none;stroke:#ff7f0e;stroke-dasharray:3.7,1.6;stroke-dashoffset:0;"/>
   </g>
   <g id="line2d_22">
    <path clip-path="url(#p7b92ee16ef)" d="M 309.459088 -1
L 310.460425 36.087959
L 311.471378 65.637122
L 312.466536 88.471345
L 313.445898 106.047507
L 314.409463 119.498155
L 315.341436 129.558204
L 316.257613 137.139963
L 317.142197 142.680719
L 317.979394 146.598295
L 318.784997 149.359196
L 319.543213 151.203802
L 320.25404 152.37567
L 320.901682 153.045453
L 321.517732 153.381859
L 322.133782 153.466785
L 322.781424 153.324348
L 323.508047 152.926312
L 324.376836 152.179704
L 325.435178 150.959772
L 326.809443 149.01195
L 328.768166 145.810935
L 336.618854 132.595111
L 339.051462 129.122858
L 341.3577 126.21199
L 343.584958 123.751961
L 345.79642 121.636172
L 348.007881 119.824671
L 350.250935 118.273004
L 352.541377 116.958105
L 354.895004 115.861883
L 357.343408 114.965664
L 359.918181 114.26013
L 362.650915 113.743481
L 365.573203 113.419746
L 368.732434 113.297101
L 390.30998 113.296386
L 425.867121 113.296386
L 425.867121 113.296386
" style="fill:none;stroke:#1f77b4;stroke-linecap:square;stroke-opacity:0.6;stroke-width:3;"/>
   </g>
   <g id="line2d_23">
    <path clip-path="url(#p7b92ee16ef)" d="M 308.723755 -1
L 309.733802 42.9036
L 310.744755 77.578287
L 311.739913 104.407498
L 312.719275 125.092297
L 313.68284 140.953975
L 314.630609 153.022842
L 315.546786 161.971333
L 316.431371 168.532925
L 317.284363 173.266645
L 318.089967 176.546334
L 318.848182 178.750619
L 319.543213 180.137658
L 320.190855 180.966082
L 320.791109 181.39053
L 321.35977 181.528999
L 321.944228 181.439489
L 322.59187 181.103912
L 323.350086 180.444512
L 324.266263 179.335272
L 325.419382 177.565522
L 326.935812 174.796954
L 329.178866 170.187294
L 336.129174 155.647419
L 338.830316 150.647515
L 341.3577 146.427815
L 343.8219 142.741052
L 346.254508 139.495569
L 348.702912 136.594682
L 351.198704 133.980379
L 353.757681 131.621379
L 356.395638 129.490935
L 359.144169 127.556091
L 362.034865 125.793075
L 365.099319 124.185245
L 368.384919 122.714728
L 371.923257 121.376892
L 375.777518 120.159511
L 380.026684 119.053513
L 384.76553 118.053639
L 390.120426 117.155753
L 396.265129 116.356655
L 403.436583 115.654811
L 411.998098 115.047943
L 422.50254 114.534981
L 425.867121 114.409304
L 425.867121 114.409304
" style="fill:none;stroke:#1f77b4;stroke-dasharray:3.7,1.6;stroke-dashoffset:0;"/>
   </g>
   <g id="text_7">
    <!-- C. Shifted Force -->
    <defs>
     <path d="M 64.40625 67.28125
L 64.40625 56.890625
Q 59.421875 61.53125 53.78125 63.8125
Q 48.140625 66.109375 41.796875 66.109375
Q 29.296875 66.109375 22.65625 58.46875
Q 16.015625 50.828125 16.015625 36.375
Q 16.015625 21.96875 22.65625 14.328125
Q 29.296875 6.6875 41.796875 6.6875
Q 48.140625 6.6875 53.78125 8.984375
Q 59.421875 11.28125 64.40625 15.921875
L 64.40625 5.609375
Q 59.234375 2.09375 53.4375 0.328125
Q 47.65625 -1.421875 41.21875 -1.421875
Q 24.65625 -1.421875 15.125 8.703125
Q 5.609375 18.84375 5.609375 36.375
Q 5.609375 53.953125 15.125 64.078125
Q 24.65625 74.21875 41.21875 74.21875
Q 47.75 74.21875 53.53125 72.484375
Q 59.328125 70.75 64.40625 67.28125
z
" id="DejaVuSans-67"/>
     <path d="M 9.8125 72.90625
L 51.703125 72.90625
L 51.703125 64.59375
L 19.671875 64.59375
L 19.671875 43.109375
L 48.578125 43.109375
L 48.578125 34.8125
L 19.671875 34.8125
L 19.671875 0
L 9.8125 0
z
" id="DejaVuSans-70"/>
    </defs>
    <g transform="translate(317.474185 16.318125)scale(0.12 -0.12)">
     <use xlink:href="#DejaVuSans-67"/>
     <use x="69.824219" xlink:href="#DejaVuSans-46"/>
     <use x="101.611328" xlink:href="#DejaVuSans-32"/>
     <use x="133.398438" xlink:href="#DejaVuSans-83"/>
     <use x="196.875" xlink:href="#DejaVuSans-104"/>
     <use x="260.253906" xlink:href="#DejaVuSans-105"/>
     <use x="288.037109" xlink:href="#DejaVuSans-102"/>
     <use x="323.226562" xlink:href="#DejaVuSans-116"/>
     <use x="362.435547" xlink:href="#DejaVuSans-101"/>
     <use x="423.958984" xlink:href="#DejaVuSans-100"/>
     <use x="487.435547" xlink:href="#DejaVuSans-32"/>
     <use x="519.222656" xlink:href="#DejaVuSans-70"/>
     <use x="576.695312" xlink:href="#DejaVuSans-111"/>
     <use x="637.876953" xlink:href="#DejaVuSans-114"/>
     <use x="678.958984" xlink:href="#DejaVuSans-99"/>
     <use x="733.939453" xlink:href="#DejaVuSans-101"/>
    </g>
   </g>
   <g id="legend_3"/>
  </g>
  <g id="axes_4">
   <g id="line2d_24">
    <path clip-path="url(#p2b5cabba16)" d="M 450.115353 113.296386
L 571.419701 113.296386
" style="fill:none;stroke:#7f7f7f;stroke-dasharray:1.85,0.8;stroke-dashoffset:0;stroke-width:0.5;"/>
   </g>
   <g id="line2d_25">
    <path clip-path="url(#p2b5cabba16)" d="M 463.950216 -1
L 464.966265 46.593834
L 465.977219 84.040134
L 466.972376 113.064792
L 467.951738 135.453604
L 468.915303 152.605383
L 469.847276 165.429867
L 470.747657 174.930719
L 471.616445 181.875868
L 472.437845 186.775078
L 473.211857 190.151765
L 473.93848 192.399047
L 474.601918 193.787295
L 475.202172 194.574314
L 475.755037 194.956836
L 476.276311 195.054082
L 476.81338 194.919421
L 477.413634 194.52283
L 478.12446 193.765776
L 478.993249 192.490698
L 480.083183 190.465303
L 481.504837 187.314668
L 483.542541 182.202235
L 491.551191 161.592635
L 494.110168 155.875011
L 496.526979 151.008621
L 498.880606 146.762357
L 501.20264 143.025037
L 503.524675 139.702914
L 505.878302 136.720967
L 508.263521 134.054534
L 510.711925 131.64842
L 513.239309 129.474573
L 518.531021 125.084669
L 525.686678 118.689967
L 528.135082 116.871988
L 530.283359 115.545636
L 532.273674 114.57357
L 534.153416 113.900034
L 535.969974 113.48439
L 537.739143 113.306114
L 541.024743 113.296386
L 571.432338 113.296386
L 571.432338 113.296386
" style="fill:none;stroke:#ff7f0e;stroke-linecap:square;stroke-width:1.5;"/>
   </g>
   <g id="line2d_26">
    <path clip-path="url(#p2b5cabba16)" d="M 463.950216 -1
L 464.966265 46.593834
L 465.977219 84.040134
L 466.972376 113.064792
L 467.951738 135.453604
L 468.915303 152.605383
L 469.847276 165.429867
L 470.747657 174.930719
L 471.616445 181.875868
L 472.437845 186.775078
L 473.211857 190.151765
L 473.93848 192.399047
L 474.601918 193.787295
L 475.202172 194.574314
L 475.755037 194.956836
L 476.276311 195.054082
L 476.81338 194.919421
L 477.413634 194.52283
L 478.12446 193.765776
L 478.993249 192.490698
L 480.083183 190.465303
L 481.504837 187.314668
L 483.542541 182.202235
L 491.551191 161.592635
L 494.110168 155.875011
L 496.526979 151.008621
L 498.880606 146.762357
L 501.20264 143.025037
L 503.524675 139.702914
L 505.878302 136.720967
L 508.263521 134.054534
L 510.711925 131.64842
L 513.239309 129.474573
L 515.877267 127.4989
L 518.641594 125.706898
L 521.563882 124.078183
L 524.69152 122.591911
L 528.056101 121.242001
L 531.720809 120.014894
L 535.748828 118.90482
L 540.219139 117.907362
L 545.258112 117.015049
L 551.039504 116.222772
L 557.768665 115.531148
L 565.808907 114.935732
L 571.432338 114.626309
L 571.432338 114.626309
" style="fill:none;stroke:#ff7f0e;stroke-dasharray:3.7,1.6;stroke-dashoffset:0;"/>
   </g>
   <g id="line2d_27">
    <path clip-path="url(#p2b5cabba16)" d="M 454.288972 -1
L 455.299019 42.9036
L 456.309973 77.578287
L 457.30513 104.407498
L 458.284492 125.092297
L 459.248057 140.953975
L 460.195826 153.022842
L 461.112003 161.971333
L 461.996588 168.532925
L 462.84958 173.266645
L 463.655184 176.546334
L 464.413399 178.750619
L 465.10843 180.137658
L 465.756072 180.966082
L 466.356326 181.39053
L 466.924988 181.528999
L 467.509445 181.439489
L 468.157088 181.103912
L 468.915303 180.444512
L 469.83148 179.335272
L 470.984599 177.565522
L 472.50103 174.796954
L 474.744084 170.187294
L 481.694391 155.647419
L 484.395533 150.647515
L 486.922918 146.427815
L 489.387118 142.741052
L 491.819725 139.495569
L 494.268129 136.594682
L 496.763921 133.980379
L 499.322898 131.621379
L 501.960856 129.490935
L 504.709386 127.556091
L 507.600083 125.793075
L 510.664536 124.185245
L 513.950136 122.714728
L 514.866313 122.220369
L 517.520067 120.272303
L 520.110636 118.643674
L 522.701205 117.277193
L 525.339163 116.136877
L 528.10349 115.184613
L 531.120555 114.384301
L 534.595709 113.700192
L 538.24462 113.160099
L 538.370989 113.296386
L 571.432338 113.296386
L 571.432338 113.296386
" style="fill:none;stroke:#1f77b4;stroke-linecap:square;stroke-opacity:0.6;stroke-width:3;"/>
   </g>
   <g id="line2d_28">
    <path clip-path="url(#p2b5cabba16)" d="M 454.288972 -1
L 455.299019 42.9036
L 456.309973 77.578287
L 457.30513 104.407498
L 458.284492 125.092297
L 459.248057 140.953975
L 460.195826 153.022842
L 461.112003 161.971333
L 461.996588 168.532925
L 462.84958 173.266645
L 463.655184 176.546334
L 464.413399 178.750619
L 465.10843 180.137658
L 465.756072 180.966082
L 466.356326 181.39053
L 466.924988 181.528999
L 467.509445 181.439489
L 468.157088 181.103912
L 468.915303 180.444512
L 469.83148 179.335272
L 470.984599 177.565522
L 472.50103 174.796954
L 474.744084 170.187294
L 481.694391 155.647419
L 484.395533 150.647515
L 486.922918 146.427815
L 489.387118 142.741052
L 491.819725 139.495569
L 494.268129 136.594682
L 496.763921 133.980379
L 499.322898 131.621379
L 501.960856 129.490935
L 504.709386 127.556091
L 507.600083 125.793075
L 510.664536 124.185245
L 513.950136 122.714728
L 517.488474 121.376892
L 521.342736 120.159511
L 525.591901 119.053513
L 530.330747 118.053639
L 535.685643 117.155753
L 541.830347 116.356655
L 549.0018 115.654811
L 557.563315 115.047943
L 568.067757 114.534981
L 571.432338 114.409304
L 571.432338 114.409304
" style="fill:none;stroke:#1f77b4;stroke-dasharray:3.7,1.6;stroke-dashoffset:0;"/>
   </g>
   <g id="text_8">
    <!-- D. Switching Function -->
    <defs>
     <path d="M 19.671875 64.796875
L 19.671875 8.109375
L 31.59375 8.109375
Q 46.6875 8.109375 53.6875 14.9375
Q 60.6875 21.78125 60.6875 36.53125
Q 60.6875 51.171875 53.6875 57.984375
Q 46.6875 64.796875 31.59375 64.796875
z
M 9.8125 72.90625
L 30.078125 72.90625
Q 51.265625 72.90625 61.171875 64.09375
Q 71.09375 55.28125 71.09375 36.53125
Q 71.09375 17.671875 61.125 8.828125
Q 51.171875 0 30.078125 0
L 9.8125 0
z
" id="DejaVuSans-68"/>
     <path d="M 4.203125 54.6875
L 13.1875 54.6875
L 24.421875 12.015625
L 35.59375 54.6875
L 46.1875 54.6875
L 57.421875 12.015625
L 68.609375 54.6875
L 77.59375 54.6875
L 63.28125 0
L 52.6875 0
L 40.921875 44.828125
L 29.109375 0
L 18.5 0
z
" id="DejaVuSans-119"/>
    </defs>
    <g transform="translate(445.468777 16.318125)scale(0.12 -0.12)">
     <use xlink:href="#DejaVuSans-68"/>
     <use x="77.001953" xlink:href="#DejaVuSans-46"/>
     <use x="108.789062" xlink:href="#DejaVuSans-32"/>
     <use x="140.576172" xlink:href="#DejaVuSans-83"/>
     <use x="204.052734" xlink:href="#DejaVuSans-119"/>
     <use x="285.839844" xlink:href="#DejaVuSans-105"/>
     <use x="313.623047" xlink:href="#DejaVuSans-116"/>
     <use x="352.832031" xlink:href="#DejaVuSans-99"/>
     <use x="407.8125" xlink:href="#DejaVuSans-104"/>
     <use x="471.191406" xlink:href="#DejaVuSans-105"/>
     <use x="498.974609" xlink:href="#DejaVuSans-110"/>
     <use x="562.353516" xlink:href="#DejaVuSans-103"/>
     <use x="625.830078" xlink:href="#DejaVuSans-32"/>
     <use x="657.617188" xlink:href="#DejaVuSans-70"/>
     <use x="715.058594" xlink:href="#DejaVuSans-117"/>
     <use x="778.4375" xlink:href="#DejaVuSans-110"/>
     <use x="841.816406" xlink:href="#DejaVuSans-99"/>
     <use x="896.796875" xlink:href="#DejaVuSans-116"/>
     <use x="936.005859" xlink:href="#DejaVuSans-105"/>
     <use x="963.789062" xlink:href="#DejaVuSans-111"/>
     <use x="1024.970703" xlink:href="#DejaVuSans-110"/>
    </g>
   </g>
  </g>
 </g>
 <defs>
  <clipPath id="p5e2366d138">
   <rect height="181.956522" width="121.304348" x="13.419701" y="22.318125"/>
  </clipPath>
  <clipPath id="p79ee1aa57c">
   <rect height="181.956522" width="121.304348" x="158.984918" y="22.318125"/>
  </clipPath>
  <clipPath id="p7b92ee16ef">
   <rect height="181.956522" width="121.304348" x="304.550136" y="22.318125"/>
  </clipPath>
  <clipPath id="p2b5cabba16">
   <rect height="181.956522" width="121.304348" x="450.115353" y="22.318125"/>
  </clipPath>
 </defs>
</svg>
