<?xml version="1.0" encoding="utf-8" standalone="no"?>
<!DOCTYPE svg PUBLIC "-//W3C//DTD SVG 1.1//EN"
  "http://www.w3.org/Graphics/SVG/1.1/DTD/svg11.dtd">
<!-- Created with matplotlib (https://matplotlib.org/) -->
<svg height="288pt" version="1.1" viewBox="0 0 720 288" width="720pt" xmlns="http://www.w3.org/2000/svg" xmlns:xlink="http://www.w3.org/1999/xlink">
 <defs>
  <style type="text/css">
*{stroke-linecap:butt;stroke-linejoin:round;}
  </style>
 </defs>
 <g id="figure_1">
  <g id="patch_1">
   <path d="M 0 288 
L 720 288 
L 720 0 
L 0 0 
z
" style="fill:#ffffff;"/>
  </g>
  <g id="axes_1">
   <g id="line2d_1">
    <path clip-path="url(#p21d13710b9)" d="M 98.138824 145.44 
L 245.978824 145.44 
" style="fill:none;stroke:#7f7f7f;stroke-dasharray:1.85,0.8;stroke-dashoffset:0;stroke-width:0.5;"/>
   </g>
   <g id="line2d_2">
    <path clip-path="url(#p21d13710b9)" d="M 114.865713 -1 
L 115.988141 53.487018 
L 117.104734 97.348258 
L 118.202075 132.132406 
L 119.299417 160.079101 
L 120.377507 182.00662 
L 121.417093 198.831053 
L 122.437428 211.899148 
L 123.41926 221.771478 
L 124.362589 229.153693 
L 125.267414 234.595265 
L 126.133736 238.525572 
L 126.942304 241.227158 
L 127.693116 243.015347 
L 128.386174 244.130679 
L 129.021477 244.757195 
L 129.599025 245.036035 
L 130.176573 245.068562 
L 130.773373 244.871857 
L 131.447179 244.401567 
L 132.236495 243.560499 
L 133.179824 242.209795 
L 134.33492 240.143284 
L 135.798042 237.035624 
L 137.742454 232.342126 
L 140.957472 223.910301 
L 146.270915 210.037799 
L 149.351171 202.648542 
L 152.123402 196.561721 
L 154.780124 191.255315 
L 157.37909 186.556052 
L 159.939554 182.379794 
L 162.500017 178.62367 
L 165.079732 175.230327 
L 167.69795 172.151633 
L 170.354672 169.367062 
L 173.088399 166.821314 
L 175.918385 164.489419 
L 176.649946 163.932382 
L 176.650126 289 
M 176.707495 289 
L 176.803959 145.44 
L 245.994225 145.44 
L 245.994225 145.44 
" style="fill:none;stroke:#ff7f0e;stroke-linecap:square;stroke-width:1.5;"/>
   </g>
   <g id="line2d_3">
    <path clip-path="url(#p21d13710b9)" d="M 114.865713 -1 
L 115.988141 53.487018 
L 117.104734 97.348258 
L 118.202075 132.132406 
L 119.299417 160.079101 
L 120.377507 182.00662 
L 121.417093 198.831053 
L 122.437428 211.899148 
L 123.41926 221.771478 
L 124.362589 229.153693 
L 125.267414 234.595265 
L 126.133736 238.525572 
L 126.942304 241.227158 
L 127.693116 243.015347 
L 128.386174 244.130679 
L 129.021477 244.757195 
L 129.599025 245.036035 
L 130.176573 245.068562 
L 130.773373 244.871857 
L 131.447179 244.401567 
L 132.236495 243.560499 
L 133.179824 242.209795 
L 134.33492 240.143284 
L 135.798042 237.035624 
L 137.742454 232.342126 
L 140.957472 223.910301 
L 146.270915 210.037799 
L 149.351171 202.648542 
L 152.123402 196.561721 
L 154.780124 191.255315 
L 157.37909 186.556052 
L 159.939554 182.379794 
L 162.500017 178.62367 
L 165.079732 175.230327 
L 167.69795 172.151633 
L 170.354672 169.367062 
L 173.088399 166.821314 
L 175.918385 164.489419 
L 178.863881 162.351696 
L 181.944137 160.392689 
L 185.178407 158.600203 
L 188.605192 156.95586 
L 192.282249 155.440501 
L 196.228828 154.056533 
L 200.521935 152.78904 
L 205.238579 151.63188 
L 210.455763 150.584371 
L 216.308251 149.640053 
L 222.969306 148.795571 
L 230.669948 148.049586 
L 239.737453 147.401423 
L 245.994225 147.060847 
L 245.994225 147.060847 
" style="fill:none;stroke:#ff7f0e;stroke-dasharray:3.7,1.6;stroke-dashoffset:0;"/>
   </g>
   <g id="line2d_4">
    <path clip-path="url(#p21d13710b9)" d="M 103.080935 -1 
L 104.186908 48.983529 
L 105.303501 89.774134 
L 106.400842 122.064701 
L 107.478932 147.580214 
L 108.557022 168.008259 
L 109.61586 183.969392 
L 110.636195 196.155358 
L 111.637278 205.570653 
L 112.599859 212.636002 
L 113.523936 217.876306 
L 114.409509 221.69906 
L 115.25658 224.421823 
L 116.045896 226.255832 
L 116.777457 227.433558 
L 117.470515 228.146878 
L 118.105817 228.499686 
L 118.74112 228.599392 
L 119.395675 228.469389 
L 120.107984 228.093826 
L 120.935803 227.394466 
L 121.917635 226.259653 
L 123.130486 224.493803 
L 124.651363 221.858466 
L 126.711285 217.805313 
L 130.349838 210.058741 
L 135.143487 199.987532 
L 138.30075 193.879954 
L 141.169239 188.806479 
L 143.922219 184.382517 
L 146.617443 180.465659 
L 149.312668 176.937565 
L 152.027144 173.749179 
L 154.780124 170.857757 
L 157.590858 168.227211 
L 160.478599 165.827709 
L 163.481849 163.621662 
L 166.600609 161.60594 
L 169.892633 159.743942 
L 173.377173 158.03052 
L 176.669198 156.621655 
L 176.784707 145.44 
L 245.994225 145.44 
L 245.994225 145.44 
" style="fill:none;stroke:#1f77b4;stroke-linecap:square;stroke-opacity:0.6;stroke-width:3;"/>
   </g>
   <g id="line2d_5">
    <path clip-path="url(#p21d13710b9)" d="M 103.080935 -1 
L 104.186908 48.983529 
L 105.303501 89.774134 
L 106.400842 122.064701 
L 107.478932 147.580214 
L 108.557022 168.008259 
L 109.61586 183.969392 
L 110.636195 196.155358 
L 111.637278 205.570653 
L 112.599859 212.636002 
L 113.523936 217.876306 
L 114.409509 221.69906 
L 115.25658 224.421823 
L 116.045896 226.255832 
L 116.777457 227.433558 
L 117.470515 228.146878 
L 118.105817 228.499686 
L 118.74112 228.599392 
L 119.395675 228.469389 
L 120.107984 228.093826 
L 120.935803 227.394466 
L 121.917635 226.259653 
L 123.130486 224.493803 
L 124.651363 221.858466 
L 126.711285 217.805313 
L 130.349838 210.058741 
L 135.143487 199.987532 
L 138.30075 193.879954 
L 141.169239 188.806479 
L 143.922219 184.382517 
L 146.617443 180.465659 
L 149.312668 176.937565 
L 152.027144 173.749179 
L 154.780124 170.857757 
L 157.590858 168.227211 
L 160.478599 165.827709 
L 163.481849 163.621662 
L 166.600609 161.60594 
L 169.892633 159.743942 
L 173.377173 158.03052 
L 177.092733 156.453704 
L 181.077815 155.006183 
L 185.390174 153.678273 
L 190.106818 152.461042 
L 195.324002 151.348148 
L 201.137987 150.339557 
L 207.702784 149.43103 
L 215.230161 148.619376 
L 223.989641 147.904561 
L 234.424011 147.283414 
L 245.994225 146.796372 
L 245.994225 146.796372 
" style="fill:none;stroke:#1f77b4;stroke-dasharray:3.7,1.6;stroke-dashoffset:0;"/>
   </g>
   <g id="text_1">
    <!-- Potential Truncation -->
    <defs>
     <path d="M 19.671875 64.796875 
L 19.671875 37.40625 
L 32.078125 37.40625 
Q 38.96875 37.40625 42.71875 40.96875 
Q 46.484375 44.53125 46.484375 51.125 
Q 46.484375 57.671875 42.71875 61.234375 
Q 38.96875 64.796875 32.078125 64.796875 
z
M 9.8125 72.90625 
L 32.078125 72.90625 
Q 44.34375 72.90625 50.609375 67.359375 
Q 56.890625 61.8125 56.890625 51.125 
Q 56.890625 40.328125 50.609375 34.8125 
Q 44.34375 29.296875 32.078125 29.296875 
L 19.671875 29.296875 
L 19.671875 0 
L 9.8125 0 
z
" id="DejaVuSans-80"/>
     <path d="M 30.609375 48.390625 
Q 23.390625 48.390625 19.1875 42.75 
Q 14.984375 37.109375 14.984375 27.296875 
Q 14.984375 17.484375 19.15625 11.84375 
Q 23.34375 6.203125 30.609375 6.203125 
Q 37.796875 6.203125 41.984375 11.859375 
Q 46.1875 17.53125 46.1875 27.296875 
Q 46.1875 37.015625 41.984375 42.703125 
Q 37.796875 48.390625 30.609375 48.390625 
z
M 30.609375 56 
Q 42.328125 56 49.015625 48.375 
Q 55.71875 40.765625 55.71875 27.296875 
Q 55.71875 13.875 49.015625 6.21875 
Q 42.328125 -1.421875 30.609375 -1.421875 
Q 18.84375 -1.421875 12.171875 6.21875 
Q 5.515625 13.875 5.515625 27.296875 
Q 5.515625 40.765625 12.171875 48.375 
Q 18.84375 56 30.609375 56 
z
" id="DejaVuSans-111"/>
     <path d="M 18.3125 70.21875 
L 18.3125 54.6875 
L 36.8125 54.6875 
L 36.8125 47.703125 
L 18.3125 47.703125 
L 18.3125 18.015625 
Q 18.3125 11.328125 20.140625 9.421875 
Q 21.96875 7.515625 27.59375 7.515625 
L 36.8125 7.515625 
L 36.8125 0 
L 27.59375 0 
Q 17.1875 0 13.234375 3.875 
Q 9.28125 7.765625 9.28125 18.015625 
L 9.28125 47.703125 
L 2.6875 47.703125 
L 2.6875 54.6875 
L 9.28125 54.6875 
L 9.28125 70.21875 
z
" id="DejaVuSans-116"/>
     <path d="M 56.203125 29.59375 
L 56.203125 25.203125 
L 14.890625 25.203125 
Q 15.484375 15.921875 20.484375 11.0625 
Q 25.484375 6.203125 34.421875 6.203125 
Q 39.59375 6.203125 44.453125 7.46875 
Q 49.3125 8.734375 54.109375 11.28125 
L 54.109375 2.78125 
Q 49.265625 0.734375 44.1875 -0.34375 
Q 39.109375 -1.421875 33.890625 -1.421875 
Q 20.796875 -1.421875 13.15625 6.1875 
Q 5.515625 13.8125 5.515625 26.8125 
Q 5.515625 40.234375 12.765625 48.109375 
Q 20.015625 56 32.328125 56 
Q 43.359375 56 49.78125 48.890625 
Q 56.203125 41.796875 56.203125 29.59375 
z
M 47.21875 32.234375 
Q 47.125 39.59375 43.09375 43.984375 
Q 39.0625 48.390625 32.421875 48.390625 
Q 24.90625 48.390625 20.390625 44.140625 
Q 15.875 39.890625 15.1875 32.171875 
z
" id="DejaVuSans-101"/>
     <path d="M 54.890625 33.015625 
L 54.890625 0 
L 45.90625 0 
L 45.90625 32.71875 
Q 45.90625 40.484375 42.875 44.328125 
Q 39.84375 48.1875 33.796875 48.1875 
Q 26.515625 48.1875 22.3125 43.546875 
Q 18.109375 38.921875 18.109375 30.90625 
L 18.109375 0 
L 9.078125 0 
L 9.078125 54.6875 
L 18.109375 54.6875 
L 18.109375 46.1875 
Q 21.34375 51.125 25.703125 53.5625 
Q 30.078125 56 35.796875 56 
Q 45.21875 56 50.046875 50.171875 
Q 54.890625 44.34375 54.890625 33.015625 
z
" id="DejaVuSans-110"/>
     <path d="M 9.421875 54.6875 
L 18.40625 54.6875 
L 18.40625 0 
L 9.421875 0 
z
M 9.421875 75.984375 
L 18.40625 75.984375 
L 18.40625 64.59375 
L 9.421875 64.59375 
z
" id="DejaVuSans-105"/>
     <path d="M 34.28125 27.484375 
Q 23.390625 27.484375 19.1875 25 
Q 14.984375 22.515625 14.984375 16.5 
Q 14.984375 11.71875 18.140625 8.90625 
Q 21.296875 6.109375 26.703125 6.109375 
Q 34.1875 6.109375 38.703125 11.40625 
Q 43.21875 16.703125 43.21875 25.484375 
L 43.21875 27.484375 
z
M 52.203125 31.203125 
L 52.203125 0 
L 43.21875 0 
L 43.21875 8.296875 
Q 40.140625 3.328125 35.546875 0.953125 
Q 30.953125 -1.421875 24.3125 -1.421875 
Q 15.921875 -1.421875 10.953125 3.296875 
Q 6 8.015625 6 15.921875 
Q 6 25.140625 12.171875 29.828125 
Q 18.359375 34.515625 30.609375 34.515625 
L 43.21875 34.515625 
L 43.21875 35.40625 
Q 43.21875 41.609375 39.140625 45 
Q 35.0625 48.390625 27.6875 48.390625 
Q 23 48.390625 18.546875 47.265625 
Q 14.109375 46.140625 10.015625 43.890625 
L 10.015625 52.203125 
Q 14.9375 54.109375 19.578125 55.046875 
Q 24.21875 56 28.609375 56 
Q 40.484375 56 46.34375 49.84375 
Q 52.203125 43.703125 52.203125 31.203125 
z
" id="DejaVuSans-97"/>
     <path d="M 9.421875 75.984375 
L 18.40625 75.984375 
L 18.40625 0 
L 9.421875 0 
z
" id="DejaVuSans-108"/>
     <path id="DejaVuSans-32"/>
     <path d="M -0.296875 72.90625 
L 61.375 72.90625 
L 61.375 64.59375 
L 35.5 64.59375 
L 35.5 0 
L 25.59375 0 
L 25.59375 64.59375 
L -0.296875 64.59375 
z
" id="DejaVuSans-84"/>
     <path d="M 41.109375 46.296875 
Q 39.59375 47.171875 37.8125 47.578125 
Q 36.03125 48 33.890625 48 
Q 26.265625 48 22.1875 43.046875 
Q 18.109375 38.09375 18.109375 28.8125 
L 18.109375 0 
L 9.078125 0 
L 9.078125 54.6875 
L 18.109375 54.6875 
L 18.109375 46.1875 
Q 20.953125 51.171875 25.484375 53.578125 
Q 30.03125 56 36.53125 56 
Q 37.453125 56 38.578125 55.875 
Q 39.703125 55.765625 41.0625 55.515625 
z
" id="DejaVuSans-114"/>
     <path d="M 8.5 21.578125 
L 8.5 54.6875 
L 17.484375 54.6875 
L 17.484375 21.921875 
Q 17.484375 14.15625 20.5 10.265625 
Q 23.53125 6.390625 29.59375 6.390625 
Q 36.859375 6.390625 41.078125 11.03125 
Q 45.3125 15.671875 45.3125 23.6875 
L 45.3125 54.6875 
L 54.296875 54.6875 
L 54.296875 0 
L 45.3125 0 
L 45.3125 8.40625 
Q 42.046875 3.421875 37.71875 1 
Q 33.40625 -1.421875 27.6875 -1.421875 
Q 18.265625 -1.421875 13.375 4.4375 
Q 8.5 10.296875 8.5 21.578125 
z
M 31.109375 56 
z
" id="DejaVuSans-117"/>
     <path d="M 48.78125 52.59375 
L 48.78125 44.1875 
Q 44.96875 46.296875 41.140625 47.34375 
Q 37.3125 48.390625 33.40625 48.390625 
Q 24.65625 48.390625 19.8125 42.84375 
Q 14.984375 37.3125 14.984375 27.296875 
Q 14.984375 17.28125 19.8125 11.734375 
Q 24.65625 6.203125 33.40625 6.203125 
Q 37.3125 6.203125 41.140625 7.25 
Q 44.96875 8.296875 48.78125 10.40625 
L 48.78125 2.09375 
Q 45.015625 0.34375 40.984375 -0.53125 
Q 36.96875 -1.421875 32.421875 -1.421875 
Q 20.0625 -1.421875 12.78125 6.34375 
Q 5.515625 14.109375 5.515625 27.296875 
Q 5.515625 40.671875 12.859375 48.328125 
Q 20.21875 56 33.015625 56 
Q 37.15625 56 41.109375 55.140625 
Q 45.0625 54.296875 48.78125 52.59375 
z
" id="DejaVuSans-99"/>
    </defs>
    <g transform="translate(111.464449 28.56)scale(0.12 -0.12)">
     <use xlink:href="#DejaVuSans-80"/>
     <use x="60.255859" xlink:href="#DejaVuSans-111"/>
     <use x="121.4375" xlink:href="#DejaVuSans-116"/>
     <use x="160.646484" xlink:href="#DejaVuSans-101"/>
     <use x="222.169922" xlink:href="#DejaVuSans-110"/>
     <use x="285.548828" xlink:href="#DejaVuSans-116"/>
     <use x="324.757812" xlink:href="#DejaVuSans-105"/>
     <use x="352.541016" xlink:href="#DejaVuSans-97"/>
     <use x="413.820312" xlink:href="#DejaVuSans-108"/>
     <use x="441.603516" xlink:href="#DejaVuSans-32"/>
     <use x="473.390625" xlink:href="#DejaVuSans-84"/>
     <use x="534.255859" xlink:href="#DejaVuSans-114"/>
     <use x="575.369141" xlink:href="#DejaVuSans-117"/>
     <use x="638.748047" xlink:href="#DejaVuSans-110"/>
     <use x="702.126953" xlink:href="#DejaVuSans-99"/>
     <use x="757.107422" xlink:href="#DejaVuSans-97"/>
     <use x="818.386719" xlink:href="#DejaVuSans-116"/>
     <use x="857.595703" xlink:href="#DejaVuSans-105"/>
     <use x="885.378906" xlink:href="#DejaVuSans-111"/>
     <use x="946.560547" xlink:href="#DejaVuSans-110"/>
    </g>
   </g>
   <g id="legend_1"/>
  </g>
  <g id="axes_2">
   <g id="line2d_6">
    <path clip-path="url(#p8e61d70c84)" d="M 295.08 145.44 
L 442.92 145.44 
" style="fill:none;stroke:#7f7f7f;stroke-dasharray:1.85,0.8;stroke-dashoffset:0;stroke-width:0.5;"/>
   </g>
   <g id="line2d_7">
    <path clip-path="url(#p8e61d70c84)" d="M 311.80689 -1 
L 312.929317 53.487018 
L 314.04591 97.348258 
L 315.143252 132.132406 
L 316.240593 160.079101 
L 317.318683 182.00662 
L 318.35827 198.831053 
L 319.378605 211.899148 
L 320.360437 221.771478 
L 321.303765 229.153693 
L 322.208591 234.595265 
L 323.074913 238.525572 
L 323.88348 241.227158 
L 324.634293 243.015347 
L 325.327351 244.130679 
L 325.962654 244.757195 
L 326.540202 245.036035 
L 327.11775 245.068562 
L 327.71455 244.871857 
L 328.388356 244.401567 
L 329.177671 243.560499 
L 330.121 242.209795 
L 331.276096 240.143284 
L 332.739218 237.035624 
L 334.68363 232.342126 
L 337.898648 223.910301 
L 343.212091 210.037799 
L 346.292348 202.648542 
L 349.064579 196.561721 
L 351.7213 191.255315 
L 354.320267 186.556052 
L 356.88073 182.379794 
L 359.441193 178.62367 
L 362.020908 175.230327 
L 364.639127 172.151633 
L 367.295848 169.367062 
L 370.029576 166.821314 
L 372.859562 164.489419 
L 373.610374 163.917963 
L 373.745135 145.44 
L 442.935401 145.44 
L 442.935401 145.44 
" style="fill:none;stroke:#ff7f0e;stroke-linecap:square;stroke-width:1.5;"/>
   </g>
   <g id="line2d_8">
    <path clip-path="url(#p8e61d70c84)" d="M 311.80689 -1 
L 312.929317 53.487018 
L 314.04591 97.348258 
L 315.143252 132.132406 
L 316.240593 160.079101 
L 317.318683 182.00662 
L 318.35827 198.831053 
L 319.378605 211.899148 
L 320.360437 221.771478 
L 321.303765 229.153693 
L 322.208591 234.595265 
L 323.074913 238.525572 
L 323.88348 241.227158 
L 324.634293 243.015347 
L 325.327351 244.130679 
L 325.962654 244.757195 
L 326.540202 245.036035 
L 327.11775 245.068562 
L 327.71455 244.871857 
L 328.388356 244.401567 
L 329.177671 243.560499 
L 330.121 242.209795 
L 331.276096 240.143284 
L 332.739218 237.035624 
L 334.68363 232.342126 
L 337.898648 223.910301 
L 343.212091 210.037799 
L 346.292348 202.648542 
L 349.064579 196.561721 
L 351.7213 191.255315 
L 354.320267 186.556052 
L 356.88073 182.379794 
L 359.441193 178.62367 
L 362.020908 175.230327 
L 364.639127 172.151633 
L 367.295848 169.367062 
L 370.029576 166.821314 
L 372.859562 164.489419 
L 375.805057 162.351696 
L 378.885314 160.392689 
L 382.119583 158.600203 
L 385.546369 156.95586 
L 389.223425 155.440501 
L 393.170004 154.056533 
L 397.463112 152.78904 
L 402.179755 151.63188 
L 407.39694 150.584371 
L 413.249427 149.640053 
L 419.910483 148.795571 
L 427.611124 148.049586 
L 436.67863 147.401423 
L 442.935401 147.060847 
L 442.935401 147.060847 
" style="fill:none;stroke:#ff7f0e;stroke-dasharray:3.7,1.6;stroke-dashoffset:0;"/>
   </g>
   <g id="line2d_9">
    <path clip-path="url(#p8e61d70c84)" d="M 300.250004 -1 
L 301.359103 46.984645 
L 302.475696 85.990464 
L 303.573038 116.836634 
L 304.651128 141.179548 
L 305.709966 160.327409 
L 306.749552 175.317175 
L 307.769887 186.973589 
L 308.770971 195.954698 
L 309.733551 202.669815 
L 310.657628 207.626525 
L 311.543202 211.218831 
L 312.371021 213.704904 
L 313.141085 215.369091 
L 313.872646 216.450048 
L 314.546452 217.070534 
L 315.181755 217.366955 
L 315.817058 217.416979 
L 316.471613 217.242076 
L 317.203174 216.809841 
L 318.069496 216.022152 
L 319.089831 214.777443 
L 320.341185 212.882699 
L 321.939068 210.034446 
L 324.153003 205.593126 
L 329.293181 194.596277 
L 333.027992 186.935057 
L 336.069746 181.193631 
L 338.899732 176.319542 
L 341.633459 172.048384 
L 344.328684 168.24513 
L 347.023909 164.823209 
L 349.738385 161.733122 
L 352.491364 158.932226 
L 355.32135 156.368342 
L 358.247594 154.017723 
L 361.270096 151.874 
L 364.446611 149.894581 
L 367.777138 148.081594 
L 371.319433 146.407959 
L 373.783639 145.44 
L 442.935401 145.44 
L 442.935401 145.44 
" style="fill:none;stroke:#1f77b4;stroke-linecap:square;stroke-opacity:0.6;stroke-width:3;"/>
   </g>
   <g id="line2d_10">
    <path clip-path="url(#p8e61d70c84)" d="M 300.022112 -1 
L 301.128084 48.983529 
L 302.244677 89.774134 
L 303.342019 122.064701 
L 304.420108 147.580214 
L 305.498198 168.008259 
L 306.557036 183.969392 
L 307.577371 196.155358 
L 308.578455 205.570653 
L 309.541035 212.636002 
L 310.465112 217.876306 
L 311.350686 221.69906 
L 312.197756 224.421823 
L 312.987072 226.255832 
L 313.718633 227.433558 
L 314.411691 228.146878 
L 315.046994 228.499686 
L 315.682297 228.599392 
L 316.336851 228.469389 
L 317.049161 228.093826 
L 317.87698 227.394466 
L 318.858812 226.259653 
L 320.071663 224.493803 
L 321.592539 221.858466 
L 323.652461 217.805313 
L 327.291014 210.058741 
L 332.084664 199.987532 
L 335.241927 193.879954 
L 338.110416 188.806479 
L 340.863395 184.382517 
L 343.55862 180.465659 
L 346.253844 176.937565 
L 348.968321 173.749179 
L 351.7213 170.857757 
L 354.532034 168.227211 
L 357.419775 165.827709 
L 360.423025 163.621662 
L 363.541785 161.60594 
L 366.833809 159.743942 
L 370.31835 158.03052 
L 374.033909 156.453704 
L 378.018992 155.006183 
L 382.331351 153.678273 
L 387.047994 152.461042 
L 392.265179 151.348148 
L 398.079163 150.339557 
L 404.64396 149.43103 
L 412.171338 148.619376 
L 420.930818 147.904561 
L 431.365187 147.283414 
L 442.935401 146.796372 
L 442.935401 146.796372 
" style="fill:none;stroke:#1f77b4;stroke-dasharray:3.7,1.6;stroke-dashoffset:0;"/>
   </g>
   <g id="text_2">
    <!-- Potential Shift -->
    <defs>
     <path d="M 53.515625 70.515625 
L 53.515625 60.890625 
Q 47.90625 63.578125 42.921875 64.890625 
Q 37.9375 66.21875 33.296875 66.21875 
Q 25.25 66.21875 20.875 63.09375 
Q 16.5 59.96875 16.5 54.203125 
Q 16.5 49.359375 19.40625 46.890625 
Q 22.3125 44.4375 30.421875 42.921875 
L 36.375 41.703125 
Q 47.40625 39.59375 52.65625 34.296875 
Q 57.90625 29 57.90625 20.125 
Q 57.90625 9.515625 50.796875 4.046875 
Q 43.703125 -1.421875 29.984375 -1.421875 
Q 24.8125 -1.421875 18.96875 -0.25 
Q 13.140625 0.921875 6.890625 3.21875 
L 6.890625 13.375 
Q 12.890625 10.015625 18.65625 8.296875 
Q 24.421875 6.59375 29.984375 6.59375 
Q 38.421875 6.59375 43.015625 9.90625 
Q 47.609375 13.234375 47.609375 19.390625 
Q 47.609375 24.75 44.3125 27.78125 
Q 41.015625 30.8125 33.5 32.328125 
L 27.484375 33.5 
Q 16.453125 35.6875 11.515625 40.375 
Q 6.59375 45.0625 6.59375 53.421875 
Q 6.59375 63.09375 13.40625 68.65625 
Q 20.21875 74.21875 32.171875 74.21875 
Q 37.3125 74.21875 42.625 73.28125 
Q 47.953125 72.359375 53.515625 70.515625 
z
" id="DejaVuSans-83"/>
     <path d="M 54.890625 33.015625 
L 54.890625 0 
L 45.90625 0 
L 45.90625 32.71875 
Q 45.90625 40.484375 42.875 44.328125 
Q 39.84375 48.1875 33.796875 48.1875 
Q 26.515625 48.1875 22.3125 43.546875 
Q 18.109375 38.921875 18.109375 30.90625 
L 18.109375 0 
L 9.078125 0 
L 9.078125 75.984375 
L 18.109375 75.984375 
L 18.109375 46.1875 
Q 21.34375 51.125 25.703125 53.5625 
Q 30.078125 56 35.796875 56 
Q 45.21875 56 50.046875 50.171875 
Q 54.890625 44.34375 54.890625 33.015625 
z
" id="DejaVuSans-104"/>
     <path d="M 37.109375 75.984375 
L 37.109375 68.5 
L 28.515625 68.5 
Q 23.6875 68.5 21.796875 66.546875 
Q 19.921875 64.59375 19.921875 59.515625 
L 19.921875 54.6875 
L 34.71875 54.6875 
L 34.71875 47.703125 
L 19.921875 47.703125 
L 19.921875 0 
L 10.890625 0 
L 10.890625 47.703125 
L 2.296875 47.703125 
L 2.296875 54.6875 
L 10.890625 54.6875 
L 10.890625 58.5 
Q 10.890625 67.625 15.140625 71.796875 
Q 19.390625 75.984375 28.609375 75.984375 
z
" id="DejaVuSans-102"/>
    </defs>
    <g transform="translate(326.855625 28.56)scale(0.12 -0.12)">
     <use xlink:href="#DejaVuSans-80"/>
     <use x="60.255859" xlink:href="#DejaVuSans-111"/>
     <use x="121.4375" xlink:href="#DejaVuSans-116"/>
     <use x="160.646484" xlink:href="#DejaVuSans-101"/>
     <use x="222.169922" xlink:href="#DejaVuSans-110"/>
     <use x="285.548828" xlink:href="#DejaVuSans-116"/>
     <use x="324.757812" xlink:href="#DejaVuSans-105"/>
     <use x="352.541016" xlink:href="#DejaVuSans-97"/>
     <use x="413.820312" xlink:href="#DejaVuSans-108"/>
     <use x="441.603516" xlink:href="#DejaVuSans-32"/>
     <use x="473.390625" xlink:href="#DejaVuSans-83"/>
     <use x="536.867188" xlink:href="#DejaVuSans-104"/>
     <use x="600.246094" xlink:href="#DejaVuSans-105"/>
     <use x="628.029297" xlink:href="#DejaVuSans-102"/>
     <use x="663.21875" xlink:href="#DejaVuSans-116"/>
    </g>
   </g>
   <g id="legend_2">
    <g id="line2d_11">
     <path d="M 244.126562 260.326188 
L 264.126562 260.326188 
" style="fill:none;stroke:#ff7f0e;stroke-linecap:square;stroke-width:1.5;"/>
    </g>
    <g id="line2d_12"/>
    <g id="text_3">
     <!-- truncated force -->
     <defs>
      <path d="M 45.40625 46.390625 
L 45.40625 75.984375 
L 54.390625 75.984375 
L 54.390625 0 
L 45.40625 0 
L 45.40625 8.203125 
Q 42.578125 3.328125 38.25 0.953125 
Q 33.9375 -1.421875 27.875 -1.421875 
Q 17.96875 -1.421875 11.734375 6.484375 
Q 5.515625 14.40625 5.515625 27.296875 
Q 5.515625 40.1875 11.734375 48.09375 
Q 17.96875 56 27.875 56 
Q 33.9375 56 38.25 53.625 
Q 42.578125 51.265625 45.40625 46.390625 
z
M 14.796875 27.296875 
Q 14.796875 17.390625 18.875 11.75 
Q 22.953125 6.109375 30.078125 6.109375 
Q 37.203125 6.109375 41.296875 11.75 
Q 45.40625 17.390625 45.40625 27.296875 
Q 45.40625 37.203125 41.296875 42.84375 
Q 37.203125 48.484375 30.078125 48.484375 
Q 22.953125 48.484375 18.875 42.84375 
Q 14.796875 37.203125 14.796875 27.296875 
z
" id="DejaVuSans-100"/>
     </defs>
     <g transform="translate(272.126562 263.826188)scale(0.1 -0.1)">
      <use xlink:href="#DejaVuSans-116"/>
      <use x="39.208984" xlink:href="#DejaVuSans-114"/>
      <use x="80.322266" xlink:href="#DejaVuSans-117"/>
      <use x="143.701172" xlink:href="#DejaVuSans-110"/>
      <use x="207.080078" xlink:href="#DejaVuSans-99"/>
      <use x="262.060547" xlink:href="#DejaVuSans-97"/>
      <use x="323.339844" xlink:href="#DejaVuSans-116"/>
      <use x="362.548828" xlink:href="#DejaVuSans-101"/>
      <use x="424.072266" xlink:href="#DejaVuSans-100"/>
      <use x="487.548828" xlink:href="#DejaVuSans-32"/>
      <use x="519.335938" xlink:href="#DejaVuSans-102"/>
      <use x="554.541016" xlink:href="#DejaVuSans-111"/>
      <use x="615.722656" xlink:href="#DejaVuSans-114"/>
      <use x="656.804688" xlink:href="#DejaVuSans-99"/>
      <use x="711.785156" xlink:href="#DejaVuSans-101"/>
     </g>
    </g>
    <g id="line2d_13">
     <path d="M 244.126562 275.004313 
L 264.126562 275.004313 
" style="fill:none;stroke:#ff7f0e;stroke-dasharray:3.7,1.6;stroke-dashoffset:0;"/>
    </g>
    <g id="line2d_14"/>
    <g id="text_4">
     <!-- original force -->
     <defs>
      <path d="M 45.40625 27.984375 
Q 45.40625 37.75 41.375 43.109375 
Q 37.359375 48.484375 30.078125 48.484375 
Q 22.859375 48.484375 18.828125 43.109375 
Q 14.796875 37.75 14.796875 27.984375 
Q 14.796875 18.265625 18.828125 12.890625 
Q 22.859375 7.515625 30.078125 7.515625 
Q 37.359375 7.515625 41.375 12.890625 
Q 45.40625 18.265625 45.40625 27.984375 
z
M 54.390625 6.78125 
Q 54.390625 -7.171875 48.1875 -13.984375 
Q 42 -20.796875 29.203125 -20.796875 
Q 24.46875 -20.796875 20.265625 -20.09375 
Q 16.0625 -19.390625 12.109375 -17.921875 
L 12.109375 -9.1875 
Q 16.0625 -11.328125 19.921875 -12.34375 
Q 23.78125 -13.375 27.78125 -13.375 
Q 36.625 -13.375 41.015625 -8.765625 
Q 45.40625 -4.15625 45.40625 5.171875 
L 45.40625 9.625 
Q 42.625 4.78125 38.28125 2.390625 
Q 33.9375 0 27.875 0 
Q 17.828125 0 11.671875 7.65625 
Q 5.515625 15.328125 5.515625 27.984375 
Q 5.515625 40.671875 11.671875 48.328125 
Q 17.828125 56 27.875 56 
Q 33.9375 56 38.28125 53.609375 
Q 42.625 51.21875 45.40625 46.390625 
L 45.40625 54.6875 
L 54.390625 54.6875 
z
" id="DejaVuSans-103"/>
     </defs>
     <g transform="translate(272.126562 278.504313)scale(0.1 -0.1)">
      <use xlink:href="#DejaVuSans-111"/>
      <use x="61.181641" xlink:href="#DejaVuSans-114"/>
      <use x="102.294922" xlink:href="#DejaVuSans-105"/>
      <use x="130.078125" xlink:href="#DejaVuSans-103"/>
      <use x="193.554688" xlink:href="#DejaVuSans-105"/>
      <use x="221.337891" xlink:href="#DejaVuSans-110"/>
      <use x="284.716797" xlink:href="#DejaVuSans-97"/>
      <use x="345.996094" xlink:href="#DejaVuSans-108"/>
      <use x="373.779297" xlink:href="#DejaVuSans-32"/>
      <use x="405.566406" xlink:href="#DejaVuSans-102"/>
      <use x="440.771484" xlink:href="#DejaVuSans-111"/>
      <use x="501.953125" xlink:href="#DejaVuSans-114"/>
      <use x="543.035156" xlink:href="#DejaVuSans-99"/>
      <use x="598.015625" xlink:href="#DejaVuSans-101"/>
     </g>
    </g>
    <g id="line2d_15">
     <path d="M 369.457812 260.326188 
L 389.457812 260.326188 
" style="fill:none;stroke:#1f77b4;stroke-linecap:square;stroke-opacity:0.6;stroke-width:3;"/>
    </g>
    <g id="line2d_16"/>
    <g id="text_5">
     <!-- truncated potential -->
     <defs>
      <path d="M 18.109375 8.203125 
L 18.109375 -20.796875 
L 9.078125 -20.796875 
L 9.078125 54.6875 
L 18.109375 54.6875 
L 18.109375 46.390625 
Q 20.953125 51.265625 25.265625 53.625 
Q 29.59375 56 35.59375 56 
Q 45.5625 56 51.78125 48.09375 
Q 58.015625 40.1875 58.015625 27.296875 
Q 58.015625 14.40625 51.78125 6.484375 
Q 45.5625 -1.421875 35.59375 -1.421875 
Q 29.59375 -1.421875 25.265625 0.953125 
Q 20.953125 3.328125 18.109375 8.203125 
z
M 48.6875 27.296875 
Q 48.6875 37.203125 44.609375 42.84375 
Q 40.53125 48.484375 33.40625 48.484375 
Q 26.265625 48.484375 22.1875 42.84375 
Q 18.109375 37.203125 18.109375 27.296875 
Q 18.109375 17.390625 22.1875 11.75 
Q 26.265625 6.109375 33.40625 6.109375 
Q 40.53125 6.109375 44.609375 11.75 
Q 48.6875 17.390625 48.6875 27.296875 
z
" id="DejaVuSans-112"/>
     </defs>
     <g transform="translate(397.457812 263.826188)scale(0.1 -0.1)">
      <use xlink:href="#DejaVuSans-116"/>
      <use x="39.208984" xlink:href="#DejaVuSans-114"/>
      <use x="80.322266" xlink:href="#DejaVuSans-117"/>
      <use x="143.701172" xlink:href="#DejaVuSans-110"/>
      <use x="207.080078" xlink:href="#DejaVuSans-99"/>
      <use x="262.060547" xlink:href="#DejaVuSans-97"/>
      <use x="323.339844" xlink:href="#DejaVuSans-116"/>
      <use x="362.548828" xlink:href="#DejaVuSans-101"/>
      <use x="424.072266" xlink:href="#DejaVuSans-100"/>
      <use x="487.548828" xlink:href="#DejaVuSans-32"/>
      <use x="519.335938" xlink:href="#DejaVuSans-112"/>
      <use x="582.8125" xlink:href="#DejaVuSans-111"/>
      <use x="643.994141" xlink:href="#DejaVuSans-116"/>
      <use x="683.203125" xlink:href="#DejaVuSans-101"/>
      <use x="744.726562" xlink:href="#DejaVuSans-110"/>
      <use x="808.105469" xlink:href="#DejaVuSans-116"/>
      <use x="847.314453" xlink:href="#DejaVuSans-105"/>
      <use x="875.097656" xlink:href="#DejaVuSans-97"/>
      <use x="936.376953" xlink:href="#DejaVuSans-108"/>
     </g>
    </g>
    <g id="line2d_17">
     <path d="M 369.457812 275.004313 
L 389.457812 275.004313 
" style="fill:none;stroke:#1f77b4;stroke-dasharray:3.7,1.6;stroke-dashoffset:0;"/>
    </g>
    <g id="line2d_18"/>
    <g id="text_6">
     <!-- original potential -->
     <g transform="translate(397.457812 278.504313)scale(0.1 -0.1)">
      <use xlink:href="#DejaVuSans-111"/>
      <use x="61.181641" xlink:href="#DejaVuSans-114"/>
      <use x="102.294922" xlink:href="#DejaVuSans-105"/>
      <use x="130.078125" xlink:href="#DejaVuSans-103"/>
      <use x="193.554688" xlink:href="#DejaVuSans-105"/>
      <use x="221.337891" xlink:href="#DejaVuSans-110"/>
      <use x="284.716797" xlink:href="#DejaVuSans-97"/>
      <use x="345.996094" xlink:href="#DejaVuSans-108"/>
      <use x="373.779297" xlink:href="#DejaVuSans-32"/>
      <use x="405.566406" xlink:href="#DejaVuSans-112"/>
      <use x="469.042969" xlink:href="#DejaVuSans-111"/>
      <use x="530.224609" xlink:href="#DejaVuSans-116"/>
      <use x="569.433594" xlink:href="#DejaVuSans-101"/>
      <use x="630.957031" xlink:href="#DejaVuSans-110"/>
      <use x="694.335938" xlink:href="#DejaVuSans-116"/>
      <use x="733.544922" xlink:href="#DejaVuSans-105"/>
      <use x="761.328125" xlink:href="#DejaVuSans-97"/>
      <use x="822.607422" xlink:href="#DejaVuSans-108"/>
     </g>
    </g>
   </g>
  </g>
  <g id="axes_3">
   <g id="line2d_19">
    <path clip-path="url(#pde081630a8)" d="M 492.021176 145.44 
L 639.861176 145.44 
" style="fill:none;stroke:#7f7f7f;stroke-dasharray:1.85,0.8;stroke-dashoffset:0;stroke-width:0.5;"/>
   </g>
   <g id="line2d_20">
    <path clip-path="url(#pde081630a8)" d="M 509.102658 -1 
L 510.236274 50.433848 
L 511.352867 91.320308 
L 512.450209 123.682125 
L 513.528299 149.212974 
L 514.587137 169.260898 
L 515.626724 184.902103 
L 516.627807 196.796479 
L 517.609639 205.928188 
L 518.552967 212.709649 
L 519.457793 217.662309 
L 520.304863 221.126604 
L 521.094179 223.4801 
L 521.82574 225.010158 
L 522.499546 225.93621 
L 523.115598 226.426283 
L 523.693146 226.611531 
L 524.270694 226.560593 
L 524.886745 226.275041 
L 525.599055 225.683691 
L 526.446125 224.6675 
L 527.46646 223.069307 
L 528.717815 220.669767 
L 530.315698 217.095119 
L 532.548884 211.507349 
L 542.713731 185.387495 
L 545.524465 179.114798 
L 548.200438 173.677629 
L 550.799405 168.893249 
L 553.359868 164.637848 
L 555.920331 160.808316 
L 558.500046 157.347243 
L 561.099013 154.228046 
L 563.755734 151.38422 
L 566.470211 148.801285 
L 569.280945 146.432687 
L 570.705564 145.44 
L 639.876578 145.44 
L 639.876578 145.44 
" style="fill:none;stroke:#ff7f0e;stroke-linecap:square;stroke-width:1.5;"/>
   </g>
   <g id="line2d_21">
    <path clip-path="url(#pde081630a8)" d="M 508.748066 -1 
L 509.870494 53.487018 
L 510.987087 97.348258 
L 512.084428 132.132406 
L 513.18177 160.079101 
L 514.25986 182.00662 
L 515.299446 198.831053 
L 516.319781 211.899148 
L 517.301613 221.771478 
L 518.244942 229.153693 
L 519.149767 234.595265 
L 520.016089 238.525572 
L 520.824657 241.227158 
L 521.575469 243.015347 
L 522.268527 244.130679 
L 522.90383 244.757195 
L 523.481378 245.036035 
L 524.058926 245.068562 
L 524.655726 244.871857 
L 525.329532 244.401567 
L 526.118848 243.560499 
L 527.062177 242.209795 
L 528.217273 240.143284 
L 529.680395 237.035624 
L 531.624807 232.342126 
L 534.839825 223.910301 
L 540.153267 210.037799 
L 543.233524 202.648542 
L 546.005755 196.561721 
L 548.662477 191.255315 
L 551.261443 186.556052 
L 553.821907 182.379794 
L 556.38237 178.62367 
L 558.962085 175.230327 
L 561.580303 172.151633 
L 564.237024 169.367062 
L 566.970752 166.821314 
L 569.800738 164.489419 
L 572.746234 162.351696 
L 575.82649 160.392689 
L 579.06076 158.600203 
L 582.487545 156.95586 
L 586.164602 155.440501 
L 590.111181 154.056533 
L 594.404288 152.78904 
L 599.120931 151.63188 
L 604.338116 150.584371 
L 610.190604 149.640053 
L 616.851659 148.795571 
L 624.552301 148.049586 
L 633.619806 147.401423 
L 639.876578 147.060847 
L 639.876578 147.060847 
" style="fill:none;stroke:#ff7f0e;stroke-dasharray:3.7,1.6;stroke-dashoffset:0;"/>
   </g>
   <g id="line2d_22">
    <path clip-path="url(#pde081630a8)" d="M 497.834691 -1 
L 498.935583 41.580033 
L 500.052176 76.481069 
L 501.149517 104.082525 
L 502.227607 125.866266 
L 503.286445 143.003279 
L 504.326032 156.422151 
L 505.346367 166.861668 
L 506.34745 174.911412 
L 507.310031 180.937878 
L 508.234108 185.395409 
L 509.119681 188.636517 
L 509.966752 190.935678 
L 510.756068 192.476246 
L 511.50688 193.478898 
L 512.199938 194.05795 
L 512.873744 194.343678 
L 513.54755 194.3912 
L 514.25986 194.216716 
L 515.068427 193.779023 
L 516.011756 192.999476 
L 517.1476 191.752816 
L 518.552967 189.860187 
L 520.420373 186.944662 
L 523.442875 181.752465 
L 528.737066 172.678451 
L 531.682562 168.097566 
L 534.339283 164.368601 
L 536.861243 161.203679 
L 539.325448 158.462073 
L 541.770402 156.071699 
L 544.215356 153.991015 
L 546.679561 152.185129 
L 549.18227 150.626054 
L 551.742733 149.292309 
L 554.380203 148.16823 
L 557.133182 147.237463 
L 560.020923 146.498112 
L 563.062677 145.951021 
L 566.296946 145.597583 
L 569.762235 145.445356 
L 578.598721 145.44 
L 639.876578 145.44 
L 639.876578 145.44 
" style="fill:none;stroke:#1f77b4;stroke-linecap:square;stroke-opacity:0.6;stroke-width:3;"/>
   </g>
   <g id="line2d_23">
    <path clip-path="url(#pde081630a8)" d="M 496.963288 -1 
L 498.06926 48.983529 
L 499.185854 89.774134 
L 500.283195 122.064701 
L 501.361285 147.580214 
L 502.439375 168.008259 
L 503.498213 183.969392 
L 504.518548 196.155358 
L 505.519631 205.570653 
L 506.482212 212.636002 
L 507.406289 217.876306 
L 508.291862 221.69906 
L 509.138933 224.421823 
L 509.928249 226.255832 
L 510.65981 227.433558 
L 511.352867 228.146878 
L 511.98817 228.499686 
L 512.623473 228.599392 
L 513.278028 228.469389 
L 513.990337 228.093826 
L 514.818156 227.394466 
L 515.799988 226.259653 
L 517.012839 224.493803 
L 518.533716 221.858466 
L 520.593638 217.805313 
L 524.232191 210.058741 
L 529.02584 199.987532 
L 532.183103 193.879954 
L 535.051592 188.806479 
L 537.804572 184.382517 
L 540.499796 180.465659 
L 543.195021 176.937565 
L 545.909497 173.749179 
L 548.662477 170.857757 
L 551.473211 168.227211 
L 554.360951 165.827709 
L 557.364202 163.621662 
L 560.482962 161.60594 
L 563.774986 159.743942 
L 567.259526 158.03052 
L 570.975086 156.453704 
L 574.960168 155.006183 
L 579.272527 153.678273 
L 583.98917 152.461042 
L 589.206355 151.348148 
L 595.02034 150.339557 
L 601.585137 149.43103 
L 609.112514 148.619376 
L 617.871994 147.904561 
L 628.306364 147.283414 
L 639.876578 146.796372 
L 639.876578 146.796372 
" style="fill:none;stroke:#1f77b4;stroke-dasharray:3.7,1.6;stroke-dashoffset:0;"/>
   </g>
   <g id="text_7">
    <!-- Force Shift -->
    <defs>
     <path d="M 9.8125 72.90625 
L 51.703125 72.90625 
L 51.703125 64.59375 
L 19.671875 64.59375 
L 19.671875 43.109375 
L 48.578125 43.109375 
L 48.578125 34.8125 
L 19.671875 34.8125 
L 19.671875 0 
L 9.8125 0 
z
" id="DejaVuSans-70"/>
    </defs>
    <g transform="translate(533.717426 28.56)scale(0.12 -0.12)">
     <use xlink:href="#DejaVuSans-70"/>
     <use x="57.472656" xlink:href="#DejaVuSans-111"/>
     <use x="118.654297" xlink:href="#DejaVuSans-114"/>
     <use x="159.736328" xlink:href="#DejaVuSans-99"/>
     <use x="214.716797" xlink:href="#DejaVuSans-101"/>
     <use x="276.240234" xlink:href="#DejaVuSans-32"/>
     <use x="308.027344" xlink:href="#DejaVuSans-83"/>
     <use x="371.503906" xlink:href="#DejaVuSans-104"/>
     <use x="434.882812" xlink:href="#DejaVuSans-105"/>
     <use x="462.666016" xlink:href="#DejaVuSans-102"/>
     <use x="497.855469" xlink:href="#DejaVuSans-116"/>
    </g>
   </g>
   <g id="legend_3"/>
  </g>
 </g>
 <defs>
  <clipPath id="p21d13710b9">
   <rect height="221.76" width="147.84" x="98.138824" y="34.56"/>
  </clipPath>
  <clipPath id="p8e61d70c84">
   <rect height="221.76" width="147.84" x="295.08" y="34.56"/>
  </clipPath>
  <clipPath id="pde081630a8">
   <rect height="221.76" width="147.84" x="492.021176" y="34.56"/>
  </clipPath>
 </defs>
</svg>
