<?xml version="1.0" encoding="utf-8" standalone="no"?>
<!DOCTYPE svg PUBLIC "-//W3C//DTD SVG 1.1//EN"
  "http://www.w3.org/Graphics/SVG/1.1/DTD/svg11.dtd">
<!-- Created with matplotlib (https://matplotlib.org/) -->
<svg height="279.542125pt" version="1.1" viewBox="0 0 556.122353 279.542125" width="556.122353pt" xmlns="http://www.w3.org/2000/svg" xmlns:xlink="http://www.w3.org/1999/xlink">
 <defs>
  <style type="text/css">
*{stroke-linecap:butt;stroke-linejoin:round;}
  </style>
 </defs>
 <g id="figure_1">
  <g id="patch_1">
   <path d="M -0 279.542125 
L 556.122353 279.542125 
L 556.122353 0 
L -0 0 
z
" style="fill:#ffffff;"/>
  </g>
  <g id="axes_1">
   <g id="line2d_1">
    <path clip-path="url(#pf543bf9aa9)" d="M 7.2 133.198125 
L 155.04 133.198125 
" style="fill:none;stroke:#7f7f7f;stroke-dasharray:1.85,0.8;stroke-dashoffset:0;stroke-width:0.5;"/>
   </g>
   <g id="line2d_2">
    <path clip-path="url(#pf543bf9aa9)" d="M 24.159365 -1 
L 25.280337 51.102128 
L 26.39693 93.063133 
L 27.494271 126.299914 
L 28.572361 152.545023 
L 29.631199 173.177358 
L 30.670786 189.297714 
L 31.691121 201.78739 
L 32.672953 211.192166 
L 33.616281 218.195086 
L 34.521107 223.327939 
L 35.368177 226.936269 
L 36.176745 229.455825 
L 36.908306 231.063239 
L 37.582112 232.051688 
L 38.198163 232.592168 
L 38.775711 232.819476 
L 39.353259 232.806038 
L 39.969311 232.55593 
L 40.662369 232.018733 
L 41.470936 231.096759 
L 42.452768 229.620038 
L 43.665619 227.365197 
L 45.205747 223.996143 
L 47.304172 218.823888 
L 51.347009 208.124258 
L 55.56311 197.220773 
L 58.604864 189.966101 
L 61.377095 183.917952 
L 64.014565 178.685216 
L 66.59428 174.050526 
L 69.154743 169.900434 
L 71.715206 166.168536 
L 74.294921 162.797518 
L 76.913139 159.739347 
L 79.589112 156.954601 
L 82.32284 154.428171 
L 85.152826 152.11399 
L 85.711123 151.690507 
L 85.711308 280.542125 
M 85.768666 280.542125 
L 85.865135 133.198125 
L 155.055401 133.198125 
L 155.055401 133.198125 
" style="fill:none;stroke:#ff7f0e;stroke-linecap:square;stroke-width:1.5;"/>
   </g>
   <g id="line2d_3">
    <path clip-path="url(#pf543bf9aa9)" d="M 24.159365 -1 
L 25.280337 51.102128 
L 26.39693 93.063133 
L 27.494271 126.299914 
L 28.572361 152.545023 
L 29.631199 173.177358 
L 30.670786 189.297714 
L 31.691121 201.78739 
L 32.672953 211.192166 
L 33.616281 218.195086 
L 34.521107 223.327939 
L 35.368177 226.936269 
L 36.176745 229.455825 
L 36.908306 231.063239 
L 37.582112 232.051688 
L 38.198163 232.592168 
L 38.775711 232.819476 
L 39.353259 232.806038 
L 39.969311 232.55593 
L 40.662369 232.018733 
L 41.470936 231.096759 
L 42.452768 229.620038 
L 43.665619 227.365197 
L 45.205747 223.996143 
L 47.304172 218.823888 
L 51.347009 208.124258 
L 55.56311 197.220773 
L 58.604864 189.966101 
L 61.377095 183.917952 
L 64.014565 178.685216 
L 66.59428 174.050526 
L 69.154743 169.900434 
L 71.715206 166.168536 
L 74.294921 162.797518 
L 76.913139 159.739347 
L 79.589112 156.954601 
L 82.32284 154.428171 
L 85.152826 152.11399 
L 88.098322 149.992476 
L 91.178578 148.048259 
L 94.432099 146.259361 
L 97.878137 144.620104 
L 101.555193 143.118367 
L 105.521023 141.740536 
L 109.833383 140.479993 
L 114.569277 139.330349 
L 119.824965 138.287199 
L 125.715956 137.348732 
L 132.434766 136.50899 
L 140.193163 135.769325 
L 149.356926 135.126057 
L 155.055401 134.818972 
L 155.055401 134.818972 
" style="fill:none;stroke:#ff7f0e;stroke-dasharray:3.7,1.6;stroke-dashoffset:0;"/>
   </g>
   <g id="line2d_4">
    <path clip-path="url(#pf543bf9aa9)" d="M 12.392307 -1 
L 13.498355 46.663106 
L 14.614948 85.523434 
L 15.712289 116.251857 
L 16.790379 140.499183 
L 17.849217 159.569222 
L 18.888804 174.495466 
L 19.909139 186.099912 
L 20.910223 195.038415 
L 21.872803 201.719171 
L 22.79688 206.648062 
L 23.682454 210.217767 
L 24.510273 212.685807 
L 25.280337 214.335551 
L 26.011898 215.404611 
L 26.685704 216.015529 
L 27.321007 216.304016 
L 27.95631 216.347052 
L 28.610864 216.165836 
L 29.342425 215.727494 
L 30.208747 214.933713 
L 31.248334 213.656767 
L 32.51894 211.719253 
L 34.136075 208.82001 
L 36.388512 204.283575 
L 46.976895 182.354564 
L 49.864635 177.185269 
L 52.617615 172.703448 
L 55.312839 168.732 
L 58.008064 165.152669 
L 60.703289 161.938424 
L 63.437016 159.020178 
L 66.228499 156.362269 
L 69.096988 153.935196 
L 72.080987 151.70139 
L 75.180495 149.658274 
L 78.434016 147.77943 
L 81.880053 146.046928 
L 85.55711 144.449322 
L 85.730374 144.37978 
L 85.845884 133.198125 
L 155.055401 133.198125 
L 155.055401 133.198125 
" style="fill:none;stroke:#1f77b4;stroke-linecap:square;stroke-opacity:0.6;stroke-width:3;"/>
   </g>
   <g id="line2d_5">
    <path clip-path="url(#pf543bf9aa9)" d="M 12.392307 -1 
L 13.498355 46.663106 
L 14.614948 85.523434 
L 15.712289 116.251857 
L 16.790379 140.499183 
L 17.849217 159.569222 
L 18.888804 174.495466 
L 19.909139 186.099912 
L 20.910223 195.038415 
L 21.872803 201.719171 
L 22.79688 206.648062 
L 23.682454 210.217767 
L 24.510273 212.685807 
L 25.280337 214.335551 
L 26.011898 215.404611 
L 26.685704 216.015529 
L 27.321007 216.304016 
L 27.95631 216.347052 
L 28.610864 216.165836 
L 29.342425 215.727494 
L 30.208747 214.933713 
L 31.248334 213.656767 
L 32.51894 211.719253 
L 34.136075 208.82001 
L 36.388512 204.283575 
L 46.976895 182.354564 
L 49.864635 177.185269 
L 52.617615 172.703448 
L 55.312839 168.732 
L 58.008064 165.152669 
L 60.703289 161.938424 
L 63.437016 159.020178 
L 66.228499 156.362269 
L 69.096988 153.935196 
L 72.080987 151.70139 
L 75.180495 149.658274 
L 78.434016 147.77943 
L 81.880053 146.046928 
L 85.55711 144.449322 
L 89.503689 142.979858 
L 93.777545 141.629285 
L 98.436433 140.393705 
L 103.576611 139.264675 
L 109.294338 138.240758 
L 115.743625 137.316676 
L 123.11699 136.490551 
L 131.683954 135.760869 
L 141.829549 135.126733 
L 154.189079 134.585291 
L 155.055401 134.554497 
L 155.055401 134.554497 
" style="fill:none;stroke:#1f77b4;stroke-dasharray:3.7,1.6;stroke-dashoffset:0;"/>
   </g>
   <g id="text_1">
    <!-- Truncated Potential -->
    <defs>
     <path d="M -0.296875 72.90625 
L 61.375 72.90625 
L 61.375 64.59375 
L 35.5 64.59375 
L 35.5 0 
L 25.59375 0 
L 25.59375 64.59375 
L -0.296875 64.59375 
z
" id="DejaVuSans-84"/>
     <path d="M 41.109375 46.296875 
Q 39.59375 47.171875 37.8125 47.578125 
Q 36.03125 48 33.890625 48 
Q 26.265625 48 22.1875 43.046875 
Q 18.109375 38.09375 18.109375 28.8125 
L 18.109375 0 
L 9.078125 0 
L 9.078125 54.6875 
L 18.109375 54.6875 
L 18.109375 46.1875 
Q 20.953125 51.171875 25.484375 53.578125 
Q 30.03125 56 36.53125 56 
Q 37.453125 56 38.578125 55.875 
Q 39.703125 55.765625 41.0625 55.515625 
z
" id="DejaVuSans-114"/>
     <path d="M 8.5 21.578125 
L 8.5 54.6875 
L 17.484375 54.6875 
L 17.484375 21.921875 
Q 17.484375 14.15625 20.5 10.265625 
Q 23.53125 6.390625 29.59375 6.390625 
Q 36.859375 6.390625 41.078125 11.03125 
Q 45.3125 15.671875 45.3125 23.6875 
L 45.3125 54.6875 
L 54.296875 54.6875 
L 54.296875 0 
L 45.3125 0 
L 45.3125 8.40625 
Q 42.046875 3.421875 37.71875 1 
Q 33.40625 -1.421875 27.6875 -1.421875 
Q 18.265625 -1.421875 13.375 4.4375 
Q 8.5 10.296875 8.5 21.578125 
z
M 31.109375 56 
z
" id="DejaVuSans-117"/>
     <path d="M 54.890625 33.015625 
L 54.890625 0 
L 45.90625 0 
L 45.90625 32.71875 
Q 45.90625 40.484375 42.875 44.328125 
Q 39.84375 48.1875 33.796875 48.1875 
Q 26.515625 48.1875 22.3125 43.546875 
Q 18.109375 38.921875 18.109375 30.90625 
L 18.109375 0 
L 9.078125 0 
L 9.078125 54.6875 
L 18.109375 54.6875 
L 18.109375 46.1875 
Q 21.34375 51.125 25.703125 53.5625 
Q 30.078125 56 35.796875 56 
Q 45.21875 56 50.046875 50.171875 
Q 54.890625 44.34375 54.890625 33.015625 
z
" id="DejaVuSans-110"/>
     <path d="M 48.78125 52.59375 
L 48.78125 44.1875 
Q 44.96875 46.296875 41.140625 47.34375 
Q 37.3125 48.390625 33.40625 48.390625 
Q 24.65625 48.390625 19.8125 42.84375 
Q 14.984375 37.3125 14.984375 27.296875 
Q 14.984375 17.28125 19.8125 11.734375 
Q 24.65625 6.203125 33.40625 6.203125 
Q 37.3125 6.203125 41.140625 7.25 
Q 44.96875 8.296875 48.78125 10.40625 
L 48.78125 2.09375 
Q 45.015625 0.34375 40.984375 -0.53125 
Q 36.96875 -1.421875 32.421875 -1.421875 
Q 20.0625 -1.421875 12.78125 6.34375 
Q 5.515625 14.109375 5.515625 27.296875 
Q 5.515625 40.671875 12.859375 48.328125 
Q 20.21875 56 33.015625 56 
Q 37.15625 56 41.109375 55.140625 
Q 45.0625 54.296875 48.78125 52.59375 
z
" id="DejaVuSans-99"/>
     <path d="M 34.28125 27.484375 
Q 23.390625 27.484375 19.1875 25 
Q 14.984375 22.515625 14.984375 16.5 
Q 14.984375 11.71875 18.140625 8.90625 
Q 21.296875 6.109375 26.703125 6.109375 
Q 34.1875 6.109375 38.703125 11.40625 
Q 43.21875 16.703125 43.21875 25.484375 
L 43.21875 27.484375 
z
M 52.203125 31.203125 
L 52.203125 0 
L 43.21875 0 
L 43.21875 8.296875 
Q 40.140625 3.328125 35.546875 0.953125 
Q 30.953125 -1.421875 24.3125 -1.421875 
Q 15.921875 -1.421875 10.953125 3.296875 
Q 6 8.015625 6 15.921875 
Q 6 25.140625 12.171875 29.828125 
Q 18.359375 34.515625 30.609375 34.515625 
L 43.21875 34.515625 
L 43.21875 35.40625 
Q 43.21875 41.609375 39.140625 45 
Q 35.0625 48.390625 27.6875 48.390625 
Q 23 48.390625 18.546875 47.265625 
Q 14.109375 46.140625 10.015625 43.890625 
L 10.015625 52.203125 
Q 14.9375 54.109375 19.578125 55.046875 
Q 24.21875 56 28.609375 56 
Q 40.484375 56 46.34375 49.84375 
Q 52.203125 43.703125 52.203125 31.203125 
z
" id="DejaVuSans-97"/>
     <path d="M 18.3125 70.21875 
L 18.3125 54.6875 
L 36.8125 54.6875 
L 36.8125 47.703125 
L 18.3125 47.703125 
L 18.3125 18.015625 
Q 18.3125 11.328125 20.140625 9.421875 
Q 21.96875 7.515625 27.59375 7.515625 
L 36.8125 7.515625 
L 36.8125 0 
L 27.59375 0 
Q 17.1875 0 13.234375 3.875 
Q 9.28125 7.765625 9.28125 18.015625 
L 9.28125 47.703125 
L 2.6875 47.703125 
L 2.6875 54.6875 
L 9.28125 54.6875 
L 9.28125 70.21875 
z
" id="DejaVuSans-116"/>
     <path d="M 56.203125 29.59375 
L 56.203125 25.203125 
L 14.890625 25.203125 
Q 15.484375 15.921875 20.484375 11.0625 
Q 25.484375 6.203125 34.421875 6.203125 
Q 39.59375 6.203125 44.453125 7.46875 
Q 49.3125 8.734375 54.109375 11.28125 
L 54.109375 2.78125 
Q 49.265625 0.734375 44.1875 -0.34375 
Q 39.109375 -1.421875 33.890625 -1.421875 
Q 20.796875 -1.421875 13.15625 6.1875 
Q 5.515625 13.8125 5.515625 26.8125 
Q 5.515625 40.234375 12.765625 48.109375 
Q 20.015625 56 32.328125 56 
Q 43.359375 56 49.78125 48.890625 
Q 56.203125 41.796875 56.203125 29.59375 
z
M 47.21875 32.234375 
Q 47.125 39.59375 43.09375 43.984375 
Q 39.0625 48.390625 32.421875 48.390625 
Q 24.90625 48.390625 20.390625 44.140625 
Q 15.875 39.890625 15.1875 32.171875 
z
" id="DejaVuSans-101"/>
     <path d="M 45.40625 46.390625 
L 45.40625 75.984375 
L 54.390625 75.984375 
L 54.390625 0 
L 45.40625 0 
L 45.40625 8.203125 
Q 42.578125 3.328125 38.25 0.953125 
Q 33.9375 -1.421875 27.875 -1.421875 
Q 17.96875 -1.421875 11.734375 6.484375 
Q 5.515625 14.40625 5.515625 27.296875 
Q 5.515625 40.1875 11.734375 48.09375 
Q 17.96875 56 27.875 56 
Q 33.9375 56 38.25 53.625 
Q 42.578125 51.265625 45.40625 46.390625 
z
M 14.796875 27.296875 
Q 14.796875 17.390625 18.875 11.75 
Q 22.953125 6.109375 30.078125 6.109375 
Q 37.203125 6.109375 41.296875 11.75 
Q 45.40625 17.390625 45.40625 27.296875 
Q 45.40625 37.203125 41.296875 42.84375 
Q 37.203125 48.484375 30.078125 48.484375 
Q 22.953125 48.484375 18.875 42.84375 
Q 14.796875 37.203125 14.796875 27.296875 
z
" id="DejaVuSans-100"/>
     <path id="DejaVuSans-32"/>
     <path d="M 19.671875 64.796875 
L 19.671875 37.40625 
L 32.078125 37.40625 
Q 38.96875 37.40625 42.71875 40.96875 
Q 46.484375 44.53125 46.484375 51.125 
Q 46.484375 57.671875 42.71875 61.234375 
Q 38.96875 64.796875 32.078125 64.796875 
z
M 9.8125 72.90625 
L 32.078125 72.90625 
Q 44.34375 72.90625 50.609375 67.359375 
Q 56.890625 61.8125 56.890625 51.125 
Q 56.890625 40.328125 50.609375 34.8125 
Q 44.34375 29.296875 32.078125 29.296875 
L 19.671875 29.296875 
L 19.671875 0 
L 9.8125 0 
z
" id="DejaVuSans-80"/>
     <path d="M 30.609375 48.390625 
Q 23.390625 48.390625 19.1875 42.75 
Q 14.984375 37.109375 14.984375 27.296875 
Q 14.984375 17.484375 19.15625 11.84375 
Q 23.34375 6.203125 30.609375 6.203125 
Q 37.796875 6.203125 41.984375 11.859375 
Q 46.1875 17.53125 46.1875 27.296875 
Q 46.1875 37.015625 41.984375 42.703125 
Q 37.796875 48.390625 30.609375 48.390625 
z
M 30.609375 56 
Q 42.328125 56 49.015625 48.375 
Q 55.71875 40.765625 55.71875 27.296875 
Q 55.71875 13.875 49.015625 6.21875 
Q 42.328125 -1.421875 30.609375 -1.421875 
Q 18.84375 -1.421875 12.171875 6.21875 
Q 5.515625 13.875 5.515625 27.296875 
Q 5.515625 40.765625 12.171875 48.375 
Q 18.84375 56 30.609375 56 
z
" id="DejaVuSans-111"/>
     <path d="M 9.421875 54.6875 
L 18.40625 54.6875 
L 18.40625 0 
L 9.421875 0 
z
M 9.421875 75.984375 
L 18.40625 75.984375 
L 18.40625 64.59375 
L 9.421875 64.59375 
z
" id="DejaVuSans-105"/>
     <path d="M 9.421875 75.984375 
L 18.40625 75.984375 
L 18.40625 0 
L 9.421875 0 
z
" id="DejaVuSans-108"/>
    </defs>
    <g transform="translate(22.165313 16.318125)scale(0.12 -0.12)">
     <use xlink:href="#DejaVuSans-84"/>
     <use x="60.865234" xlink:href="#DejaVuSans-114"/>
     <use x="101.978516" xlink:href="#DejaVuSans-117"/>
     <use x="165.357422" xlink:href="#DejaVuSans-110"/>
     <use x="228.736328" xlink:href="#DejaVuSans-99"/>
     <use x="283.716797" xlink:href="#DejaVuSans-97"/>
     <use x="344.996094" xlink:href="#DejaVuSans-116"/>
     <use x="384.205078" xlink:href="#DejaVuSans-101"/>
     <use x="445.728516" xlink:href="#DejaVuSans-100"/>
     <use x="509.205078" xlink:href="#DejaVuSans-32"/>
     <use x="540.992188" xlink:href="#DejaVuSans-80"/>
     <use x="601.248047" xlink:href="#DejaVuSans-111"/>
     <use x="662.429688" xlink:href="#DejaVuSans-116"/>
     <use x="701.638672" xlink:href="#DejaVuSans-101"/>
     <use x="763.162109" xlink:href="#DejaVuSans-110"/>
     <use x="826.541016" xlink:href="#DejaVuSans-116"/>
     <use x="865.75" xlink:href="#DejaVuSans-105"/>
     <use x="893.533203" xlink:href="#DejaVuSans-97"/>
     <use x="954.8125" xlink:href="#DejaVuSans-108"/>
    </g>
   </g>
   <g id="legend_1"/>
  </g>
  <g id="axes_2">
   <g id="line2d_6">
    <path clip-path="url(#p9e15799440)" d="M 204.141176 133.198125 
L 351.981176 133.198125 
" style="fill:none;stroke:#7f7f7f;stroke-dasharray:1.85,0.8;stroke-dashoffset:0;stroke-width:0.5;"/>
   </g>
   <g id="line2d_7">
    <path clip-path="url(#p9e15799440)" d="M 221.100541 -1 
L 222.221513 51.102128 
L 223.338106 93.063133 
L 224.435448 126.299914 
L 225.513538 152.545023 
L 226.572376 173.177358 
L 227.611962 189.297714 
L 228.632297 201.78739 
L 229.614129 211.192166 
L 230.557458 218.195086 
L 231.462283 223.327939 
L 232.309354 226.936269 
L 233.117921 229.455825 
L 233.849482 231.063239 
L 234.523288 232.051688 
L 235.13934 232.592168 
L 235.716888 232.819476 
L 236.294436 232.806038 
L 236.910487 232.55593 
L 237.603545 232.018733 
L 238.412112 231.096759 
L 239.393944 229.620038 
L 240.606795 227.365197 
L 242.146924 223.996143 
L 244.245348 218.823888 
L 248.288185 208.124258 
L 252.504287 197.220773 
L 255.54604 189.966101 
L 258.318271 183.917952 
L 260.955741 178.685216 
L 263.535456 174.050526 
L 266.095919 169.900434 
L 268.656383 166.168536 
L 271.236098 162.797518 
L 273.854316 159.739347 
L 276.530289 156.954601 
L 279.264017 154.428171 
L 282.094003 152.11399 
L 282.671551 151.676088 
L 282.806312 133.198125 
L 351.996578 133.198125 
L 351.996578 133.198125 
" style="fill:none;stroke:#ff7f0e;stroke-linecap:square;stroke-width:1.5;"/>
   </g>
   <g id="line2d_8">
    <path clip-path="url(#p9e15799440)" d="M 221.100541 -1 
L 222.221513 51.102128 
L 223.338106 93.063133 
L 224.435448 126.299914 
L 225.513538 152.545023 
L 226.572376 173.177358 
L 227.611962 189.297714 
L 228.632297 201.78739 
L 229.614129 211.192166 
L 230.557458 218.195086 
L 231.462283 223.327939 
L 232.309354 226.936269 
L 233.117921 229.455825 
L 233.849482 231.063239 
L 234.523288 232.051688 
L 235.13934 232.592168 
L 235.716888 232.819476 
L 236.294436 232.806038 
L 236.910487 232.55593 
L 237.603545 232.018733 
L 238.412112 231.096759 
L 239.393944 229.620038 
L 240.606795 227.365197 
L 242.146924 223.996143 
L 244.245348 218.823888 
L 248.288185 208.124258 
L 252.504287 197.220773 
L 255.54604 189.966101 
L 258.318271 183.917952 
L 260.955741 178.685216 
L 263.535456 174.050526 
L 266.095919 169.900434 
L 268.656383 166.168536 
L 271.236098 162.797518 
L 273.854316 159.739347 
L 276.530289 156.954601 
L 279.264017 154.428171 
L 282.094003 152.11399 
L 285.039498 149.992476 
L 288.119755 148.048259 
L 291.373276 146.259361 
L 294.819313 144.620104 
L 298.496369 143.118367 
L 302.4622 141.740536 
L 306.774559 140.479993 
L 311.510454 139.330349 
L 316.766142 138.287199 
L 322.657133 137.348732 
L 329.375943 136.50899 
L 337.134339 135.769325 
L 346.298103 135.126057 
L 351.996578 134.818972 
L 351.996578 134.818972 
" style="fill:none;stroke:#ff7f0e;stroke-dasharray:3.7,1.6;stroke-dashoffset:0;"/>
   </g>
   <g id="line2d_9">
    <path clip-path="url(#p9e15799440)" d="M 209.572665 -1 
L 210.670551 44.233239 
L 211.787144 81.385465 
L 212.884485 110.731498 
L 213.962575 133.856587 
L 215.021413 152.013016 
L 216.061 166.193589 
L 217.081335 177.18804 
L 218.063167 185.483695 
L 219.025747 191.79422 
L 219.930572 196.339728 
L 220.796894 199.625361 
L 221.624713 201.933977 
L 222.394778 203.456064 
L 223.107087 204.400102 
L 223.761642 204.92486 
L 224.396944 205.158653 
L 225.032247 205.153526 
L 225.706054 204.919123 
L 226.476118 204.401187 
L 227.380943 203.504084 
L 228.459033 202.102886 
L 229.787394 199.992288 
L 231.520038 196.790266 
L 234.022747 191.646755 
L 242.512704 173.864115 
L 245.515954 168.261552 
L 248.326689 163.481408 
L 251.041165 159.29526 
L 253.736389 155.542502 
L 256.431614 152.167591 
L 259.14609 149.120911 
L 261.918321 146.341694 
L 264.748307 143.816653 
L 267.674551 141.501762 
L 270.716304 139.377991 
L 273.912071 137.41905 
L 277.281101 135.61695 
L 280.842648 133.965144 
L 282.90257 133.198125 
L 351.996578 133.198125 
L 351.996578 133.198125 
" style="fill:none;stroke:#1f77b4;stroke-linecap:square;stroke-opacity:0.6;stroke-width:3;"/>
   </g>
   <g id="line2d_10">
    <path clip-path="url(#p9e15799440)" d="M 209.333484 -1 
L 210.439531 46.663106 
L 211.556124 85.523434 
L 212.653466 116.251857 
L 213.731556 140.499183 
L 214.790394 159.569222 
L 215.829981 174.495466 
L 216.850316 186.099912 
L 217.851399 195.038415 
L 218.813979 201.719171 
L 219.738056 206.648062 
L 220.62363 210.217767 
L 221.451449 212.685807 
L 222.221513 214.335551 
L 222.953074 215.404611 
L 223.62688 216.015529 
L 224.262183 216.304016 
L 224.897486 216.347052 
L 225.552041 216.165836 
L 226.283602 215.727494 
L 227.149924 214.933713 
L 228.18951 213.656767 
L 229.460116 211.719253 
L 231.077251 208.82001 
L 233.329689 204.283575 
L 243.918071 182.354564 
L 246.805812 177.185269 
L 249.558791 172.703448 
L 252.254016 168.732 
L 254.94924 165.152669 
L 257.644465 161.938424 
L 260.378193 159.020178 
L 263.169676 156.362269 
L 266.038165 153.935196 
L 269.022163 151.70139 
L 272.121672 149.658274 
L 275.375193 147.77943 
L 278.82123 146.046928 
L 282.498286 144.449322 
L 286.444865 142.979858 
L 290.718721 141.629285 
L 295.37761 140.393705 
L 300.517788 139.264675 
L 306.235514 138.240758 
L 312.684802 137.316676 
L 320.058166 136.490551 
L 328.62513 135.760869 
L 338.770726 135.126733 
L 351.130256 134.585291 
L 351.996578 134.554497 
L 351.996578 134.554497 
" style="fill:none;stroke:#1f77b4;stroke-dasharray:3.7,1.6;stroke-dashoffset:0;"/>
   </g>
   <g id="text_2">
    <!-- Shifted Potential -->
    <defs>
     <path d="M 53.515625 70.515625 
L 53.515625 60.890625 
Q 47.90625 63.578125 42.921875 64.890625 
Q 37.9375 66.21875 33.296875 66.21875 
Q 25.25 66.21875 20.875 63.09375 
Q 16.5 59.96875 16.5 54.203125 
Q 16.5 49.359375 19.40625 46.890625 
Q 22.3125 44.4375 30.421875 42.921875 
L 36.375 41.703125 
Q 47.40625 39.59375 52.65625 34.296875 
Q 57.90625 29 57.90625 20.125 
Q 57.90625 9.515625 50.796875 4.046875 
Q 43.703125 -1.421875 29.984375 -1.421875 
Q 24.8125 -1.421875 18.96875 -0.25 
Q 13.140625 0.921875 6.890625 3.21875 
L 6.890625 13.375 
Q 12.890625 10.015625 18.65625 8.296875 
Q 24.421875 6.59375 29.984375 6.59375 
Q 38.421875 6.59375 43.015625 9.90625 
Q 47.609375 13.234375 47.609375 19.390625 
Q 47.609375 24.75 44.3125 27.78125 
Q 41.015625 30.8125 33.5 32.328125 
L 27.484375 33.5 
Q 16.453125 35.6875 11.515625 40.375 
Q 6.59375 45.0625 6.59375 53.421875 
Q 6.59375 63.09375 13.40625 68.65625 
Q 20.21875 74.21875 32.171875 74.21875 
Q 37.3125 74.21875 42.625 73.28125 
Q 47.953125 72.359375 53.515625 70.515625 
z
" id="DejaVuSans-83"/>
     <path d="M 54.890625 33.015625 
L 54.890625 0 
L 45.90625 0 
L 45.90625 32.71875 
Q 45.90625 40.484375 42.875 44.328125 
Q 39.84375 48.1875 33.796875 48.1875 
Q 26.515625 48.1875 22.3125 43.546875 
Q 18.109375 38.921875 18.109375 30.90625 
L 18.109375 0 
L 9.078125 0 
L 9.078125 75.984375 
L 18.109375 75.984375 
L 18.109375 46.1875 
Q 21.34375 51.125 25.703125 53.5625 
Q 30.078125 56 35.796875 56 
Q 45.21875 56 50.046875 50.171875 
Q 54.890625 44.34375 54.890625 33.015625 
z
" id="DejaVuSans-104"/>
     <path d="M 37.109375 75.984375 
L 37.109375 68.5 
L 28.515625 68.5 
Q 23.6875 68.5 21.796875 66.546875 
Q 19.921875 64.59375 19.921875 59.515625 
L 19.921875 54.6875 
L 34.71875 54.6875 
L 34.71875 47.703125 
L 19.921875 47.703125 
L 19.921875 0 
L 10.890625 0 
L 10.890625 47.703125 
L 2.296875 47.703125 
L 2.296875 54.6875 
L 10.890625 54.6875 
L 10.890625 58.5 
Q 10.890625 67.625 15.140625 71.796875 
Q 19.390625 75.984375 28.609375 75.984375 
z
" id="DejaVuSans-102"/>
    </defs>
    <g transform="translate(228.415864 16.318125)scale(0.12 -0.12)">
     <use xlink:href="#DejaVuSans-83"/>
     <use x="63.476562" xlink:href="#DejaVuSans-104"/>
     <use x="126.855469" xlink:href="#DejaVuSans-105"/>
     <use x="154.638672" xlink:href="#DejaVuSans-102"/>
     <use x="189.828125" xlink:href="#DejaVuSans-116"/>
     <use x="229.037109" xlink:href="#DejaVuSans-101"/>
     <use x="290.560547" xlink:href="#DejaVuSans-100"/>
     <use x="354.037109" xlink:href="#DejaVuSans-32"/>
     <use x="385.824219" xlink:href="#DejaVuSans-80"/>
     <use x="446.080078" xlink:href="#DejaVuSans-111"/>
     <use x="507.261719" xlink:href="#DejaVuSans-116"/>
     <use x="546.470703" xlink:href="#DejaVuSans-101"/>
     <use x="607.994141" xlink:href="#DejaVuSans-110"/>
     <use x="671.373047" xlink:href="#DejaVuSans-116"/>
     <use x="710.582031" xlink:href="#DejaVuSans-105"/>
     <use x="738.365234" xlink:href="#DejaVuSans-97"/>
     <use x="799.644531" xlink:href="#DejaVuSans-108"/>
    </g>
   </g>
   <g id="legend_2">
    <g id="line2d_11">
     <path d="M 164.564301 248.084313 
L 184.564301 248.084313 
" style="fill:none;stroke:#ff7f0e;stroke-linecap:square;stroke-width:1.5;"/>
    </g>
    <g id="line2d_12"/>
    <g id="text_3">
     <!-- cutoff force -->
     <g transform="translate(192.564301 251.584313)scale(0.1 -0.1)">
      <use xlink:href="#DejaVuSans-99"/>
      <use x="54.980469" xlink:href="#DejaVuSans-117"/>
      <use x="118.359375" xlink:href="#DejaVuSans-116"/>
      <use x="157.568359" xlink:href="#DejaVuSans-111"/>
      <use x="218.75" xlink:href="#DejaVuSans-102"/>
      <use x="253.955078" xlink:href="#DejaVuSans-102"/>
      <use x="289.160156" xlink:href="#DejaVuSans-32"/>
      <use x="320.947266" xlink:href="#DejaVuSans-102"/>
      <use x="356.152344" xlink:href="#DejaVuSans-111"/>
      <use x="417.333984" xlink:href="#DejaVuSans-114"/>
      <use x="458.416016" xlink:href="#DejaVuSans-99"/>
      <use x="513.396484" xlink:href="#DejaVuSans-101"/>
     </g>
    </g>
    <g id="line2d_13">
     <path d="M 164.564301 262.762437 
L 184.564301 262.762437 
" style="fill:none;stroke:#ff7f0e;stroke-dasharray:3.7,1.6;stroke-dashoffset:0;"/>
    </g>
    <g id="line2d_14"/>
    <g id="text_4">
     <!-- original force -->
     <defs>
      <path d="M 45.40625 27.984375 
Q 45.40625 37.75 41.375 43.109375 
Q 37.359375 48.484375 30.078125 48.484375 
Q 22.859375 48.484375 18.828125 43.109375 
Q 14.796875 37.75 14.796875 27.984375 
Q 14.796875 18.265625 18.828125 12.890625 
Q 22.859375 7.515625 30.078125 7.515625 
Q 37.359375 7.515625 41.375 12.890625 
Q 45.40625 18.265625 45.40625 27.984375 
z
M 54.390625 6.78125 
Q 54.390625 -7.171875 48.1875 -13.984375 
Q 42 -20.796875 29.203125 -20.796875 
Q 24.46875 -20.796875 20.265625 -20.09375 
Q 16.0625 -19.390625 12.109375 -17.921875 
L 12.109375 -9.1875 
Q 16.0625 -11.328125 19.921875 -12.34375 
Q 23.78125 -13.375 27.78125 -13.375 
Q 36.625 -13.375 41.015625 -8.765625 
Q 45.40625 -4.15625 45.40625 5.171875 
L 45.40625 9.625 
Q 42.625 4.78125 38.28125 2.390625 
Q 33.9375 0 27.875 0 
Q 17.828125 0 11.671875 7.65625 
Q 5.515625 15.328125 5.515625 27.984375 
Q 5.515625 40.671875 11.671875 48.328125 
Q 17.828125 56 27.875 56 
Q 33.9375 56 38.28125 53.609375 
Q 42.625 51.21875 45.40625 46.390625 
L 45.40625 54.6875 
L 54.390625 54.6875 
z
" id="DejaVuSans-103"/>
     </defs>
     <g transform="translate(192.564301 266.262437)scale(0.1 -0.1)">
      <use xlink:href="#DejaVuSans-111"/>
      <use x="61.181641" xlink:href="#DejaVuSans-114"/>
      <use x="102.294922" xlink:href="#DejaVuSans-105"/>
      <use x="130.078125" xlink:href="#DejaVuSans-103"/>
      <use x="193.554688" xlink:href="#DejaVuSans-105"/>
      <use x="221.337891" xlink:href="#DejaVuSans-110"/>
      <use x="284.716797" xlink:href="#DejaVuSans-97"/>
      <use x="345.996094" xlink:href="#DejaVuSans-108"/>
      <use x="373.779297" xlink:href="#DejaVuSans-32"/>
      <use x="405.566406" xlink:href="#DejaVuSans-102"/>
      <use x="440.771484" xlink:href="#DejaVuSans-111"/>
      <use x="501.953125" xlink:href="#DejaVuSans-114"/>
      <use x="543.035156" xlink:href="#DejaVuSans-99"/>
      <use x="598.015625" xlink:href="#DejaVuSans-101"/>
     </g>
    </g>
    <g id="line2d_15">
     <path d="M 278.518989 248.084313 
L 298.518989 248.084313 
" style="fill:none;stroke:#1f77b4;stroke-linecap:square;stroke-opacity:0.6;stroke-width:3;"/>
    </g>
    <g id="line2d_16"/>
    <g id="text_5">
     <!-- cutoff potential -->
     <defs>
      <path d="M 18.109375 8.203125 
L 18.109375 -20.796875 
L 9.078125 -20.796875 
L 9.078125 54.6875 
L 18.109375 54.6875 
L 18.109375 46.390625 
Q 20.953125 51.265625 25.265625 53.625 
Q 29.59375 56 35.59375 56 
Q 45.5625 56 51.78125 48.09375 
Q 58.015625 40.1875 58.015625 27.296875 
Q 58.015625 14.40625 51.78125 6.484375 
Q 45.5625 -1.421875 35.59375 -1.421875 
Q 29.59375 -1.421875 25.265625 0.953125 
Q 20.953125 3.328125 18.109375 8.203125 
z
M 48.6875 27.296875 
Q 48.6875 37.203125 44.609375 42.84375 
Q 40.53125 48.484375 33.40625 48.484375 
Q 26.265625 48.484375 22.1875 42.84375 
Q 18.109375 37.203125 18.109375 27.296875 
Q 18.109375 17.390625 22.1875 11.75 
Q 26.265625 6.109375 33.40625 6.109375 
Q 40.53125 6.109375 44.609375 11.75 
Q 48.6875 17.390625 48.6875 27.296875 
z
" id="DejaVuSans-112"/>
     </defs>
     <g transform="translate(306.518989 251.584313)scale(0.1 -0.1)">
      <use xlink:href="#DejaVuSans-99"/>
      <use x="54.980469" xlink:href="#DejaVuSans-117"/>
      <use x="118.359375" xlink:href="#DejaVuSans-116"/>
      <use x="157.568359" xlink:href="#DejaVuSans-111"/>
      <use x="218.75" xlink:href="#DejaVuSans-102"/>
      <use x="253.955078" xlink:href="#DejaVuSans-102"/>
      <use x="289.160156" xlink:href="#DejaVuSans-32"/>
      <use x="320.947266" xlink:href="#DejaVuSans-112"/>
      <use x="384.423828" xlink:href="#DejaVuSans-111"/>
      <use x="445.605469" xlink:href="#DejaVuSans-116"/>
      <use x="484.814453" xlink:href="#DejaVuSans-101"/>
      <use x="546.337891" xlink:href="#DejaVuSans-110"/>
      <use x="609.716797" xlink:href="#DejaVuSans-116"/>
      <use x="648.925781" xlink:href="#DejaVuSans-105"/>
      <use x="676.708984" xlink:href="#DejaVuSans-97"/>
      <use x="737.988281" xlink:href="#DejaVuSans-108"/>
     </g>
    </g>
    <g id="line2d_17">
     <path d="M 278.518989 262.762437 
L 298.518989 262.762437 
" style="fill:none;stroke:#1f77b4;stroke-dasharray:3.7,1.6;stroke-dashoffset:0;"/>
    </g>
    <g id="line2d_18"/>
    <g id="text_6">
     <!-- original potential -->
     <g transform="translate(306.518989 266.262437)scale(0.1 -0.1)">
      <use xlink:href="#DejaVuSans-111"/>
      <use x="61.181641" xlink:href="#DejaVuSans-114"/>
      <use x="102.294922" xlink:href="#DejaVuSans-105"/>
      <use x="130.078125" xlink:href="#DejaVuSans-103"/>
      <use x="193.554688" xlink:href="#DejaVuSans-105"/>
      <use x="221.337891" xlink:href="#DejaVuSans-110"/>
      <use x="284.716797" xlink:href="#DejaVuSans-97"/>
      <use x="345.996094" xlink:href="#DejaVuSans-108"/>
      <use x="373.779297" xlink:href="#DejaVuSans-32"/>
      <use x="405.566406" xlink:href="#DejaVuSans-112"/>
      <use x="469.042969" xlink:href="#DejaVuSans-111"/>
      <use x="530.224609" xlink:href="#DejaVuSans-116"/>
      <use x="569.433594" xlink:href="#DejaVuSans-101"/>
      <use x="630.957031" xlink:href="#DejaVuSans-110"/>
      <use x="694.335938" xlink:href="#DejaVuSans-116"/>
      <use x="733.544922" xlink:href="#DejaVuSans-105"/>
      <use x="761.328125" xlink:href="#DejaVuSans-97"/>
      <use x="822.607422" xlink:href="#DejaVuSans-108"/>
     </g>
    </g>
   </g>
  </g>
  <g id="axes_3">
   <g id="line2d_19">
    <path clip-path="url(#p956a1dbdb7)" d="M 401.082353 133.198125 
L 548.922353 133.198125 
" style="fill:none;stroke:#7f7f7f;stroke-dasharray:1.85,0.8;stroke-dashoffset:0;stroke-width:0.5;"/>
   </g>
   <g id="line2d_20">
    <path clip-path="url(#p956a1dbdb7)" d="M 418.41256 -1 
L 419.52847 47.386406 
L 420.645063 86.487021 
L 421.742405 117.394771 
L 422.820494 141.738737 
L 423.879333 160.815679 
L 424.918919 175.66094 
L 425.920003 186.913001 
L 426.882583 195.366839 
L 427.80666 201.6403 
L 428.692234 206.215335 
L 429.520053 209.406188 
L 430.309369 211.609389 
L 431.021678 212.988555 
L 431.676232 213.810867 
L 432.273032 214.232859 
L 432.85058 214.376838 
L 433.428128 214.289119 
L 434.063431 213.955338 
L 434.794992 213.301519 
L 435.661315 212.208637 
L 436.720153 210.48676 
L 438.029262 207.900866 
L 439.723403 204.022112 
L 442.149105 197.856328 
L 450.696817 175.698744 
L 453.60381 168.999395 
L 456.318286 163.292602 
L 458.936504 158.297502 
L 461.516219 153.849498 
L 464.076682 149.873093 
L 466.637146 146.301515 
L 469.236112 143.055176 
L 471.873582 140.11449 
L 474.568807 137.440295 
L 477.341038 135.001036 
L 479.689734 133.198125 
L 548.937754 133.198125 
L 548.937754 133.198125 
" style="fill:none;stroke:#ff7f0e;stroke-linecap:square;stroke-width:1.5;"/>
   </g>
   <g id="line2d_21">
    <path clip-path="url(#p956a1dbdb7)" d="M 418.041718 -1 
L 419.16269 51.102128 
L 420.279283 93.063133 
L 421.376624 126.299914 
L 422.454714 152.545023 
L 423.513552 173.177358 
L 424.553139 189.297714 
L 425.573474 201.78739 
L 426.555306 211.192166 
L 427.498634 218.195086 
L 428.40346 223.327939 
L 429.25053 226.936269 
L 430.059098 229.455825 
L 430.790659 231.063239 
L 431.464465 232.051688 
L 432.080516 232.592168 
L 432.658064 232.819476 
L 433.235612 232.806038 
L 433.851664 232.55593 
L 434.544721 232.018733 
L 435.353289 231.096759 
L 436.335121 229.620038 
L 437.547972 227.365197 
L 439.0881 223.996143 
L 441.186525 218.823888 
L 445.229362 208.124258 
L 449.445463 197.220773 
L 452.487217 189.966101 
L 455.259448 183.917952 
L 457.896917 178.685216 
L 460.476632 174.050526 
L 463.037096 169.900434 
L 465.597559 166.168536 
L 468.177274 162.797518 
L 470.795492 159.739347 
L 473.471465 156.954601 
L 476.205193 154.428171 
L 479.035179 152.11399 
L 481.980674 149.992476 
L 485.060931 148.048259 
L 488.314452 146.259361 
L 491.760489 144.620104 
L 495.437546 143.118367 
L 499.403376 141.740536 
L 503.715736 140.479993 
L 508.45163 139.330349 
L 513.707318 138.287199 
L 519.598309 137.348732 
L 526.317119 136.50899 
L 534.075516 135.769325 
L 543.239279 135.126057 
L 548.937754 134.818972 
L 548.937754 134.818972 
" style="fill:none;stroke:#ff7f0e;stroke-dasharray:3.7,1.6;stroke-dashoffset:0;"/>
   </g>
   <g id="line2d_22">
    <path clip-path="url(#p956a1dbdb7)" d="M 407.189477 -1 
L 408.304785 39.731824 
L 409.421378 72.602289 
L 410.518719 98.560317 
L 411.596809 119.010067 
L 412.655647 135.061384 
L 413.695234 147.594534 
L 414.715569 157.309952 
L 415.697401 164.640424 
L 416.659981 170.218263 
L 417.584058 174.313126 
L 418.45038 177.205128 
L 419.278199 179.240834 
L 420.048263 180.587822 
L 420.779824 181.447047 
L 421.472882 181.933569 
L 422.146688 182.140872 
L 422.839746 182.116458 
L 423.590559 181.855274 
L 424.437629 181.311813 
L 425.438713 180.389118 
L 426.651564 178.950836 
L 428.191692 176.756001 
L 430.309369 173.317429 
L 435.37254 164.503159 
L 438.818578 158.800276 
L 441.629312 154.568355 
L 444.228278 151.047374 
L 446.730987 148.024464 
L 449.175941 145.413414 
L 451.620894 143.125269 
L 454.065848 141.139984 
L 456.530054 139.422786 
L 459.052014 137.93565 
L 461.631729 136.671563 
L 464.307702 135.608035 
L 467.099184 134.739169 
L 470.025428 134.062536 
L 473.124936 133.576074 
L 476.416961 133.285887 
L 479.978508 133.198125 
L 548.937754 133.198125 
L 548.937754 133.198125 
" style="fill:none;stroke:#1f77b4;stroke-linecap:square;stroke-opacity:0.6;stroke-width:3;"/>
   </g>
   <g id="line2d_23">
    <path clip-path="url(#p956a1dbdb7)" d="M 406.27466 -1 
L 407.380708 46.663106 
L 408.497301 85.523434 
L 409.594642 116.251857 
L 410.672732 140.499183 
L 411.73157 159.569222 
L 412.771157 174.495466 
L 413.791492 186.099912 
L 414.792575 195.038415 
L 415.755156 201.719171 
L 416.679233 206.648062 
L 417.564806 210.217767 
L 418.392625 212.685807 
L 419.16269 214.335551 
L 419.894251 215.404611 
L 420.568057 216.015529 
L 421.20336 216.304016 
L 421.838663 216.347052 
L 422.493217 216.165836 
L 423.224778 215.727494 
L 424.0911 214.933713 
L 425.130687 213.656767 
L 426.401293 211.719253 
L 428.018428 208.82001 
L 430.270865 204.283575 
L 440.859248 182.354564 
L 443.746988 177.185269 
L 446.499968 172.703448 
L 449.195192 168.732 
L 451.890417 165.152669 
L 454.585642 161.938424 
L 457.319369 159.020178 
L 460.110852 156.362269 
L 462.979341 153.935196 
L 465.96334 151.70139 
L 469.062848 149.658274 
L 472.316369 147.77943 
L 475.762406 146.046928 
L 479.439463 144.449322 
L 483.386042 142.979858 
L 487.659898 141.629285 
L 492.318786 140.393705 
L 497.458964 139.264675 
L 503.176691 138.240758 
L 509.625978 137.316676 
L 516.999343 136.490551 
L 525.566307 135.760869 
L 535.711902 135.126733 
L 548.071432 134.585291 
L 548.937754 134.554497 
L 548.937754 134.554497 
" style="fill:none;stroke:#1f77b4;stroke-dasharray:3.7,1.6;stroke-dashoffset:0;"/>
   </g>
   <g id="text_7">
    <!-- Shifted Force -->
    <defs>
     <path d="M 9.8125 72.90625 
L 51.703125 72.90625 
L 51.703125 64.59375 
L 19.671875 64.59375 
L 19.671875 43.109375 
L 48.578125 43.109375 
L 48.578125 34.8125 
L 19.671875 34.8125 
L 19.671875 0 
L 9.8125 0 
z
" id="DejaVuSans-70"/>
    </defs>
    <g transform="translate(435.277665 16.318125)scale(0.12 -0.12)">
     <use xlink:href="#DejaVuSans-83"/>
     <use x="63.476562" xlink:href="#DejaVuSans-104"/>
     <use x="126.855469" xlink:href="#DejaVuSans-105"/>
     <use x="154.638672" xlink:href="#DejaVuSans-102"/>
     <use x="189.828125" xlink:href="#DejaVuSans-116"/>
     <use x="229.037109" xlink:href="#DejaVuSans-101"/>
     <use x="290.560547" xlink:href="#DejaVuSans-100"/>
     <use x="354.037109" xlink:href="#DejaVuSans-32"/>
     <use x="385.824219" xlink:href="#DejaVuSans-70"/>
     <use x="443.296875" xlink:href="#DejaVuSans-111"/>
     <use x="504.478516" xlink:href="#DejaVuSans-114"/>
     <use x="545.560547" xlink:href="#DejaVuSans-99"/>
     <use x="600.541016" xlink:href="#DejaVuSans-101"/>
    </g>
   </g>
   <g id="legend_3"/>
  </g>
 </g>
 <defs>
  <clipPath id="pf543bf9aa9">
   <rect height="221.76" width="147.84" x="7.2" y="22.318125"/>
  </clipPath>
  <clipPath id="p9e15799440">
   <rect height="221.76" width="147.84" x="204.141176" y="22.318125"/>
  </clipPath>
  <clipPath id="p956a1dbdb7">
   <rect height="221.76" width="147.84" x="401.082353" y="22.318125"/>
  </clipPath>
 </defs>
</svg>
