<?xml version="1.0" encoding="utf-8" standalone="no"?>
<!DOCTYPE svg PUBLIC "-//W3C//DTD SVG 1.1//EN"
  "http://www.w3.org/Graphics/SVG/1.1/DTD/svg11.dtd">
<!-- Created with matplotlib (https://matplotlib.org/) -->
<svg height="288pt" version="1.1" viewBox="0 0 432 288" width="432pt" xmlns="http://www.w3.org/2000/svg" xmlns:xlink="http://www.w3.org/1999/xlink">
 <defs>
  <style type="text/css">
*{stroke-linecap:butt;stroke-linejoin:round;}
  </style>
 </defs>
 <g id="figure_1">
  <g id="patch_1">
   <path d="M 0 288 
L 432 288 
L 432 0 
L 0 0 
z
" style="fill:#ffffff;"/>
  </g>
  <g id="axes_1">
   <g id="patch_2">
    <path d="M 54 252 
L 388.8 252 
L 388.8 34.56 
L 54 34.56 
z
" style="fill:#ffffff;"/>
   </g>
   <g id="matplotlib.axis_1">
    <g id="xtick_1">
     <g id="line2d_1">
      <defs>
       <path d="M 0 0 
L 0 3.5 
" id="maa6e0607c8" style="stroke:#000000;stroke-width:0.8;"/>
      </defs>
      <g>
       <use style="stroke:#000000;stroke-width:0.8;" x="67.688716" xlink:href="#maa6e0607c8" y="252"/>
      </g>
     </g>
     <g id="text_1">
      <!-- 0.0 -->
      <defs>
       <path d="M 31.78125 66.40625 
Q 24.171875 66.40625 20.328125 58.90625 
Q 16.5 51.421875 16.5 36.375 
Q 16.5 21.390625 20.328125 13.890625 
Q 24.171875 6.390625 31.78125 6.390625 
Q 39.453125 6.390625 43.28125 13.890625 
Q 47.125 21.390625 47.125 36.375 
Q 47.125 51.421875 43.28125 58.90625 
Q 39.453125 66.40625 31.78125 66.40625 
z
M 31.78125 74.21875 
Q 44.046875 74.21875 50.515625 64.515625 
Q 56.984375 54.828125 56.984375 36.375 
Q 56.984375 17.96875 50.515625 8.265625 
Q 44.046875 -1.421875 31.78125 -1.421875 
Q 19.53125 -1.421875 13.0625 8.265625 
Q 6.59375 17.96875 6.59375 36.375 
Q 6.59375 54.828125 13.0625 64.515625 
Q 19.53125 74.21875 31.78125 74.21875 
z
" id="DejaVuSans-48"/>
       <path d="M 10.6875 12.40625 
L 21 12.40625 
L 21 0 
L 10.6875 0 
z
" id="DejaVuSans-46"/>
      </defs>
      <g transform="translate(59.737154 266.598437)scale(0.1 -0.1)">
       <use xlink:href="#DejaVuSans-48"/>
       <use x="63.623047" xlink:href="#DejaVuSans-46"/>
       <use x="95.410156" xlink:href="#DejaVuSans-48"/>
      </g>
     </g>
    </g>
    <g id="xtick_2">
     <g id="line2d_2">
      <g>
       <use style="stroke:#000000;stroke-width:0.8;" x="105.925354" xlink:href="#maa6e0607c8" y="252"/>
      </g>
     </g>
     <g id="text_2">
      <!-- 2.5 -->
      <defs>
       <path d="M 19.1875 8.296875 
L 53.609375 8.296875 
L 53.609375 0 
L 7.328125 0 
L 7.328125 8.296875 
Q 12.9375 14.109375 22.625 23.890625 
Q 32.328125 33.6875 34.8125 36.53125 
Q 39.546875 41.84375 41.421875 45.53125 
Q 43.3125 49.21875 43.3125 52.78125 
Q 43.3125 58.59375 39.234375 62.25 
Q 35.15625 65.921875 28.609375 65.921875 
Q 23.96875 65.921875 18.8125 64.3125 
Q 13.671875 62.703125 7.8125 59.421875 
L 7.8125 69.390625 
Q 13.765625 71.78125 18.9375 73 
Q 24.125 74.21875 28.421875 74.21875 
Q 39.75 74.21875 46.484375 68.546875 
Q 53.21875 62.890625 53.21875 53.421875 
Q 53.21875 48.921875 51.53125 44.890625 
Q 49.859375 40.875 45.40625 35.40625 
Q 44.1875 33.984375 37.640625 27.21875 
Q 31.109375 20.453125 19.1875 8.296875 
z
" id="DejaVuSans-50"/>
       <path d="M 10.796875 72.90625 
L 49.515625 72.90625 
L 49.515625 64.59375 
L 19.828125 64.59375 
L 19.828125 46.734375 
Q 21.96875 47.46875 24.109375 47.828125 
Q 26.265625 48.1875 28.421875 48.1875 
Q 40.625 48.1875 47.75 41.5 
Q 54.890625 34.8125 54.890625 23.390625 
Q 54.890625 11.625 47.5625 5.09375 
Q 40.234375 -1.421875 26.90625 -1.421875 
Q 22.3125 -1.421875 17.546875 -0.640625 
Q 12.796875 0.140625 7.71875 1.703125 
L 7.71875 11.625 
Q 12.109375 9.234375 16.796875 8.0625 
Q 21.484375 6.890625 26.703125 6.890625 
Q 35.15625 6.890625 40.078125 11.328125 
Q 45.015625 15.765625 45.015625 23.390625 
Q 45.015625 31 40.078125 35.4375 
Q 35.15625 39.890625 26.703125 39.890625 
Q 22.75 39.890625 18.8125 39.015625 
Q 14.890625 38.140625 10.796875 36.28125 
z
" id="DejaVuSans-53"/>
      </defs>
      <g transform="translate(97.973792 266.598437)scale(0.1 -0.1)">
       <use xlink:href="#DejaVuSans-50"/>
       <use x="63.623047" xlink:href="#DejaVuSans-46"/>
       <use x="95.410156" xlink:href="#DejaVuSans-53"/>
      </g>
     </g>
    </g>
    <g id="xtick_3">
     <g id="line2d_3">
      <g>
       <use style="stroke:#000000;stroke-width:0.8;" x="144.161992" xlink:href="#maa6e0607c8" y="252"/>
      </g>
     </g>
     <g id="text_3">
      <!-- 5.0 -->
      <g transform="translate(136.210429 266.598437)scale(0.1 -0.1)">
       <use xlink:href="#DejaVuSans-53"/>
       <use x="63.623047" xlink:href="#DejaVuSans-46"/>
       <use x="95.410156" xlink:href="#DejaVuSans-48"/>
      </g>
     </g>
    </g>
    <g id="xtick_4">
     <g id="line2d_4">
      <g>
       <use style="stroke:#000000;stroke-width:0.8;" x="182.398629" xlink:href="#maa6e0607c8" y="252"/>
      </g>
     </g>
     <g id="text_4">
      <!-- 7.5 -->
      <defs>
       <path d="M 8.203125 72.90625 
L 55.078125 72.90625 
L 55.078125 68.703125 
L 28.609375 0 
L 18.3125 0 
L 43.21875 64.59375 
L 8.203125 64.59375 
z
" id="DejaVuSans-55"/>
      </defs>
      <g transform="translate(174.447067 266.598437)scale(0.1 -0.1)">
       <use xlink:href="#DejaVuSans-55"/>
       <use x="63.623047" xlink:href="#DejaVuSans-46"/>
       <use x="95.410156" xlink:href="#DejaVuSans-53"/>
      </g>
     </g>
    </g>
    <g id="xtick_5">
     <g id="line2d_5">
      <g>
       <use style="stroke:#000000;stroke-width:0.8;" x="220.635267" xlink:href="#maa6e0607c8" y="252"/>
      </g>
     </g>
     <g id="text_5">
      <!-- 10.0 -->
      <defs>
       <path d="M 12.40625 8.296875 
L 28.515625 8.296875 
L 28.515625 63.921875 
L 10.984375 60.40625 
L 10.984375 69.390625 
L 28.421875 72.90625 
L 38.28125 72.90625 
L 38.28125 8.296875 
L 54.390625 8.296875 
L 54.390625 0 
L 12.40625 0 
z
" id="DejaVuSans-49"/>
      </defs>
      <g transform="translate(209.502455 266.598437)scale(0.1 -0.1)">
       <use xlink:href="#DejaVuSans-49"/>
       <use x="63.623047" xlink:href="#DejaVuSans-48"/>
       <use x="127.246094" xlink:href="#DejaVuSans-46"/>
       <use x="159.033203" xlink:href="#DejaVuSans-48"/>
      </g>
     </g>
    </g>
    <g id="xtick_6">
     <g id="line2d_6">
      <g>
       <use style="stroke:#000000;stroke-width:0.8;" x="258.871905" xlink:href="#maa6e0607c8" y="252"/>
      </g>
     </g>
     <g id="text_6">
      <!-- 12.5 -->
      <g transform="translate(247.739092 266.598437)scale(0.1 -0.1)">
       <use xlink:href="#DejaVuSans-49"/>
       <use x="63.623047" xlink:href="#DejaVuSans-50"/>
       <use x="127.246094" xlink:href="#DejaVuSans-46"/>
       <use x="159.033203" xlink:href="#DejaVuSans-53"/>
      </g>
     </g>
    </g>
    <g id="xtick_7">
     <g id="line2d_7">
      <g>
       <use style="stroke:#000000;stroke-width:0.8;" x="297.108543" xlink:href="#maa6e0607c8" y="252"/>
      </g>
     </g>
     <g id="text_7">
      <!-- 15.0 -->
      <g transform="translate(285.97573 266.598437)scale(0.1 -0.1)">
       <use xlink:href="#DejaVuSans-49"/>
       <use x="63.623047" xlink:href="#DejaVuSans-53"/>
       <use x="127.246094" xlink:href="#DejaVuSans-46"/>
       <use x="159.033203" xlink:href="#DejaVuSans-48"/>
      </g>
     </g>
    </g>
    <g id="xtick_8">
     <g id="line2d_8">
      <g>
       <use style="stroke:#000000;stroke-width:0.8;" x="335.34518" xlink:href="#maa6e0607c8" y="252"/>
      </g>
     </g>
     <g id="text_8">
      <!-- 17.5 -->
      <g transform="translate(324.212368 266.598437)scale(0.1 -0.1)">
       <use xlink:href="#DejaVuSans-49"/>
       <use x="63.623047" xlink:href="#DejaVuSans-55"/>
       <use x="127.246094" xlink:href="#DejaVuSans-46"/>
       <use x="159.033203" xlink:href="#DejaVuSans-53"/>
      </g>
     </g>
    </g>
    <g id="xtick_9">
     <g id="line2d_9">
      <g>
       <use style="stroke:#000000;stroke-width:0.8;" x="373.581818" xlink:href="#maa6e0607c8" y="252"/>
      </g>
     </g>
     <g id="text_9">
      <!-- 20.0 -->
      <g transform="translate(362.449006 266.598437)scale(0.1 -0.1)">
       <use xlink:href="#DejaVuSans-50"/>
       <use x="63.623047" xlink:href="#DejaVuSans-48"/>
       <use x="127.246094" xlink:href="#DejaVuSans-46"/>
       <use x="159.033203" xlink:href="#DejaVuSans-48"/>
      </g>
     </g>
    </g>
    <g id="text_10">
     <!-- velocity $[ \AA / ps ]$ -->
     <defs>
      <path d="M 2.984375 54.6875 
L 12.5 54.6875 
L 29.59375 8.796875 
L 46.6875 54.6875 
L 56.203125 54.6875 
L 35.6875 0 
L 23.484375 0 
z
" id="DejaVuSans-118"/>
      <path d="M 56.203125 29.59375 
L 56.203125 25.203125 
L 14.890625 25.203125 
Q 15.484375 15.921875 20.484375 11.0625 
Q 25.484375 6.203125 34.421875 6.203125 
Q 39.59375 6.203125 44.453125 7.46875 
Q 49.3125 8.734375 54.109375 11.28125 
L 54.109375 2.78125 
Q 49.265625 0.734375 44.1875 -0.34375 
Q 39.109375 -1.421875 33.890625 -1.421875 
Q 20.796875 -1.421875 13.15625 6.1875 
Q 5.515625 13.8125 5.515625 26.8125 
Q 5.515625 40.234375 12.765625 48.109375 
Q 20.015625 56 32.328125 56 
Q 43.359375 56 49.78125 48.890625 
Q 56.203125 41.796875 56.203125 29.59375 
z
M 47.21875 32.234375 
Q 47.125 39.59375 43.09375 43.984375 
Q 39.0625 48.390625 32.421875 48.390625 
Q 24.90625 48.390625 20.390625 44.140625 
Q 15.875 39.890625 15.1875 32.171875 
z
" id="DejaVuSans-101"/>
      <path d="M 9.421875 75.984375 
L 18.40625 75.984375 
L 18.40625 0 
L 9.421875 0 
z
" id="DejaVuSans-108"/>
      <path d="M 30.609375 48.390625 
Q 23.390625 48.390625 19.1875 42.75 
Q 14.984375 37.109375 14.984375 27.296875 
Q 14.984375 17.484375 19.15625 11.84375 
Q 23.34375 6.203125 30.609375 6.203125 
Q 37.796875 6.203125 41.984375 11.859375 
Q 46.1875 17.53125 46.1875 27.296875 
Q 46.1875 37.015625 41.984375 42.703125 
Q 37.796875 48.390625 30.609375 48.390625 
z
M 30.609375 56 
Q 42.328125 56 49.015625 48.375 
Q 55.71875 40.765625 55.71875 27.296875 
Q 55.71875 13.875 49.015625 6.21875 
Q 42.328125 -1.421875 30.609375 -1.421875 
Q 18.84375 -1.421875 12.171875 6.21875 
Q 5.515625 13.875 5.515625 27.296875 
Q 5.515625 40.765625 12.171875 48.375 
Q 18.84375 56 30.609375 56 
z
" id="DejaVuSans-111"/>
      <path d="M 48.78125 52.59375 
L 48.78125 44.1875 
Q 44.96875 46.296875 41.140625 47.34375 
Q 37.3125 48.390625 33.40625 48.390625 
Q 24.65625 48.390625 19.8125 42.84375 
Q 14.984375 37.3125 14.984375 27.296875 
Q 14.984375 17.28125 19.8125 11.734375 
Q 24.65625 6.203125 33.40625 6.203125 
Q 37.3125 6.203125 41.140625 7.25 
Q 44.96875 8.296875 48.78125 10.40625 
L 48.78125 2.09375 
Q 45.015625 0.34375 40.984375 -0.53125 
Q 36.96875 -1.421875 32.421875 -1.421875 
Q 20.0625 -1.421875 12.78125 6.34375 
Q 5.515625 14.109375 5.515625 27.296875 
Q 5.515625 40.671875 12.859375 48.328125 
Q 20.21875 56 33.015625 56 
Q 37.15625 56 41.109375 55.140625 
Q 45.0625 54.296875 48.78125 52.59375 
z
" id="DejaVuSans-99"/>
      <path d="M 9.421875 54.6875 
L 18.40625 54.6875 
L 18.40625 0 
L 9.421875 0 
z
M 9.421875 75.984375 
L 18.40625 75.984375 
L 18.40625 64.59375 
L 9.421875 64.59375 
z
" id="DejaVuSans-105"/>
      <path d="M 18.3125 70.21875 
L 18.3125 54.6875 
L 36.8125 54.6875 
L 36.8125 47.703125 
L 18.3125 47.703125 
L 18.3125 18.015625 
Q 18.3125 11.328125 20.140625 9.421875 
Q 21.96875 7.515625 27.59375 7.515625 
L 36.8125 7.515625 
L 36.8125 0 
L 27.59375 0 
Q 17.1875 0 13.234375 3.875 
Q 9.28125 7.765625 9.28125 18.015625 
L 9.28125 47.703125 
L 2.6875 47.703125 
L 2.6875 54.6875 
L 9.28125 54.6875 
L 9.28125 70.21875 
z
" id="DejaVuSans-116"/>
      <path d="M 32.171875 -5.078125 
Q 28.375 -14.84375 24.75 -17.8125 
Q 21.140625 -20.796875 15.09375 -20.796875 
L 7.90625 -20.796875 
L 7.90625 -13.28125 
L 13.1875 -13.28125 
Q 16.890625 -13.28125 18.9375 -11.515625 
Q 21 -9.765625 23.484375 -3.21875 
L 25.09375 0.875 
L 2.984375 54.6875 
L 12.5 54.6875 
L 29.59375 11.921875 
L 46.6875 54.6875 
L 56.203125 54.6875 
z
" id="DejaVuSans-121"/>
      <path id="DejaVuSans-32"/>
      <path d="M 8.59375 75.984375 
L 29.296875 75.984375 
L 29.296875 69 
L 17.578125 69 
L 17.578125 -6.203125 
L 29.296875 -6.203125 
L 29.296875 -13.1875 
L 8.59375 -13.1875 
z
" id="DejaVuSans-91"/>
      <path d="M 49.8125 79.390625 
Q 49.8125 82.46875 47.625 84.640625 
Q 45.453125 86.8125 42.390625 86.8125 
Q 39.265625 86.8125 37.140625 84.6875 
Q 35.015625 82.5625 35.015625 79.390625 
Q 35.015625 76.3125 37.140625 74.15625 
Q 39.265625 72.015625 42.390625 72.015625 
Q 45.453125 72.015625 47.625 74.15625 
Q 49.8125 76.3125 49.8125 79.390625 
z
M 34.421875 68.703125 
Q 31.78125 70.515625 30.390625 73.265625 
Q 29 76.03125 29 79.390625 
Q 29 84.96875 32.90625 88.890625 
Q 36.8125 92.828125 42.390625 92.828125 
Q 47.953125 92.828125 51.875 88.890625 
Q 55.8125 84.96875 55.8125 79.390625 
Q 55.8125 75.53125 54.03125 72.546875 
Q 52.25 69.578125 48.875 67.828125 
L 61.53125 0 
L 51.21875 0 
L 48.1875 18.703125 
L 15.375 18.703125 
L 5.078125 0 
L -5.328125 0 
z
M 40.375 63.1875 
L 19.921875 26.90625 
L 46.6875 26.90625 
z
" id="DejaVuSans-Oblique-197"/>
      <path d="M 25.390625 72.90625 
L 33.6875 72.90625 
L 8.296875 -9.28125 
L 0 -9.28125 
z
" id="DejaVuSans-47"/>
      <path d="M 49.609375 33.6875 
Q 49.609375 40.875 46.484375 44.671875 
Q 43.359375 48.484375 37.5 48.484375 
Q 33.5 48.484375 29.859375 46.4375 
Q 26.21875 44.390625 23.390625 40.484375 
Q 20.609375 36.625 18.9375 31.15625 
Q 17.28125 25.6875 17.28125 20.3125 
Q 17.28125 13.484375 20.40625 9.796875 
Q 23.53125 6.109375 29.296875 6.109375 
Q 33.546875 6.109375 37.1875 8.109375 
Q 40.828125 10.109375 43.40625 13.921875 
Q 46.1875 17.921875 47.890625 23.34375 
Q 49.609375 28.765625 49.609375 33.6875 
z
M 21.78125 46.390625 
Q 25.390625 51.125 30.296875 53.5625 
Q 35.203125 56 41.21875 56 
Q 49.609375 56 54.25 50.5 
Q 58.890625 45.015625 58.890625 35.109375 
Q 58.890625 27 56 19.65625 
Q 53.125 12.3125 47.703125 6.5 
Q 44.09375 2.640625 39.546875 0.609375 
Q 35.015625 -1.421875 29.984375 -1.421875 
Q 24.171875 -1.421875 20.21875 1 
Q 16.265625 3.421875 14.3125 8.203125 
L 8.6875 -20.796875 
L -0.296875 -20.796875 
L 14.40625 54.6875 
L 23.390625 54.6875 
z
" id="DejaVuSans-Oblique-112"/>
      <path d="M 50 53.078125 
L 48.296875 44.578125 
Q 44.734375 46.53125 40.765625 47.5 
Q 36.8125 48.484375 32.625 48.484375 
Q 25.53125 48.484375 21.453125 46.0625 
Q 17.390625 43.65625 17.390625 39.5 
Q 17.390625 34.671875 26.859375 32.078125 
Q 27.59375 31.890625 27.9375 31.78125 
L 30.8125 30.90625 
Q 39.796875 28.421875 42.796875 25.6875 
Q 45.796875 22.953125 45.796875 18.21875 
Q 45.796875 9.515625 38.890625 4.046875 
Q 31.984375 -1.421875 20.796875 -1.421875 
Q 16.453125 -1.421875 11.671875 -0.578125 
Q 6.890625 0.25 1.125 2 
L 2.875 11.28125 
Q 7.8125 8.734375 12.59375 7.421875 
Q 17.390625 6.109375 21.78125 6.109375 
Q 28.375 6.109375 32.5 8.9375 
Q 36.625 11.765625 36.625 16.109375 
Q 36.625 20.796875 25.78125 23.6875 
L 24.859375 23.921875 
L 21.78125 24.703125 
Q 14.9375 26.515625 11.765625 29.46875 
Q 8.59375 32.421875 8.59375 37.015625 
Q 8.59375 45.75 15.15625 50.875 
Q 21.734375 56 33.015625 56 
Q 37.453125 56 41.671875 55.265625 
Q 45.90625 54.546875 50 53.078125 
z
" id="DejaVuSans-Oblique-115"/>
      <path d="M 30.421875 75.984375 
L 30.421875 -13.1875 
L 9.71875 -13.1875 
L 9.71875 -6.203125 
L 21.390625 -6.203125 
L 21.390625 69 
L 9.71875 69 
L 9.71875 75.984375 
z
" id="DejaVuSans-93"/>
     </defs>
     <g transform="translate(171.07 285.698125)scale(0.14 -0.14)">
      <use transform="translate(0 0.171875)" xlink:href="#DejaVuSans-118"/>
      <use transform="translate(59.179688 0.171875)" xlink:href="#DejaVuSans-101"/>
      <use transform="translate(120.703125 0.171875)" xlink:href="#DejaVuSans-108"/>
      <use transform="translate(148.486328 0.171875)" xlink:href="#DejaVuSans-111"/>
      <use transform="translate(209.667969 0.171875)" xlink:href="#DejaVuSans-99"/>
      <use transform="translate(264.648438 0.171875)" xlink:href="#DejaVuSans-105"/>
      <use transform="translate(292.431641 0.171875)" xlink:href="#DejaVuSans-116"/>
      <use transform="translate(331.640625 0.171875)" xlink:href="#DejaVuSans-121"/>
      <use transform="translate(390.820312 0.171875)" xlink:href="#DejaVuSans-32"/>
      <use transform="translate(422.607422 0.171875)" xlink:href="#DejaVuSans-91"/>
      <use transform="translate(461.621094 0.171875)" xlink:href="#DejaVuSans-Oblique-197"/>
      <use transform="translate(530.029297 0.171875)" xlink:href="#DejaVuSans-47"/>
      <use transform="translate(563.720703 0.171875)" xlink:href="#DejaVuSans-Oblique-112"/>
      <use transform="translate(627.197266 0.171875)" xlink:href="#DejaVuSans-Oblique-115"/>
      <use transform="translate(679.296875 0.171875)" xlink:href="#DejaVuSans-93"/>
     </g>
    </g>
   </g>
   <g id="matplotlib.axis_2">
    <g id="ytick_1">
     <g id="line2d_10">
      <defs>
       <path d="M 0 0 
L -3.5 0 
" id="ma4765d2971" style="stroke:#000000;stroke-width:0.8;"/>
      </defs>
      <g>
       <use style="stroke:#000000;stroke-width:0.8;" x="54" xlink:href="#ma4765d2971" y="242.116364"/>
      </g>
     </g>
     <g id="text_11">
      <!-- 0.00 -->
      <g transform="translate(24.734375 245.915582)scale(0.1 -0.1)">
       <use xlink:href="#DejaVuSans-48"/>
       <use x="63.623047" xlink:href="#DejaVuSans-46"/>
       <use x="95.410156" xlink:href="#DejaVuSans-48"/>
       <use x="159.033203" xlink:href="#DejaVuSans-48"/>
      </g>
     </g>
    </g>
    <g id="ytick_2">
     <g id="line2d_11">
      <g>
       <use style="stroke:#000000;stroke-width:0.8;" x="54" xlink:href="#ma4765d2971" y="217.358231"/>
      </g>
     </g>
     <g id="text_12">
      <!-- 0.02 -->
      <g transform="translate(24.734375 221.15745)scale(0.1 -0.1)">
       <use xlink:href="#DejaVuSans-48"/>
       <use x="63.623047" xlink:href="#DejaVuSans-46"/>
       <use x="95.410156" xlink:href="#DejaVuSans-48"/>
       <use x="159.033203" xlink:href="#DejaVuSans-50"/>
      </g>
     </g>
    </g>
    <g id="ytick_3">
     <g id="line2d_12">
      <g>
       <use style="stroke:#000000;stroke-width:0.8;" x="54" xlink:href="#ma4765d2971" y="192.600098"/>
      </g>
     </g>
     <g id="text_13">
      <!-- 0.04 -->
      <defs>
       <path d="M 37.796875 64.3125 
L 12.890625 25.390625 
L 37.796875 25.390625 
z
M 35.203125 72.90625 
L 47.609375 72.90625 
L 47.609375 25.390625 
L 58.015625 25.390625 
L 58.015625 17.1875 
L 47.609375 17.1875 
L 47.609375 0 
L 37.796875 0 
L 37.796875 17.1875 
L 4.890625 17.1875 
L 4.890625 26.703125 
z
" id="DejaVuSans-52"/>
      </defs>
      <g transform="translate(24.734375 196.399317)scale(0.1 -0.1)">
       <use xlink:href="#DejaVuSans-48"/>
       <use x="63.623047" xlink:href="#DejaVuSans-46"/>
       <use x="95.410156" xlink:href="#DejaVuSans-48"/>
       <use x="159.033203" xlink:href="#DejaVuSans-52"/>
      </g>
     </g>
    </g>
    <g id="ytick_4">
     <g id="line2d_13">
      <g>
       <use style="stroke:#000000;stroke-width:0.8;" x="54" xlink:href="#ma4765d2971" y="167.841965"/>
      </g>
     </g>
     <g id="text_14">
      <!-- 0.06 -->
      <defs>
       <path d="M 33.015625 40.375 
Q 26.375 40.375 22.484375 35.828125 
Q 18.609375 31.296875 18.609375 23.390625 
Q 18.609375 15.53125 22.484375 10.953125 
Q 26.375 6.390625 33.015625 6.390625 
Q 39.65625 6.390625 43.53125 10.953125 
Q 47.40625 15.53125 47.40625 23.390625 
Q 47.40625 31.296875 43.53125 35.828125 
Q 39.65625 40.375 33.015625 40.375 
z
M 52.59375 71.296875 
L 52.59375 62.3125 
Q 48.875 64.0625 45.09375 64.984375 
Q 41.3125 65.921875 37.59375 65.921875 
Q 27.828125 65.921875 22.671875 59.328125 
Q 17.53125 52.734375 16.796875 39.40625 
Q 19.671875 43.65625 24.015625 45.921875 
Q 28.375 48.1875 33.59375 48.1875 
Q 44.578125 48.1875 50.953125 41.515625 
Q 57.328125 34.859375 57.328125 23.390625 
Q 57.328125 12.15625 50.6875 5.359375 
Q 44.046875 -1.421875 33.015625 -1.421875 
Q 20.359375 -1.421875 13.671875 8.265625 
Q 6.984375 17.96875 6.984375 36.375 
Q 6.984375 53.65625 15.1875 63.9375 
Q 23.390625 74.21875 37.203125 74.21875 
Q 40.921875 74.21875 44.703125 73.484375 
Q 48.484375 72.75 52.59375 71.296875 
z
" id="DejaVuSans-54"/>
      </defs>
      <g transform="translate(24.734375 171.641184)scale(0.1 -0.1)">
       <use xlink:href="#DejaVuSans-48"/>
       <use x="63.623047" xlink:href="#DejaVuSans-46"/>
       <use x="95.410156" xlink:href="#DejaVuSans-48"/>
       <use x="159.033203" xlink:href="#DejaVuSans-54"/>
      </g>
     </g>
    </g>
    <g id="ytick_5">
     <g id="line2d_14">
      <g>
       <use style="stroke:#000000;stroke-width:0.8;" x="54" xlink:href="#ma4765d2971" y="143.083833"/>
      </g>
     </g>
     <g id="text_15">
      <!-- 0.08 -->
      <defs>
       <path d="M 31.78125 34.625 
Q 24.75 34.625 20.71875 30.859375 
Q 16.703125 27.09375 16.703125 20.515625 
Q 16.703125 13.921875 20.71875 10.15625 
Q 24.75 6.390625 31.78125 6.390625 
Q 38.8125 6.390625 42.859375 10.171875 
Q 46.921875 13.96875 46.921875 20.515625 
Q 46.921875 27.09375 42.890625 30.859375 
Q 38.875 34.625 31.78125 34.625 
z
M 21.921875 38.8125 
Q 15.578125 40.375 12.03125 44.71875 
Q 8.5 49.078125 8.5 55.328125 
Q 8.5 64.0625 14.71875 69.140625 
Q 20.953125 74.21875 31.78125 74.21875 
Q 42.671875 74.21875 48.875 69.140625 
Q 55.078125 64.0625 55.078125 55.328125 
Q 55.078125 49.078125 51.53125 44.71875 
Q 48 40.375 41.703125 38.8125 
Q 48.828125 37.15625 52.796875 32.3125 
Q 56.78125 27.484375 56.78125 20.515625 
Q 56.78125 9.90625 50.3125 4.234375 
Q 43.84375 -1.421875 31.78125 -1.421875 
Q 19.734375 -1.421875 13.25 4.234375 
Q 6.78125 9.90625 6.78125 20.515625 
Q 6.78125 27.484375 10.78125 32.3125 
Q 14.796875 37.15625 21.921875 38.8125 
z
M 18.3125 54.390625 
Q 18.3125 48.734375 21.84375 45.5625 
Q 25.390625 42.390625 31.78125 42.390625 
Q 38.140625 42.390625 41.71875 45.5625 
Q 45.3125 48.734375 45.3125 54.390625 
Q 45.3125 60.0625 41.71875 63.234375 
Q 38.140625 66.40625 31.78125 66.40625 
Q 25.390625 66.40625 21.84375 63.234375 
Q 18.3125 60.0625 18.3125 54.390625 
z
" id="DejaVuSans-56"/>
      </defs>
      <g transform="translate(24.734375 146.883051)scale(0.1 -0.1)">
       <use xlink:href="#DejaVuSans-48"/>
       <use x="63.623047" xlink:href="#DejaVuSans-46"/>
       <use x="95.410156" xlink:href="#DejaVuSans-48"/>
       <use x="159.033203" xlink:href="#DejaVuSans-56"/>
      </g>
     </g>
    </g>
    <g id="ytick_6">
     <g id="line2d_15">
      <g>
       <use style="stroke:#000000;stroke-width:0.8;" x="54" xlink:href="#ma4765d2971" y="118.3257"/>
      </g>
     </g>
     <g id="text_16">
      <!-- 0.10 -->
      <g transform="translate(24.734375 122.124919)scale(0.1 -0.1)">
       <use xlink:href="#DejaVuSans-48"/>
       <use x="63.623047" xlink:href="#DejaVuSans-46"/>
       <use x="95.410156" xlink:href="#DejaVuSans-49"/>
       <use x="159.033203" xlink:href="#DejaVuSans-48"/>
      </g>
     </g>
    </g>
    <g id="ytick_7">
     <g id="line2d_16">
      <g>
       <use style="stroke:#000000;stroke-width:0.8;" x="54" xlink:href="#ma4765d2971" y="93.567567"/>
      </g>
     </g>
     <g id="text_17">
      <!-- 0.12 -->
      <g transform="translate(24.734375 97.366786)scale(0.1 -0.1)">
       <use xlink:href="#DejaVuSans-48"/>
       <use x="63.623047" xlink:href="#DejaVuSans-46"/>
       <use x="95.410156" xlink:href="#DejaVuSans-49"/>
       <use x="159.033203" xlink:href="#DejaVuSans-50"/>
      </g>
     </g>
    </g>
    <g id="ytick_8">
     <g id="line2d_17">
      <g>
       <use style="stroke:#000000;stroke-width:0.8;" x="54" xlink:href="#ma4765d2971" y="68.809434"/>
      </g>
     </g>
     <g id="text_18">
      <!-- 0.14 -->
      <g transform="translate(24.734375 72.608653)scale(0.1 -0.1)">
       <use xlink:href="#DejaVuSans-48"/>
       <use x="63.623047" xlink:href="#DejaVuSans-46"/>
       <use x="95.410156" xlink:href="#DejaVuSans-49"/>
       <use x="159.033203" xlink:href="#DejaVuSans-52"/>
      </g>
     </g>
    </g>
    <g id="ytick_9">
     <g id="line2d_18">
      <g>
       <use style="stroke:#000000;stroke-width:0.8;" x="54" xlink:href="#ma4765d2971" y="44.051302"/>
      </g>
     </g>
     <g id="text_19">
      <!-- 0.16 -->
      <g transform="translate(24.734375 47.85052)scale(0.1 -0.1)">
       <use xlink:href="#DejaVuSans-48"/>
       <use x="63.623047" xlink:href="#DejaVuSans-46"/>
       <use x="95.410156" xlink:href="#DejaVuSans-49"/>
       <use x="159.033203" xlink:href="#DejaVuSans-54"/>
      </g>
     </g>
    </g>
    <g id="text_20">
     <!-- probablility density -->
     <defs>
      <path d="M 18.109375 8.203125 
L 18.109375 -20.796875 
L 9.078125 -20.796875 
L 9.078125 54.6875 
L 18.109375 54.6875 
L 18.109375 46.390625 
Q 20.953125 51.265625 25.265625 53.625 
Q 29.59375 56 35.59375 56 
Q 45.5625 56 51.78125 48.09375 
Q 58.015625 40.1875 58.015625 27.296875 
Q 58.015625 14.40625 51.78125 6.484375 
Q 45.5625 -1.421875 35.59375 -1.421875 
Q 29.59375 -1.421875 25.265625 0.953125 
Q 20.953125 3.328125 18.109375 8.203125 
z
M 48.6875 27.296875 
Q 48.6875 37.203125 44.609375 42.84375 
Q 40.53125 48.484375 33.40625 48.484375 
Q 26.265625 48.484375 22.1875 42.84375 
Q 18.109375 37.203125 18.109375 27.296875 
Q 18.109375 17.390625 22.1875 11.75 
Q 26.265625 6.109375 33.40625 6.109375 
Q 40.53125 6.109375 44.609375 11.75 
Q 48.6875 17.390625 48.6875 27.296875 
z
" id="DejaVuSans-112"/>
      <path d="M 41.109375 46.296875 
Q 39.59375 47.171875 37.8125 47.578125 
Q 36.03125 48 33.890625 48 
Q 26.265625 48 22.1875 43.046875 
Q 18.109375 38.09375 18.109375 28.8125 
L 18.109375 0 
L 9.078125 0 
L 9.078125 54.6875 
L 18.109375 54.6875 
L 18.109375 46.1875 
Q 20.953125 51.171875 25.484375 53.578125 
Q 30.03125 56 36.53125 56 
Q 37.453125 56 38.578125 55.875 
Q 39.703125 55.765625 41.0625 55.515625 
z
" id="DejaVuSans-114"/>
      <path d="M 48.6875 27.296875 
Q 48.6875 37.203125 44.609375 42.84375 
Q 40.53125 48.484375 33.40625 48.484375 
Q 26.265625 48.484375 22.1875 42.84375 
Q 18.109375 37.203125 18.109375 27.296875 
Q 18.109375 17.390625 22.1875 11.75 
Q 26.265625 6.109375 33.40625 6.109375 
Q 40.53125 6.109375 44.609375 11.75 
Q 48.6875 17.390625 48.6875 27.296875 
z
M 18.109375 46.390625 
Q 20.953125 51.265625 25.265625 53.625 
Q 29.59375 56 35.59375 56 
Q 45.5625 56 51.78125 48.09375 
Q 58.015625 40.1875 58.015625 27.296875 
Q 58.015625 14.40625 51.78125 6.484375 
Q 45.5625 -1.421875 35.59375 -1.421875 
Q 29.59375 -1.421875 25.265625 0.953125 
Q 20.953125 3.328125 18.109375 8.203125 
L 18.109375 0 
L 9.078125 0 
L 9.078125 75.984375 
L 18.109375 75.984375 
z
" id="DejaVuSans-98"/>
      <path d="M 34.28125 27.484375 
Q 23.390625 27.484375 19.1875 25 
Q 14.984375 22.515625 14.984375 16.5 
Q 14.984375 11.71875 18.140625 8.90625 
Q 21.296875 6.109375 26.703125 6.109375 
Q 34.1875 6.109375 38.703125 11.40625 
Q 43.21875 16.703125 43.21875 25.484375 
L 43.21875 27.484375 
z
M 52.203125 31.203125 
L 52.203125 0 
L 43.21875 0 
L 43.21875 8.296875 
Q 40.140625 3.328125 35.546875 0.953125 
Q 30.953125 -1.421875 24.3125 -1.421875 
Q 15.921875 -1.421875 10.953125 3.296875 
Q 6 8.015625 6 15.921875 
Q 6 25.140625 12.171875 29.828125 
Q 18.359375 34.515625 30.609375 34.515625 
L 43.21875 34.515625 
L 43.21875 35.40625 
Q 43.21875 41.609375 39.140625 45 
Q 35.0625 48.390625 27.6875 48.390625 
Q 23 48.390625 18.546875 47.265625 
Q 14.109375 46.140625 10.015625 43.890625 
L 10.015625 52.203125 
Q 14.9375 54.109375 19.578125 55.046875 
Q 24.21875 56 28.609375 56 
Q 40.484375 56 46.34375 49.84375 
Q 52.203125 43.703125 52.203125 31.203125 
z
" id="DejaVuSans-97"/>
      <path d="M 45.40625 46.390625 
L 45.40625 75.984375 
L 54.390625 75.984375 
L 54.390625 0 
L 45.40625 0 
L 45.40625 8.203125 
Q 42.578125 3.328125 38.25 0.953125 
Q 33.9375 -1.421875 27.875 -1.421875 
Q 17.96875 -1.421875 11.734375 6.484375 
Q 5.515625 14.40625 5.515625 27.296875 
Q 5.515625 40.1875 11.734375 48.09375 
Q 17.96875 56 27.875 56 
Q 33.9375 56 38.25 53.625 
Q 42.578125 51.265625 45.40625 46.390625 
z
M 14.796875 27.296875 
Q 14.796875 17.390625 18.875 11.75 
Q 22.953125 6.109375 30.078125 6.109375 
Q 37.203125 6.109375 41.296875 11.75 
Q 45.40625 17.390625 45.40625 27.296875 
Q 45.40625 37.203125 41.296875 42.84375 
Q 37.203125 48.484375 30.078125 48.484375 
Q 22.953125 48.484375 18.875 42.84375 
Q 14.796875 37.203125 14.796875 27.296875 
z
" id="DejaVuSans-100"/>
      <path d="M 54.890625 33.015625 
L 54.890625 0 
L 45.90625 0 
L 45.90625 32.71875 
Q 45.90625 40.484375 42.875 44.328125 
Q 39.84375 48.1875 33.796875 48.1875 
Q 26.515625 48.1875 22.3125 43.546875 
Q 18.109375 38.921875 18.109375 30.90625 
L 18.109375 0 
L 9.078125 0 
L 9.078125 54.6875 
L 18.109375 54.6875 
L 18.109375 46.1875 
Q 21.34375 51.125 25.703125 53.5625 
Q 30.078125 56 35.796875 56 
Q 45.21875 56 50.046875 50.171875 
Q 54.890625 44.34375 54.890625 33.015625 
z
" id="DejaVuSans-110"/>
      <path d="M 44.28125 53.078125 
L 44.28125 44.578125 
Q 40.484375 46.53125 36.375 47.5 
Q 32.28125 48.484375 27.875 48.484375 
Q 21.1875 48.484375 17.84375 46.4375 
Q 14.5 44.390625 14.5 40.28125 
Q 14.5 37.15625 16.890625 35.375 
Q 19.28125 33.59375 26.515625 31.984375 
L 29.59375 31.296875 
Q 39.15625 29.25 43.1875 25.515625 
Q 47.21875 21.78125 47.21875 15.09375 
Q 47.21875 7.46875 41.1875 3.015625 
Q 35.15625 -1.421875 24.609375 -1.421875 
Q 20.21875 -1.421875 15.453125 -0.5625 
Q 10.6875 0.296875 5.421875 2 
L 5.421875 11.28125 
Q 10.40625 8.6875 15.234375 7.390625 
Q 20.0625 6.109375 24.8125 6.109375 
Q 31.15625 6.109375 34.5625 8.28125 
Q 37.984375 10.453125 37.984375 14.40625 
Q 37.984375 18.0625 35.515625 20.015625 
Q 33.0625 21.96875 24.703125 23.78125 
L 21.578125 24.515625 
Q 13.234375 26.265625 9.515625 29.90625 
Q 5.8125 33.546875 5.8125 39.890625 
Q 5.8125 47.609375 11.28125 51.796875 
Q 16.75 56 26.8125 56 
Q 31.78125 56 36.171875 55.265625 
Q 40.578125 54.546875 44.28125 53.078125 
z
" id="DejaVuSans-115"/>
     </defs>
     <g transform="translate(17.822812 210.616719)rotate(-90)scale(0.14 -0.14)">
      <use xlink:href="#DejaVuSans-112"/>
      <use x="63.476562" xlink:href="#DejaVuSans-114"/>
      <use x="104.558594" xlink:href="#DejaVuSans-111"/>
      <use x="165.740234" xlink:href="#DejaVuSans-98"/>
      <use x="229.216797" xlink:href="#DejaVuSans-97"/>
      <use x="290.496094" xlink:href="#DejaVuSans-98"/>
      <use x="353.972656" xlink:href="#DejaVuSans-108"/>
      <use x="381.755859" xlink:href="#DejaVuSans-105"/>
      <use x="409.539062" xlink:href="#DejaVuSans-108"/>
      <use x="437.322266" xlink:href="#DejaVuSans-105"/>
      <use x="465.105469" xlink:href="#DejaVuSans-116"/>
      <use x="504.314453" xlink:href="#DejaVuSans-121"/>
      <use x="563.494141" xlink:href="#DejaVuSans-32"/>
      <use x="595.28125" xlink:href="#DejaVuSans-100"/>
      <use x="658.757812" xlink:href="#DejaVuSans-101"/>
      <use x="720.28125" xlink:href="#DejaVuSans-110"/>
      <use x="783.660156" xlink:href="#DejaVuSans-115"/>
      <use x="835.759766" xlink:href="#DejaVuSans-105"/>
      <use x="863.542969" xlink:href="#DejaVuSans-116"/>
      <use x="902.751953" xlink:href="#DejaVuSans-121"/>
     </g>
    </g>
   </g>
   <g id="line2d_19">
    <path clip-path="url(#p5fa205ce0d)" d="M 69.218182 242.052094 
L 70.747647 241.711466 
L 72.277113 240.866323 
L 73.806578 239.693406 
L 76.86551 236.367465 
L 78.394975 234.066615 
L 81.453906 228.526588 
L 82.983371 225.09461 
L 84.512837 221.334849 
L 92.160165 199.663203 
L 93.689631 193.014532 
L 95.219095 188.419205 
L 96.748561 181.828441 
L 98.278026 177.011448 
L 99.807491 171.426352 
L 104.39589 152.598818 
L 105.925354 147.126058 
L 107.454818 141.158636 
L 108.984286 134.410596 
L 110.51375 130.030373 
L 112.043218 122.906385 
L 113.572682 117.780609 
L 115.102146 111.385794 
L 116.631613 106.57876 
L 118.161077 100.501756 
L 121.220009 90.874187 
L 122.749473 85.469123 
L 124.278941 82.676993 
L 125.808405 76.959842 
L 127.337873 72.516011 
L 128.867337 69.125391 
L 130.396801 64.967155 
L 131.926265 61.593007 
L 134.9852 56.123674 
L 136.514664 53.260468 
L 138.044128 51.78227 
L 139.573592 49.237198 
L 141.103064 47.464288 
L 142.632528 48.086774 
L 144.161992 46.087993 
L 145.691456 47.228776 
L 147.22092 45.229995 
L 148.750391 44.443636 
L 150.279855 46.100847 
L 151.809319 46.229386 
L 153.338783 47.187001 
L 154.868247 49.005828 
L 156.397719 49.774765 
L 157.927183 50.776452 
L 159.456647 53.880668 
L 160.986111 52.945547 
L 162.515575 57.196974 
L 165.57451 62.785206 
L 167.103974 64.118798 
L 168.633438 67.72753 
L 170.162903 69.311773 
L 171.692374 73.920697 
L 173.221838 77.14301 
L 174.751302 82.149603 
L 177.81023 88.441587 
L 179.339701 90.788144 
L 182.398629 100.157915 
L 183.928094 103.47422 
L 185.457558 108.143399 
L 186.987029 111.196824 
L 188.516493 116.909757 
L 190.045957 121.411835 
L 191.575428 124.066728 
L 194.634356 132.906954 
L 196.163813 136.389335 
L 200.752213 148.33709 
L 202.281684 151.458254 
L 203.811141 155.715263 
L 205.340612 159.569025 
L 206.870083 162.952797 
L 208.39954 165.420002 
L 209.929012 170.199147 
L 211.458468 171.920892 
L 212.98794 176.47182 
L 214.517411 178.477018 
L 216.046868 182.560757 
L 217.576339 185.228496 
L 222.164739 194.155486 
L 223.694195 195.854964 
L 226.753123 200.983694 
L 228.282595 202.433356 
L 229.812066 205.746433 
L 232.870994 209.522247 
L 234.400451 211.960975 
L 235.929922 212.983143 
L 238.98885 217.18611 
L 240.518322 218.423529 
L 242.047779 220.075037 
L 243.57725 221.312429 
L 245.106721 222.989855 
L 246.636178 223.722348 
L 248.165649 225.194288 
L 251.224577 227.077375 
L 254.283506 229.567686 
L 255.812977 230.126947 
L 257.342434 231.200139 
L 258.871905 231.605139 
L 260.401376 232.877669 
L 261.930833 233.327469 
L 264.989761 234.808888 
L 266.519233 235.046753 
L 268.048704 235.763355 
L 269.578161 235.978598 
L 271.107632 236.338564 
L 272.637089 237.18687 
L 275.696031 237.958147 
L 277.225488 237.990243 
L 278.75496 238.253786 
L 280.284416 238.828964 
L 281.813888 239.002522 
L 283.343359 239.38171 
L 286.402287 239.767325 
L 287.931744 240.037236 
L 292.520143 240.493551 
L 294.049615 240.692801 
L 298.638014 240.975586 
L 300.167471 241.181238 
L 304.75587 241.319426 
L 306.285342 241.470458 
L 307.814798 241.425463 
L 309.34427 241.615064 
L 316.991583 241.778944 
L 320.050525 241.865714 
L 327.697853 241.965331 
L 333.815709 242.036027 
L 338.404123 242.071375 
L 356.757692 242.097083 
L 368.993433 242.116364 
L 373.581818 242.116364 
L 373.581818 242.116364 
" style="fill:none;stroke:#1f77b4;stroke-linecap:square;stroke-width:1.5;"/>
   </g>
   <g id="line2d_20">
    <path clip-path="url(#p5fa205ce0d)" d="M 69.218182 242.045667 
L 70.747647 241.769306 
L 72.277113 241.145889 
L 73.806578 240.16256 
L 76.86551 237.353968 
L 79.924441 233.240698 
L 82.983371 227.989851 
L 86.042303 221.807092 
L 87.571767 218.400762 
L 89.101233 214.596015 
L 90.630699 210.232093 
L 92.160165 207.086084 
L 93.689631 201.449618 
L 95.219095 197.284878 
L 96.748561 193.608697 
L 99.807491 183.2419 
L 104.39589 167.659835 
L 105.925354 161.589363 
L 108.984286 152.578933 
L 110.51375 146.238492 
L 112.043218 141.183903 
L 113.572682 135.662876 
L 115.102146 130.913328 
L 116.631613 126.96743 
L 118.161077 120.691197 
L 119.690545 115.048601 
L 121.220009 110.105941 
L 122.749473 107.017771 
L 125.808405 98.126027 
L 128.867337 88.212391 
L 130.396801 86.123619 
L 131.926265 83.295742 
L 133.455736 79.183244 
L 134.9852 77.090481 
L 136.514664 72.864733 
L 138.044128 70.975198 
L 139.573592 67.845252 
L 141.103064 66.714938 
L 142.632528 64.214002 
L 144.161992 62.295544 
L 145.691456 62.665096 
L 147.22092 60.441357 
L 148.750391 59.429977 
L 150.279855 58.628945 
L 151.809319 57.247142 
L 153.338783 57.851279 
L 154.868247 56.87759 
L 156.397719 57.996764 
L 157.927183 58.738204 
L 159.456647 59.769736 
L 160.986111 59.573713 
L 162.515575 62.488354 
L 164.045046 64.038108 
L 165.57451 64.64461 
L 167.103974 67.260396 
L 168.633438 67.453206 
L 170.162903 69.956519 
L 171.692374 72.981226 
L 173.221838 75.252361 
L 174.751302 76.971581 
L 176.280766 80.782788 
L 177.81023 83.977003 
L 179.339701 84.678296 
L 180.869165 88.723337 
L 183.928094 95.992265 
L 185.457558 98.85549 
L 186.987029 102.374935 
L 191.575428 111.729378 
L 193.104885 115.902486 
L 194.634356 119.271417 
L 197.693285 126.694558 
L 199.222756 130.393275 
L 200.752213 133.351853 
L 202.281684 136.614574 
L 203.811141 139.557144 
L 205.340612 144.902141 
L 206.870083 146.579578 
L 208.39954 150.743378 
L 209.929012 153.475708 
L 211.458468 158.044476 
L 214.517411 163.353948 
L 216.046868 167.084084 
L 217.576339 169.845179 
L 219.105796 171.952553 
L 222.164739 178.878274 
L 223.694195 181.901585 
L 225.223667 184.167663 
L 226.753123 186.927517 
L 228.282595 189.412064 
L 229.812066 192.124242 
L 231.341523 194.331448 
L 232.870994 197.130845 
L 234.400451 198.833577 
L 235.929922 201.568662 
L 237.459394 203.586728 
L 238.98885 205.32487 
L 240.518322 207.320793 
L 242.047779 208.956138 
L 243.57725 211.443689 
L 245.106721 212.729081 
L 248.165649 216.292831 
L 249.695106 217.475157 
L 251.224577 218.898964 
L 252.754049 220.001188 
L 254.283506 221.54989 
L 255.812977 222.308468 
L 257.342434 223.593683 
L 258.871905 225.18132 
L 260.401376 226.3446 
L 261.930833 227.160681 
L 263.460304 227.819587 
L 264.989761 229.169126 
L 266.519233 229.606283 
L 268.048704 230.782417 
L 274.16656 233.276078 
L 275.696031 234.047313 
L 277.225488 234.378228 
L 278.75496 234.943874 
L 280.284416 235.74397 
L 281.813888 236.07502 
L 283.343359 236.6663 
L 284.872816 236.926543 
L 286.402287 237.514659 
L 289.461215 237.980614 
L 290.990687 238.244119 
L 292.520143 238.671479 
L 294.049615 238.816119 
L 300.167471 239.83477 
L 307.814798 240.660643 
L 309.34427 240.599601 
L 310.873726 240.824532 
L 315.46214 241.187668 
L 316.991583 241.29691 
L 318.521054 241.274432 
L 321.579997 241.476881 
L 323.109468 241.444746 
L 324.63891 241.608624 
L 350.639836 242.010319 
L 373.581818 242.109937 
L 373.581818 242.109937 
" style="fill:none;stroke:#ff7f0e;stroke-linecap:square;stroke-width:1.5;"/>
   </g>
   <g id="line2d_21">
    <path clip-path="url(#p5fa205ce0d)" d="M 69.218182 242.0778 
L 70.747647 241.791788 
L 72.277113 241.341882 
L 75.336044 239.381576 
L 76.86551 238.076849 
L 79.924441 234.635066 
L 81.453906 232.597628 
L 82.983371 230.103868 
L 84.512837 227.867191 
L 86.042303 224.833538 
L 87.571767 222.130863 
L 90.630699 215.658665 
L 92.160165 211.538809 
L 95.219095 204.044612 
L 98.278026 195.817801 
L 99.807491 190.740226 
L 101.336958 187.423901 
L 102.866422 183.15287 
L 104.39589 178.110854 
L 105.925354 173.685547 
L 107.454818 169.903117 
L 108.984286 164.109146 
L 110.51375 160.008382 
L 113.572682 150.370736 
L 115.102146 145.325354 
L 116.631613 141.848456 
L 118.161077 136.960302 
L 119.690545 132.461496 
L 121.220009 127.010935 
L 122.749473 124.475389 
L 124.278941 119.038238 
L 125.808405 114.214302 
L 127.337873 110.522167 
L 128.867337 107.395001 
L 131.926265 99.425224 
L 134.9852 93.512164 
L 136.514664 89.530489 
L 138.044128 87.959029 
L 139.573592 83.540302 
L 141.103064 82.17849 
L 142.632528 79.600405 
L 144.161992 77.694728 
L 145.691456 76.569961 
L 147.22092 74.850675 
L 148.750391 73.447127 
L 150.279855 71.399247 
L 151.809319 71.421743 
L 153.338783 70.650474 
L 154.868247 68.751225 
L 156.397719 69.156965 
L 157.927183 68.99546 
L 160.986111 68.041015 
L 162.515575 69.895273 
L 164.045046 70.660932 
L 165.57451 69.978827 
L 167.103974 71.312479 
L 168.633438 72.193011 
L 170.162903 73.224583 
L 171.692374 74.816123 
L 173.221838 76.971664 
L 174.751302 78.421006 
L 176.280766 78.784145 
L 177.81023 82.084533 
L 179.339701 82.522346 
L 180.869165 86.136907 
L 182.398629 88.302887 
L 183.928094 92.136735 
L 185.457558 94.06812 
L 188.516493 99.49271 
L 190.045957 102.818806 
L 191.575428 104.782983 
L 194.634356 111.11057 
L 196.163813 113.477769 
L 197.693285 117.810935 
L 199.222756 119.440232 
L 202.281684 127.107892 
L 203.811141 129.208513 
L 205.340612 134.029996 
L 206.870083 135.729993 
L 208.39954 139.263976 
L 209.929012 141.729792 
L 211.458468 144.874983 
L 212.98794 147.511066 
L 214.517411 150.87571 
L 217.576339 156.387041 
L 219.105796 159.664131 
L 220.635267 163.926157 
L 222.164739 165.989291 
L 223.694195 169.109004 
L 225.223667 171.738429 
L 226.753123 175.124929 
L 228.282595 176.915546 
L 229.812066 180.604763 
L 231.341523 182.204567 
L 232.870994 184.232923 
L 235.929922 189.326485 
L 237.459394 192.636498 
L 238.98885 194.001821 
L 240.518322 195.949724 
L 242.047779 198.565183 
L 243.57725 200.400566 
L 246.636178 204.870334 
L 248.165649 206.638172 
L 249.695106 208.186806 
L 251.224577 209.575406 
L 252.754049 211.465006 
L 254.283506 212.541281 
L 255.812977 213.900918 
L 257.342434 216.111629 
L 258.871905 216.536073 
L 260.401376 218.454595 
L 261.930833 219.653055 
L 263.460304 221.224722 
L 264.989761 222.468199 
L 266.519233 223.120748 
L 268.048704 224.435113 
L 269.578161 225.199789 
L 271.107632 226.257226 
L 272.637089 226.98657 
L 274.16656 228.603157 
L 275.696031 229.110907 
L 277.225488 230.126292 
L 278.75496 230.502398 
L 280.284416 231.411746 
L 281.813888 231.807121 
L 283.343359 232.449842 
L 284.872816 233.333499 
L 286.402287 233.924886 
L 289.461215 234.869686 
L 290.990687 235.634524 
L 292.520143 235.660171 
L 294.049615 236.351157 
L 295.579071 236.341462 
L 298.638014 237.36987 
L 301.696942 237.80692 
L 304.75587 238.619962 
L 306.285342 238.774215 
L 309.34427 239.359091 
L 310.873726 239.461901 
L 312.403198 239.773646 
L 316.991583 240.24601 
L 324.63891 240.863034 
L 329.227324 241.136214 
L 330.756796 241.287254 
L 332.286238 241.200469 
L 335.34518 241.409371 
L 336.874652 241.390089 
L 338.404123 241.582905 
L 339.933565 241.643955 
L 342.992508 241.608614 
L 346.051451 241.798217 
L 352.169307 241.852848 
L 355.22822 241.939612 
L 359.816634 241.920334 
L 364.405019 241.994247 
L 373.581818 242.071373 
L 373.581818 242.071373 
" style="fill:none;stroke:#2ca02c;stroke-linecap:square;stroke-width:1.5;"/>
   </g>
   <g id="patch_3">
    <path d="M 54 252 
L 54 34.56 
" style="fill:none;stroke:#000000;stroke-linecap:square;stroke-linejoin:miter;stroke-width:0.8;"/>
   </g>
   <g id="patch_4">
    <path d="M 388.8 252 
L 388.8 34.56 
" style="fill:none;stroke:#000000;stroke-linecap:square;stroke-linejoin:miter;stroke-width:0.8;"/>
   </g>
   <g id="patch_5">
    <path d="M 54 252 
L 388.8 252 
" style="fill:none;stroke:#000000;stroke-linecap:square;stroke-linejoin:miter;stroke-width:0.8;"/>
   </g>
   <g id="patch_6">
    <path d="M 54 34.56 
L 388.8 34.56 
" style="fill:none;stroke:#000000;stroke-linecap:square;stroke-linejoin:miter;stroke-width:0.8;"/>
   </g>
   <g id="text_21">
    <!-- velocity of O atoms in water at different temperatures -->
    <defs>
     <path d="M 37.109375 75.984375 
L 37.109375 68.5 
L 28.515625 68.5 
Q 23.6875 68.5 21.796875 66.546875 
Q 19.921875 64.59375 19.921875 59.515625 
L 19.921875 54.6875 
L 34.71875 54.6875 
L 34.71875 47.703125 
L 19.921875 47.703125 
L 19.921875 0 
L 10.890625 0 
L 10.890625 47.703125 
L 2.296875 47.703125 
L 2.296875 54.6875 
L 10.890625 54.6875 
L 10.890625 58.5 
Q 10.890625 67.625 15.140625 71.796875 
Q 19.390625 75.984375 28.609375 75.984375 
z
" id="DejaVuSans-102"/>
     <path d="M 39.40625 66.21875 
Q 28.65625 66.21875 22.328125 58.203125 
Q 16.015625 50.203125 16.015625 36.375 
Q 16.015625 22.609375 22.328125 14.59375 
Q 28.65625 6.59375 39.40625 6.59375 
Q 50.140625 6.59375 56.421875 14.59375 
Q 62.703125 22.609375 62.703125 36.375 
Q 62.703125 50.203125 56.421875 58.203125 
Q 50.140625 66.21875 39.40625 66.21875 
z
M 39.40625 74.21875 
Q 54.734375 74.21875 63.90625 63.9375 
Q 73.09375 53.65625 73.09375 36.375 
Q 73.09375 19.140625 63.90625 8.859375 
Q 54.734375 -1.421875 39.40625 -1.421875 
Q 24.03125 -1.421875 14.8125 8.828125 
Q 5.609375 19.09375 5.609375 36.375 
Q 5.609375 53.65625 14.8125 63.9375 
Q 24.03125 74.21875 39.40625 74.21875 
z
" id="DejaVuSans-79"/>
     <path d="M 52 44.1875 
Q 55.375 50.25 60.0625 53.125 
Q 64.75 56 71.09375 56 
Q 79.640625 56 84.28125 50.015625 
Q 88.921875 44.046875 88.921875 33.015625 
L 88.921875 0 
L 79.890625 0 
L 79.890625 32.71875 
Q 79.890625 40.578125 77.09375 44.375 
Q 74.3125 48.1875 68.609375 48.1875 
Q 61.625 48.1875 57.5625 43.546875 
Q 53.515625 38.921875 53.515625 30.90625 
L 53.515625 0 
L 44.484375 0 
L 44.484375 32.71875 
Q 44.484375 40.625 41.703125 44.40625 
Q 38.921875 48.1875 33.109375 48.1875 
Q 26.21875 48.1875 22.15625 43.53125 
Q 18.109375 38.875 18.109375 30.90625 
L 18.109375 0 
L 9.078125 0 
L 9.078125 54.6875 
L 18.109375 54.6875 
L 18.109375 46.1875 
Q 21.1875 51.21875 25.484375 53.609375 
Q 29.78125 56 35.6875 56 
Q 41.65625 56 45.828125 52.96875 
Q 50 49.953125 52 44.1875 
z
" id="DejaVuSans-109"/>
     <path d="M 4.203125 54.6875 
L 13.1875 54.6875 
L 24.421875 12.015625 
L 35.59375 54.6875 
L 46.1875 54.6875 
L 57.421875 12.015625 
L 68.609375 54.6875 
L 77.59375 54.6875 
L 63.28125 0 
L 52.6875 0 
L 40.921875 44.828125 
L 29.109375 0 
L 18.5 0 
z
" id="DejaVuSans-119"/>
     <path d="M 8.5 21.578125 
L 8.5 54.6875 
L 17.484375 54.6875 
L 17.484375 21.921875 
Q 17.484375 14.15625 20.5 10.265625 
Q 23.53125 6.390625 29.59375 6.390625 
Q 36.859375 6.390625 41.078125 11.03125 
Q 45.3125 15.671875 45.3125 23.6875 
L 45.3125 54.6875 
L 54.296875 54.6875 
L 54.296875 0 
L 45.3125 0 
L 45.3125 8.40625 
Q 42.046875 3.421875 37.71875 1 
Q 33.40625 -1.421875 27.6875 -1.421875 
Q 18.265625 -1.421875 13.375 4.4375 
Q 8.5 10.296875 8.5 21.578125 
z
M 31.109375 56 
z
" id="DejaVuSans-117"/>
    </defs>
    <g transform="translate(58.251563 28.56)scale(0.12 -0.12)">
     <use xlink:href="#DejaVuSans-118"/>
     <use x="59.179688" xlink:href="#DejaVuSans-101"/>
     <use x="120.703125" xlink:href="#DejaVuSans-108"/>
     <use x="148.486328" xlink:href="#DejaVuSans-111"/>
     <use x="209.667969" xlink:href="#DejaVuSans-99"/>
     <use x="264.648438" xlink:href="#DejaVuSans-105"/>
     <use x="292.431641" xlink:href="#DejaVuSans-116"/>
     <use x="331.640625" xlink:href="#DejaVuSans-121"/>
     <use x="390.820312" xlink:href="#DejaVuSans-32"/>
     <use x="422.607422" xlink:href="#DejaVuSans-111"/>
     <use x="483.789062" xlink:href="#DejaVuSans-102"/>
     <use x="518.994141" xlink:href="#DejaVuSans-32"/>
     <use x="550.78125" xlink:href="#DejaVuSans-79"/>
     <use x="629.492188" xlink:href="#DejaVuSans-32"/>
     <use x="661.279297" xlink:href="#DejaVuSans-97"/>
     <use x="722.558594" xlink:href="#DejaVuSans-116"/>
     <use x="761.767578" xlink:href="#DejaVuSans-111"/>
     <use x="822.949219" xlink:href="#DejaVuSans-109"/>
     <use x="920.361328" xlink:href="#DejaVuSans-115"/>
     <use x="972.460938" xlink:href="#DejaVuSans-32"/>
     <use x="1004.248047" xlink:href="#DejaVuSans-105"/>
     <use x="1032.03125" xlink:href="#DejaVuSans-110"/>
     <use x="1095.410156" xlink:href="#DejaVuSans-32"/>
     <use x="1127.197266" xlink:href="#DejaVuSans-119"/>
     <use x="1208.984375" xlink:href="#DejaVuSans-97"/>
     <use x="1270.263672" xlink:href="#DejaVuSans-116"/>
     <use x="1309.472656" xlink:href="#DejaVuSans-101"/>
     <use x="1370.996094" xlink:href="#DejaVuSans-114"/>
     <use x="1412.109375" xlink:href="#DejaVuSans-32"/>
     <use x="1443.896484" xlink:href="#DejaVuSans-97"/>
     <use x="1505.175781" xlink:href="#DejaVuSans-116"/>
     <use x="1544.384766" xlink:href="#DejaVuSans-32"/>
     <use x="1576.171875" xlink:href="#DejaVuSans-100"/>
     <use x="1639.648438" xlink:href="#DejaVuSans-105"/>
     <use x="1667.431641" xlink:href="#DejaVuSans-102"/>
     <use x="1702.636719" xlink:href="#DejaVuSans-102"/>
     <use x="1737.841797" xlink:href="#DejaVuSans-101"/>
     <use x="1799.365234" xlink:href="#DejaVuSans-114"/>
     <use x="1840.447266" xlink:href="#DejaVuSans-101"/>
     <use x="1901.970703" xlink:href="#DejaVuSans-110"/>
     <use x="1965.349609" xlink:href="#DejaVuSans-116"/>
     <use x="2004.558594" xlink:href="#DejaVuSans-32"/>
     <use x="2036.345703" xlink:href="#DejaVuSans-116"/>
     <use x="2075.554688" xlink:href="#DejaVuSans-101"/>
     <use x="2137.078125" xlink:href="#DejaVuSans-109"/>
     <use x="2234.490234" xlink:href="#DejaVuSans-112"/>
     <use x="2297.966797" xlink:href="#DejaVuSans-101"/>
     <use x="2359.490234" xlink:href="#DejaVuSans-114"/>
     <use x="2400.603516" xlink:href="#DejaVuSans-97"/>
     <use x="2461.882812" xlink:href="#DejaVuSans-116"/>
     <use x="2501.091797" xlink:href="#DejaVuSans-117"/>
     <use x="2564.470703" xlink:href="#DejaVuSans-114"/>
     <use x="2605.552734" xlink:href="#DejaVuSans-101"/>
     <use x="2667.076172" xlink:href="#DejaVuSans-115"/>
    </g>
   </g>
   <g id="legend_1">
    <g id="patch_7">
     <path d="M 264.665938 107.408125 
L 379 107.408125 
Q 381.8 107.408125 381.8 104.608125 
L 381.8 44.36 
Q 381.8 41.56 379 41.56 
L 264.665938 41.56 
Q 261.865938 41.56 261.865938 44.36 
L 261.865938 104.608125 
Q 261.865938 107.408125 264.665938 107.408125 
z
" style="fill:#ffffff;opacity:0.8;stroke:#cccccc;stroke-linejoin:miter;"/>
    </g>
    <g id="line2d_22">
     <path d="M 267.465938 52.897813 
L 295.465938 52.897813 
" style="fill:none;stroke:#1f77b4;stroke-linecap:square;stroke-width:1.5;"/>
    </g>
    <g id="line2d_23"/>
    <g id="text_22">
     <!-- T = 280 K -->
     <defs>
      <path d="M -0.296875 72.90625 
L 61.375 72.90625 
L 61.375 64.59375 
L 35.5 64.59375 
L 35.5 0 
L 25.59375 0 
L 25.59375 64.59375 
L -0.296875 64.59375 
z
" id="DejaVuSans-84"/>
      <path d="M 10.59375 45.40625 
L 73.1875 45.40625 
L 73.1875 37.203125 
L 10.59375 37.203125 
z
M 10.59375 25.484375 
L 73.1875 25.484375 
L 73.1875 17.1875 
L 10.59375 17.1875 
z
" id="DejaVuSans-61"/>
      <path d="M 9.8125 72.90625 
L 19.671875 72.90625 
L 19.671875 42.09375 
L 52.390625 72.90625 
L 65.09375 72.90625 
L 28.90625 38.921875 
L 67.671875 0 
L 54.6875 0 
L 19.671875 35.109375 
L 19.671875 0 
L 9.8125 0 
z
" id="DejaVuSans-75"/>
     </defs>
     <g transform="translate(306.665938 57.797813)scale(0.14 -0.14)">
      <use xlink:href="#DejaVuSans-84"/>
      <use x="61.083984" xlink:href="#DejaVuSans-32"/>
      <use x="92.871094" xlink:href="#DejaVuSans-61"/>
      <use x="176.660156" xlink:href="#DejaVuSans-32"/>
      <use x="208.447266" xlink:href="#DejaVuSans-50"/>
      <use x="272.070312" xlink:href="#DejaVuSans-56"/>
      <use x="335.693359" xlink:href="#DejaVuSans-48"/>
      <use x="399.316406" xlink:href="#DejaVuSans-32"/>
      <use x="431.103516" xlink:href="#DejaVuSans-75"/>
     </g>
    </g>
    <g id="line2d_24">
     <path d="M 267.465938 73.447188 
L 295.465938 73.447188 
" style="fill:none;stroke:#ff7f0e;stroke-linecap:square;stroke-width:1.5;"/>
    </g>
    <g id="line2d_25"/>
    <g id="text_23">
     <!-- T = 320 K -->
     <defs>
      <path d="M 40.578125 39.3125 
Q 47.65625 37.796875 51.625 33 
Q 55.609375 28.21875 55.609375 21.1875 
Q 55.609375 10.40625 48.1875 4.484375 
Q 40.765625 -1.421875 27.09375 -1.421875 
Q 22.515625 -1.421875 17.65625 -0.515625 
Q 12.796875 0.390625 7.625 2.203125 
L 7.625 11.71875 
Q 11.71875 9.328125 16.59375 8.109375 
Q 21.484375 6.890625 26.8125 6.890625 
Q 36.078125 6.890625 40.9375 10.546875 
Q 45.796875 14.203125 45.796875 21.1875 
Q 45.796875 27.640625 41.28125 31.265625 
Q 36.765625 34.90625 28.71875 34.90625 
L 20.21875 34.90625 
L 20.21875 43.015625 
L 29.109375 43.015625 
Q 36.375 43.015625 40.234375 45.921875 
Q 44.09375 48.828125 44.09375 54.296875 
Q 44.09375 59.90625 40.109375 62.90625 
Q 36.140625 65.921875 28.71875 65.921875 
Q 24.65625 65.921875 20.015625 65.03125 
Q 15.375 64.15625 9.8125 62.3125 
L 9.8125 71.09375 
Q 15.4375 72.65625 20.34375 73.4375 
Q 25.25 74.21875 29.59375 74.21875 
Q 40.828125 74.21875 47.359375 69.109375 
Q 53.90625 64.015625 53.90625 55.328125 
Q 53.90625 49.265625 50.4375 45.09375 
Q 46.96875 40.921875 40.578125 39.3125 
z
" id="DejaVuSans-51"/>
     </defs>
     <g transform="translate(306.665938 78.347188)scale(0.14 -0.14)">
      <use xlink:href="#DejaVuSans-84"/>
      <use x="61.083984" xlink:href="#DejaVuSans-32"/>
      <use x="92.871094" xlink:href="#DejaVuSans-61"/>
      <use x="176.660156" xlink:href="#DejaVuSans-32"/>
      <use x="208.447266" xlink:href="#DejaVuSans-51"/>
      <use x="272.070312" xlink:href="#DejaVuSans-50"/>
      <use x="335.693359" xlink:href="#DejaVuSans-48"/>
      <use x="399.316406" xlink:href="#DejaVuSans-32"/>
      <use x="431.103516" xlink:href="#DejaVuSans-75"/>
     </g>
    </g>
    <g id="line2d_26">
     <path d="M 267.465938 93.996563 
L 295.465938 93.996563 
" style="fill:none;stroke:#2ca02c;stroke-linecap:square;stroke-width:1.5;"/>
    </g>
    <g id="line2d_27"/>
    <g id="text_24">
     <!-- T = 360 K -->
     <g transform="translate(306.665938 98.896563)scale(0.14 -0.14)">
      <use xlink:href="#DejaVuSans-84"/>
      <use x="61.083984" xlink:href="#DejaVuSans-32"/>
      <use x="92.871094" xlink:href="#DejaVuSans-61"/>
      <use x="176.660156" xlink:href="#DejaVuSans-32"/>
      <use x="208.447266" xlink:href="#DejaVuSans-51"/>
      <use x="272.070312" xlink:href="#DejaVuSans-54"/>
      <use x="335.693359" xlink:href="#DejaVuSans-48"/>
      <use x="399.316406" xlink:href="#DejaVuSans-32"/>
      <use x="431.103516" xlink:href="#DejaVuSans-75"/>
     </g>
    </g>
   </g>
  </g>
  <g id="text_25">
   <!-- Maxwell-Boltzmann distibutions -->
   <defs>
    <path d="M 9.8125 72.90625 
L 24.515625 72.90625 
L 43.109375 23.296875 
L 61.8125 72.90625 
L 76.515625 72.90625 
L 76.515625 0 
L 66.890625 0 
L 66.890625 64.015625 
L 48.09375 14.015625 
L 38.1875 14.015625 
L 19.390625 64.015625 
L 19.390625 0 
L 9.8125 0 
z
" id="DejaVuSans-77"/>
    <path d="M 54.890625 54.6875 
L 35.109375 28.078125 
L 55.90625 0 
L 45.3125 0 
L 29.390625 21.484375 
L 13.484375 0 
L 2.875 0 
L 24.125 28.609375 
L 4.6875 54.6875 
L 15.28125 54.6875 
L 29.78125 35.203125 
L 44.28125 54.6875 
z
" id="DejaVuSans-120"/>
    <path d="M 4.890625 31.390625 
L 31.203125 31.390625 
L 31.203125 23.390625 
L 4.890625 23.390625 
z
" id="DejaVuSans-45"/>
    <path d="M 19.671875 34.8125 
L 19.671875 8.109375 
L 35.5 8.109375 
Q 43.453125 8.109375 47.28125 11.40625 
Q 51.125 14.703125 51.125 21.484375 
Q 51.125 28.328125 47.28125 31.5625 
Q 43.453125 34.8125 35.5 34.8125 
z
M 19.671875 64.796875 
L 19.671875 42.828125 
L 34.28125 42.828125 
Q 41.5 42.828125 45.03125 45.53125 
Q 48.578125 48.25 48.578125 53.8125 
Q 48.578125 59.328125 45.03125 62.0625 
Q 41.5 64.796875 34.28125 64.796875 
z
M 9.8125 72.90625 
L 35.015625 72.90625 
Q 46.296875 72.90625 52.390625 68.21875 
Q 58.5 63.53125 58.5 54.890625 
Q 58.5 48.1875 55.375 44.234375 
Q 52.25 40.28125 46.1875 39.3125 
Q 53.46875 37.75 57.5 32.78125 
Q 61.53125 27.828125 61.53125 20.40625 
Q 61.53125 10.640625 54.890625 5.3125 
Q 48.25 0 35.984375 0 
L 9.8125 0 
z
" id="DejaVuSans-66"/>
    <path d="M 5.515625 54.6875 
L 48.1875 54.6875 
L 48.1875 46.484375 
L 14.40625 7.171875 
L 48.1875 7.171875 
L 48.1875 0 
L 4.296875 0 
L 4.296875 8.203125 
L 38.09375 47.515625 
L 5.515625 47.515625 
z
" id="DejaVuSans-122"/>
   </defs>
   <g transform="translate(88.88125 17.9175)scale(0.16 -0.16)">
    <use xlink:href="#DejaVuSans-77"/>
    <use x="86.279297" xlink:href="#DejaVuSans-97"/>
    <use x="147.558594" xlink:href="#DejaVuSans-120"/>
    <use x="206.738281" xlink:href="#DejaVuSans-119"/>
    <use x="288.525391" xlink:href="#DejaVuSans-101"/>
    <use x="350.048828" xlink:href="#DejaVuSans-108"/>
    <use x="377.832031" xlink:href="#DejaVuSans-108"/>
    <use x="405.615234" xlink:href="#DejaVuSans-45"/>
    <use x="441.652344" xlink:href="#DejaVuSans-66"/>
    <use x="510.255859" xlink:href="#DejaVuSans-111"/>
    <use x="571.4375" xlink:href="#DejaVuSans-108"/>
    <use x="599.220703" xlink:href="#DejaVuSans-116"/>
    <use x="638.429688" xlink:href="#DejaVuSans-122"/>
    <use x="690.919922" xlink:href="#DejaVuSans-109"/>
    <use x="788.332031" xlink:href="#DejaVuSans-97"/>
    <use x="849.611328" xlink:href="#DejaVuSans-110"/>
    <use x="912.990234" xlink:href="#DejaVuSans-110"/>
    <use x="976.369141" xlink:href="#DejaVuSans-32"/>
    <use x="1008.15625" xlink:href="#DejaVuSans-100"/>
    <use x="1071.632812" xlink:href="#DejaVuSans-105"/>
    <use x="1099.416016" xlink:href="#DejaVuSans-115"/>
    <use x="1151.515625" xlink:href="#DejaVuSans-116"/>
    <use x="1190.724609" xlink:href="#DejaVuSans-105"/>
    <use x="1218.507812" xlink:href="#DejaVuSans-98"/>
    <use x="1281.984375" xlink:href="#DejaVuSans-117"/>
    <use x="1345.363281" xlink:href="#DejaVuSans-116"/>
    <use x="1384.572266" xlink:href="#DejaVuSans-105"/>
    <use x="1412.355469" xlink:href="#DejaVuSans-111"/>
    <use x="1473.537109" xlink:href="#DejaVuSans-110"/>
    <use x="1536.916016" xlink:href="#DejaVuSans-115"/>
   </g>
  </g>
 </g>
 <defs>
  <clipPath id="p5fa205ce0d">
   <rect height="217.44" width="334.8" x="54" y="34.56"/>
  </clipPath>
 </defs>
</svg>
