<?xml version="1.0" encoding="utf-8" standalone="no"?>
<!DOCTYPE svg PUBLIC "-//W3C//DTD SVG 1.1//EN"
  "http://www.w3.org/Graphics/SVG/1.1/DTD/svg11.dtd">
<!-- Created with matplotlib (https://matplotlib.org/) -->
<svg height="309.6pt" version="1.1" viewBox="0 0 900 309.6" width="900pt" xmlns="http://www.w3.org/2000/svg" xmlns:xlink="http://www.w3.org/1999/xlink">
 <metadata>
  <rdf:RDF xmlns:cc="http://creativecommons.org/ns#" xmlns:dc="http://purl.org/dc/elements/1.1/" xmlns:rdf="http://www.w3.org/1999/02/22-rdf-syntax-ns#">
   <cc:Work>
    <dc:type rdf:resource="http://purl.org/dc/dcmitype/StillImage"/>
    <dc:date>2021-03-12T10:45:23.228816</dc:date>
    <dc:format>image/svg+xml</dc:format>
    <dc:creator>
     <cc:Agent>
      <dc:title>Matplotlib v3.3.1, https://matplotlib.org/</dc:title>
     </cc:Agent>
    </dc:creator>
   </cc:Work>
  </rdf:RDF>
 </metadata>
 <defs>
  <style type="text/css">*{stroke-linecap:butt;stroke-linejoin:round;}</style>
 </defs>
 <g id="figure_1">
  <g id="patch_1">
   <path d="M 0 309.6 
L 900 309.6 
L 900 0 
L 0 0 
z
" style="fill:#ffffff;"/>
  </g>
  <g id="axes_1">
   <g id="patch_2">
    <path d="M 112.5 275.544 
L 429.545455 275.544 
L 429.545455 37.152 
L 112.5 37.152 
z
" style="fill:#ffffff;"/>
   </g>
   <g id="matplotlib.axis_1">
    <g id="xtick_1">
     <g id="line2d_1">
      <defs>
       <path d="M 0 0 
L 0 3.5 
" id="m274a7f01e7" style="stroke:#000000;stroke-width:0.8;"/>
      </defs>
      <g>
       <use style="stroke:#000000;stroke-width:0.8;" x="126.911157" xlink:href="#m274a7f01e7" y="275.544"/>
      </g>
     </g>
     <g id="text_1">
      <!-- 0 -->
      <g transform="translate(123.729907 290.142437)scale(0.1 -0.1)">
       <defs>
        <path d="M 31.78125 66.40625 
Q 24.171875 66.40625 20.328125 58.90625 
Q 16.5 51.421875 16.5 36.375 
Q 16.5 21.390625 20.328125 13.890625 
Q 24.171875 6.390625 31.78125 6.390625 
Q 39.453125 6.390625 43.28125 13.890625 
Q 47.125 21.390625 47.125 36.375 
Q 47.125 51.421875 43.28125 58.90625 
Q 39.453125 66.40625 31.78125 66.40625 
z
M 31.78125 74.21875 
Q 44.046875 74.21875 50.515625 64.515625 
Q 56.984375 54.828125 56.984375 36.375 
Q 56.984375 17.96875 50.515625 8.265625 
Q 44.046875 -1.421875 31.78125 -1.421875 
Q 19.53125 -1.421875 13.0625 8.265625 
Q 6.59375 17.96875 6.59375 36.375 
Q 6.59375 54.828125 13.0625 64.515625 
Q 19.53125 74.21875 31.78125 74.21875 
z
" id="DejaVuSans-48"/>
       </defs>
       <use xlink:href="#DejaVuSans-48"/>
      </g>
     </g>
    </g>
    <g id="xtick_2">
     <g id="line2d_2">
      <g>
       <use style="stroke:#000000;stroke-width:0.8;" x="162.984141" xlink:href="#m274a7f01e7" y="275.544"/>
      </g>
     </g>
     <g id="text_2">
      <!-- 1 -->
      <g transform="translate(159.802891 290.142437)scale(0.1 -0.1)">
       <defs>
        <path d="M 12.40625 8.296875 
L 28.515625 8.296875 
L 28.515625 63.921875 
L 10.984375 60.40625 
L 10.984375 69.390625 
L 28.421875 72.90625 
L 38.28125 72.90625 
L 38.28125 8.296875 
L 54.390625 8.296875 
L 54.390625 0 
L 12.40625 0 
z
" id="DejaVuSans-49"/>
       </defs>
       <use xlink:href="#DejaVuSans-49"/>
      </g>
     </g>
    </g>
    <g id="xtick_3">
     <g id="line2d_3">
      <g>
       <use style="stroke:#000000;stroke-width:0.8;" x="199.057125" xlink:href="#m274a7f01e7" y="275.544"/>
      </g>
     </g>
     <g id="text_3">
      <!-- 2 -->
      <g transform="translate(195.875875 290.142437)scale(0.1 -0.1)">
       <defs>
        <path d="M 19.1875 8.296875 
L 53.609375 8.296875 
L 53.609375 0 
L 7.328125 0 
L 7.328125 8.296875 
Q 12.9375 14.109375 22.625 23.890625 
Q 32.328125 33.6875 34.8125 36.53125 
Q 39.546875 41.84375 41.421875 45.53125 
Q 43.3125 49.21875 43.3125 52.78125 
Q 43.3125 58.59375 39.234375 62.25 
Q 35.15625 65.921875 28.609375 65.921875 
Q 23.96875 65.921875 18.8125 64.3125 
Q 13.671875 62.703125 7.8125 59.421875 
L 7.8125 69.390625 
Q 13.765625 71.78125 18.9375 73 
Q 24.125 74.21875 28.421875 74.21875 
Q 39.75 74.21875 46.484375 68.546875 
Q 53.21875 62.890625 53.21875 53.421875 
Q 53.21875 48.921875 51.53125 44.890625 
Q 49.859375 40.875 45.40625 35.40625 
Q 44.1875 33.984375 37.640625 27.21875 
Q 31.109375 20.453125 19.1875 8.296875 
z
" id="DejaVuSans-50"/>
       </defs>
       <use xlink:href="#DejaVuSans-50"/>
      </g>
     </g>
    </g>
    <g id="xtick_4">
     <g id="line2d_4">
      <g>
       <use style="stroke:#000000;stroke-width:0.8;" x="235.130108" xlink:href="#m274a7f01e7" y="275.544"/>
      </g>
     </g>
     <g id="text_4">
      <!-- 3 -->
      <g transform="translate(231.948858 290.142437)scale(0.1 -0.1)">
       <defs>
        <path d="M 40.578125 39.3125 
Q 47.65625 37.796875 51.625 33 
Q 55.609375 28.21875 55.609375 21.1875 
Q 55.609375 10.40625 48.1875 4.484375 
Q 40.765625 -1.421875 27.09375 -1.421875 
Q 22.515625 -1.421875 17.65625 -0.515625 
Q 12.796875 0.390625 7.625 2.203125 
L 7.625 11.71875 
Q 11.71875 9.328125 16.59375 8.109375 
Q 21.484375 6.890625 26.8125 6.890625 
Q 36.078125 6.890625 40.9375 10.546875 
Q 45.796875 14.203125 45.796875 21.1875 
Q 45.796875 27.640625 41.28125 31.265625 
Q 36.765625 34.90625 28.71875 34.90625 
L 20.21875 34.90625 
L 20.21875 43.015625 
L 29.109375 43.015625 
Q 36.375 43.015625 40.234375 45.921875 
Q 44.09375 48.828125 44.09375 54.296875 
Q 44.09375 59.90625 40.109375 62.90625 
Q 36.140625 65.921875 28.71875 65.921875 
Q 24.65625 65.921875 20.015625 65.03125 
Q 15.375 64.15625 9.8125 62.3125 
L 9.8125 71.09375 
Q 15.4375 72.65625 20.34375 73.4375 
Q 25.25 74.21875 29.59375 74.21875 
Q 40.828125 74.21875 47.359375 69.109375 
Q 53.90625 64.015625 53.90625 55.328125 
Q 53.90625 49.265625 50.4375 45.09375 
Q 46.96875 40.921875 40.578125 39.3125 
z
" id="DejaVuSans-51"/>
       </defs>
       <use xlink:href="#DejaVuSans-51"/>
      </g>
     </g>
    </g>
    <g id="xtick_5">
     <g id="line2d_5">
      <g>
       <use style="stroke:#000000;stroke-width:0.8;" x="271.203092" xlink:href="#m274a7f01e7" y="275.544"/>
      </g>
     </g>
     <g id="text_5">
      <!-- 4 -->
      <g transform="translate(268.021842 290.142437)scale(0.1 -0.1)">
       <defs>
        <path d="M 37.796875 64.3125 
L 12.890625 25.390625 
L 37.796875 25.390625 
z
M 35.203125 72.90625 
L 47.609375 72.90625 
L 47.609375 25.390625 
L 58.015625 25.390625 
L 58.015625 17.1875 
L 47.609375 17.1875 
L 47.609375 0 
L 37.796875 0 
L 37.796875 17.1875 
L 4.890625 17.1875 
L 4.890625 26.703125 
z
" id="DejaVuSans-52"/>
       </defs>
       <use xlink:href="#DejaVuSans-52"/>
      </g>
     </g>
    </g>
    <g id="xtick_6">
     <g id="line2d_6">
      <g>
       <use style="stroke:#000000;stroke-width:0.8;" x="307.276076" xlink:href="#m274a7f01e7" y="275.544"/>
      </g>
     </g>
     <g id="text_6">
      <!-- 5 -->
      <g transform="translate(304.094826 290.142437)scale(0.1 -0.1)">
       <defs>
        <path d="M 10.796875 72.90625 
L 49.515625 72.90625 
L 49.515625 64.59375 
L 19.828125 64.59375 
L 19.828125 46.734375 
Q 21.96875 47.46875 24.109375 47.828125 
Q 26.265625 48.1875 28.421875 48.1875 
Q 40.625 48.1875 47.75 41.5 
Q 54.890625 34.8125 54.890625 23.390625 
Q 54.890625 11.625 47.5625 5.09375 
Q 40.234375 -1.421875 26.90625 -1.421875 
Q 22.3125 -1.421875 17.546875 -0.640625 
Q 12.796875 0.140625 7.71875 1.703125 
L 7.71875 11.625 
Q 12.109375 9.234375 16.796875 8.0625 
Q 21.484375 6.890625 26.703125 6.890625 
Q 35.15625 6.890625 40.078125 11.328125 
Q 45.015625 15.765625 45.015625 23.390625 
Q 45.015625 31 40.078125 35.4375 
Q 35.15625 39.890625 26.703125 39.890625 
Q 22.75 39.890625 18.8125 39.015625 
Q 14.890625 38.140625 10.796875 36.28125 
z
" id="DejaVuSans-53"/>
       </defs>
       <use xlink:href="#DejaVuSans-53"/>
      </g>
     </g>
    </g>
    <g id="xtick_7">
     <g id="line2d_7">
      <g>
       <use style="stroke:#000000;stroke-width:0.8;" x="343.34906" xlink:href="#m274a7f01e7" y="275.544"/>
      </g>
     </g>
     <g id="text_7">
      <!-- 6 -->
      <g transform="translate(340.16781 290.142437)scale(0.1 -0.1)">
       <defs>
        <path d="M 33.015625 40.375 
Q 26.375 40.375 22.484375 35.828125 
Q 18.609375 31.296875 18.609375 23.390625 
Q 18.609375 15.53125 22.484375 10.953125 
Q 26.375 6.390625 33.015625 6.390625 
Q 39.65625 6.390625 43.53125 10.953125 
Q 47.40625 15.53125 47.40625 23.390625 
Q 47.40625 31.296875 43.53125 35.828125 
Q 39.65625 40.375 33.015625 40.375 
z
M 52.59375 71.296875 
L 52.59375 62.3125 
Q 48.875 64.0625 45.09375 64.984375 
Q 41.3125 65.921875 37.59375 65.921875 
Q 27.828125 65.921875 22.671875 59.328125 
Q 17.53125 52.734375 16.796875 39.40625 
Q 19.671875 43.65625 24.015625 45.921875 
Q 28.375 48.1875 33.59375 48.1875 
Q 44.578125 48.1875 50.953125 41.515625 
Q 57.328125 34.859375 57.328125 23.390625 
Q 57.328125 12.15625 50.6875 5.359375 
Q 44.046875 -1.421875 33.015625 -1.421875 
Q 20.359375 -1.421875 13.671875 8.265625 
Q 6.984375 17.96875 6.984375 36.375 
Q 6.984375 53.65625 15.1875 63.9375 
Q 23.390625 74.21875 37.203125 74.21875 
Q 40.921875 74.21875 44.703125 73.484375 
Q 48.484375 72.75 52.59375 71.296875 
z
" id="DejaVuSans-54"/>
       </defs>
       <use xlink:href="#DejaVuSans-54"/>
      </g>
     </g>
    </g>
    <g id="xtick_8">
     <g id="line2d_8">
      <g>
       <use style="stroke:#000000;stroke-width:0.8;" x="379.422044" xlink:href="#m274a7f01e7" y="275.544"/>
      </g>
     </g>
     <g id="text_8">
      <!-- 7 -->
      <g transform="translate(376.240794 290.142437)scale(0.1 -0.1)">
       <defs>
        <path d="M 8.203125 72.90625 
L 55.078125 72.90625 
L 55.078125 68.703125 
L 28.609375 0 
L 18.3125 0 
L 43.21875 64.59375 
L 8.203125 64.59375 
z
" id="DejaVuSans-55"/>
       </defs>
       <use xlink:href="#DejaVuSans-55"/>
      </g>
     </g>
    </g>
    <g id="xtick_9">
     <g id="line2d_9">
      <g>
       <use style="stroke:#000000;stroke-width:0.8;" x="415.495027" xlink:href="#m274a7f01e7" y="275.544"/>
      </g>
     </g>
     <g id="text_9">
      <!-- 8 -->
      <g transform="translate(412.313777 290.142437)scale(0.1 -0.1)">
       <defs>
        <path d="M 31.78125 34.625 
Q 24.75 34.625 20.71875 30.859375 
Q 16.703125 27.09375 16.703125 20.515625 
Q 16.703125 13.921875 20.71875 10.15625 
Q 24.75 6.390625 31.78125 6.390625 
Q 38.8125 6.390625 42.859375 10.171875 
Q 46.921875 13.96875 46.921875 20.515625 
Q 46.921875 27.09375 42.890625 30.859375 
Q 38.875 34.625 31.78125 34.625 
z
M 21.921875 38.8125 
Q 15.578125 40.375 12.03125 44.71875 
Q 8.5 49.078125 8.5 55.328125 
Q 8.5 64.0625 14.71875 69.140625 
Q 20.953125 74.21875 31.78125 74.21875 
Q 42.671875 74.21875 48.875 69.140625 
Q 55.078125 64.0625 55.078125 55.328125 
Q 55.078125 49.078125 51.53125 44.71875 
Q 48 40.375 41.703125 38.8125 
Q 48.828125 37.15625 52.796875 32.3125 
Q 56.78125 27.484375 56.78125 20.515625 
Q 56.78125 9.90625 50.3125 4.234375 
Q 43.84375 -1.421875 31.78125 -1.421875 
Q 19.734375 -1.421875 13.25 4.234375 
Q 6.78125 9.90625 6.78125 20.515625 
Q 6.78125 27.484375 10.78125 32.3125 
Q 14.796875 37.15625 21.921875 38.8125 
z
M 18.3125 54.390625 
Q 18.3125 48.734375 21.84375 45.5625 
Q 25.390625 42.390625 31.78125 42.390625 
Q 38.140625 42.390625 41.71875 45.5625 
Q 45.3125 48.734375 45.3125 54.390625 
Q 45.3125 60.0625 41.71875 63.234375 
Q 38.140625 66.40625 31.78125 66.40625 
Q 25.390625 66.40625 21.84375 63.234375 
Q 18.3125 60.0625 18.3125 54.390625 
z
" id="DejaVuSans-56"/>
       </defs>
       <use xlink:href="#DejaVuSans-56"/>
      </g>
     </g>
    </g>
    <g id="text_10">
     <!-- v, $[ \AA / ps ]$ -->
     <g transform="translate(250.072727 305.522125)scale(0.1 -0.1)">
      <defs>
       <path d="M 2.984375 54.6875 
L 12.5 54.6875 
L 29.59375 8.796875 
L 46.6875 54.6875 
L 56.203125 54.6875 
L 35.6875 0 
L 23.484375 0 
z
" id="DejaVuSans-118"/>
       <path d="M 11.71875 12.40625 
L 22.015625 12.40625 
L 22.015625 4 
L 14.015625 -11.625 
L 7.71875 -11.625 
L 11.71875 4 
z
" id="DejaVuSans-44"/>
       <path id="DejaVuSans-32"/>
       <path d="M 8.59375 75.984375 
L 29.296875 75.984375 
L 29.296875 69 
L 17.578125 69 
L 17.578125 -6.203125 
L 29.296875 -6.203125 
L 29.296875 -13.1875 
L 8.59375 -13.1875 
z
" id="DejaVuSans-91"/>
       <path d="M 49.8125 79.390625 
Q 49.8125 82.46875 47.625 84.640625 
Q 45.453125 86.8125 42.390625 86.8125 
Q 39.265625 86.8125 37.140625 84.6875 
Q 35.015625 82.5625 35.015625 79.390625 
Q 35.015625 76.3125 37.140625 74.15625 
Q 39.265625 72.015625 42.390625 72.015625 
Q 45.453125 72.015625 47.625 74.15625 
Q 49.8125 76.3125 49.8125 79.390625 
z
M 34.421875 68.703125 
Q 31.78125 70.515625 30.390625 73.265625 
Q 29 76.03125 29 79.390625 
Q 29 84.96875 32.90625 88.890625 
Q 36.8125 92.828125 42.390625 92.828125 
Q 47.953125 92.828125 51.875 88.890625 
Q 55.8125 84.96875 55.8125 79.390625 
Q 55.8125 75.53125 54.03125 72.546875 
Q 52.25 69.578125 48.875 67.828125 
L 61.53125 0 
L 51.21875 0 
L 48.1875 18.703125 
L 15.375 18.703125 
L 5.078125 0 
L -5.328125 0 
z
M 40.375 63.1875 
L 19.921875 26.90625 
L 46.6875 26.90625 
z
" id="DejaVuSans-Oblique-197"/>
       <path d="M 25.390625 72.90625 
L 33.6875 72.90625 
L 8.296875 -9.28125 
L 0 -9.28125 
z
" id="DejaVuSans-47"/>
       <path d="M 49.609375 33.6875 
Q 49.609375 40.875 46.484375 44.671875 
Q 43.359375 48.484375 37.5 48.484375 
Q 33.5 48.484375 29.859375 46.4375 
Q 26.21875 44.390625 23.390625 40.484375 
Q 20.609375 36.625 18.9375 31.15625 
Q 17.28125 25.6875 17.28125 20.3125 
Q 17.28125 13.484375 20.40625 9.796875 
Q 23.53125 6.109375 29.296875 6.109375 
Q 33.546875 6.109375 37.1875 8.109375 
Q 40.828125 10.109375 43.40625 13.921875 
Q 46.1875 17.921875 47.890625 23.34375 
Q 49.609375 28.765625 49.609375 33.6875 
z
M 21.78125 46.390625 
Q 25.390625 51.125 30.296875 53.5625 
Q 35.203125 56 41.21875 56 
Q 49.609375 56 54.25 50.5 
Q 58.890625 45.015625 58.890625 35.109375 
Q 58.890625 27 56 19.65625 
Q 53.125 12.3125 47.703125 6.5 
Q 44.09375 2.640625 39.546875 0.609375 
Q 35.015625 -1.421875 29.984375 -1.421875 
Q 24.171875 -1.421875 20.21875 1 
Q 16.265625 3.421875 14.3125 8.203125 
L 8.6875 -20.796875 
L -0.296875 -20.796875 
L 14.40625 54.6875 
L 23.390625 54.6875 
z
" id="DejaVuSans-Oblique-112"/>
       <path d="M 50 53.078125 
L 48.296875 44.578125 
Q 44.734375 46.53125 40.765625 47.5 
Q 36.8125 48.484375 32.625 48.484375 
Q 25.53125 48.484375 21.453125 46.0625 
Q 17.390625 43.65625 17.390625 39.5 
Q 17.390625 34.671875 26.859375 32.078125 
Q 27.59375 31.890625 27.9375 31.78125 
L 30.8125 30.90625 
Q 39.796875 28.421875 42.796875 25.6875 
Q 45.796875 22.953125 45.796875 18.21875 
Q 45.796875 9.515625 38.890625 4.046875 
Q 31.984375 -1.421875 20.796875 -1.421875 
Q 16.453125 -1.421875 11.671875 -0.578125 
Q 6.890625 0.25 1.125 2 
L 2.875 11.28125 
Q 7.8125 8.734375 12.59375 7.421875 
Q 17.390625 6.109375 21.78125 6.109375 
Q 28.375 6.109375 32.5 8.9375 
Q 36.625 11.765625 36.625 16.109375 
Q 36.625 20.796875 25.78125 23.6875 
L 24.859375 23.921875 
L 21.78125 24.703125 
Q 14.9375 26.515625 11.765625 29.46875 
Q 8.59375 32.421875 8.59375 37.015625 
Q 8.59375 45.75 15.15625 50.875 
Q 21.734375 56 33.015625 56 
Q 37.453125 56 41.671875 55.265625 
Q 45.90625 54.546875 50 53.078125 
z
" id="DejaVuSans-Oblique-115"/>
       <path d="M 30.421875 75.984375 
L 30.421875 -13.1875 
L 9.71875 -13.1875 
L 9.71875 -6.203125 
L 21.390625 -6.203125 
L 21.390625 69 
L 9.71875 69 
L 9.71875 75.984375 
z
" id="DejaVuSans-93"/>
      </defs>
      <use transform="translate(0 0.171875)" xlink:href="#DejaVuSans-118"/>
      <use transform="translate(59.179688 0.171875)" xlink:href="#DejaVuSans-44"/>
      <use transform="translate(90.966797 0.171875)" xlink:href="#DejaVuSans-32"/>
      <use transform="translate(122.753906 0.171875)" xlink:href="#DejaVuSans-91"/>
      <use transform="translate(161.767578 0.171875)" xlink:href="#DejaVuSans-Oblique-197"/>
      <use transform="translate(230.175781 0.171875)" xlink:href="#DejaVuSans-47"/>
      <use transform="translate(263.867188 0.171875)" xlink:href="#DejaVuSans-Oblique-112"/>
      <use transform="translate(327.34375 0.171875)" xlink:href="#DejaVuSans-Oblique-115"/>
      <use transform="translate(379.443359 0.171875)" xlink:href="#DejaVuSans-93"/>
     </g>
    </g>
   </g>
   <g id="matplotlib.axis_2">
    <g id="ytick_1">
     <g id="line2d_10">
      <defs>
       <path d="M 0 0 
L -3.5 0 
" id="m6197f10f22" style="stroke:#000000;stroke-width:0.8;"/>
      </defs>
      <g>
       <use style="stroke:#000000;stroke-width:0.8;" x="112.5" xlink:href="#m6197f10f22" y="264.708"/>
      </g>
     </g>
     <g id="text_11">
      <!-- 0.000 -->
      <g transform="translate(76.871875 268.507219)scale(0.1 -0.1)">
       <defs>
        <path d="M 10.6875 12.40625 
L 21 12.40625 
L 21 0 
L 10.6875 0 
z
" id="DejaVuSans-46"/>
       </defs>
       <use xlink:href="#DejaVuSans-48"/>
       <use x="63.623047" xlink:href="#DejaVuSans-46"/>
       <use x="95.410156" xlink:href="#DejaVuSans-48"/>
       <use x="159.033203" xlink:href="#DejaVuSans-48"/>
       <use x="222.65625" xlink:href="#DejaVuSans-48"/>
      </g>
     </g>
    </g>
    <g id="ytick_2">
     <g id="line2d_11">
      <g>
       <use style="stroke:#000000;stroke-width:0.8;" x="112.5" xlink:href="#m6197f10f22" y="227.938056"/>
      </g>
     </g>
     <g id="text_12">
      <!-- 0.001 -->
      <g transform="translate(76.871875 231.737275)scale(0.1 -0.1)">
       <use xlink:href="#DejaVuSans-48"/>
       <use x="63.623047" xlink:href="#DejaVuSans-46"/>
       <use x="95.410156" xlink:href="#DejaVuSans-48"/>
       <use x="159.033203" xlink:href="#DejaVuSans-48"/>
       <use x="222.65625" xlink:href="#DejaVuSans-49"/>
      </g>
     </g>
    </g>
    <g id="ytick_3">
     <g id="line2d_12">
      <g>
       <use style="stroke:#000000;stroke-width:0.8;" x="112.5" xlink:href="#m6197f10f22" y="191.168113"/>
      </g>
     </g>
     <g id="text_13">
      <!-- 0.002 -->
      <g transform="translate(76.871875 194.967332)scale(0.1 -0.1)">
       <use xlink:href="#DejaVuSans-48"/>
       <use x="63.623047" xlink:href="#DejaVuSans-46"/>
       <use x="95.410156" xlink:href="#DejaVuSans-48"/>
       <use x="159.033203" xlink:href="#DejaVuSans-48"/>
       <use x="222.65625" xlink:href="#DejaVuSans-50"/>
      </g>
     </g>
    </g>
    <g id="ytick_4">
     <g id="line2d_13">
      <g>
       <use style="stroke:#000000;stroke-width:0.8;" x="112.5" xlink:href="#m6197f10f22" y="154.398169"/>
      </g>
     </g>
     <g id="text_14">
      <!-- 0.003 -->
      <g transform="translate(76.871875 158.197388)scale(0.1 -0.1)">
       <use xlink:href="#DejaVuSans-48"/>
       <use x="63.623047" xlink:href="#DejaVuSans-46"/>
       <use x="95.410156" xlink:href="#DejaVuSans-48"/>
       <use x="159.033203" xlink:href="#DejaVuSans-48"/>
       <use x="222.65625" xlink:href="#DejaVuSans-51"/>
      </g>
     </g>
    </g>
    <g id="ytick_5">
     <g id="line2d_14">
      <g>
       <use style="stroke:#000000;stroke-width:0.8;" x="112.5" xlink:href="#m6197f10f22" y="117.628226"/>
      </g>
     </g>
     <g id="text_15">
      <!-- 0.004 -->
      <g transform="translate(76.871875 121.427445)scale(0.1 -0.1)">
       <use xlink:href="#DejaVuSans-48"/>
       <use x="63.623047" xlink:href="#DejaVuSans-46"/>
       <use x="95.410156" xlink:href="#DejaVuSans-48"/>
       <use x="159.033203" xlink:href="#DejaVuSans-48"/>
       <use x="222.65625" xlink:href="#DejaVuSans-52"/>
      </g>
     </g>
    </g>
    <g id="ytick_6">
     <g id="line2d_15">
      <g>
       <use style="stroke:#000000;stroke-width:0.8;" x="112.5" xlink:href="#m6197f10f22" y="80.858282"/>
      </g>
     </g>
     <g id="text_16">
      <!-- 0.005 -->
      <g transform="translate(76.871875 84.657501)scale(0.1 -0.1)">
       <use xlink:href="#DejaVuSans-48"/>
       <use x="63.623047" xlink:href="#DejaVuSans-46"/>
       <use x="95.410156" xlink:href="#DejaVuSans-48"/>
       <use x="159.033203" xlink:href="#DejaVuSans-48"/>
       <use x="222.65625" xlink:href="#DejaVuSans-53"/>
      </g>
     </g>
    </g>
    <g id="ytick_7">
     <g id="line2d_16">
      <g>
       <use style="stroke:#000000;stroke-width:0.8;" x="112.5" xlink:href="#m6197f10f22" y="44.088339"/>
      </g>
     </g>
     <g id="text_17">
      <!-- 0.006 -->
      <g transform="translate(76.871875 47.887558)scale(0.1 -0.1)">
       <use xlink:href="#DejaVuSans-48"/>
       <use x="63.623047" xlink:href="#DejaVuSans-46"/>
       <use x="95.410156" xlink:href="#DejaVuSans-48"/>
       <use x="159.033203" xlink:href="#DejaVuSans-48"/>
       <use x="222.65625" xlink:href="#DejaVuSans-54"/>
      </g>
     </g>
    </g>
    <g id="text_18">
     <!-- PDF, $f_v(v)$ -->
     <g transform="translate(70.792187 180.098)rotate(-90)scale(0.1 -0.1)">
      <defs>
       <path d="M 19.671875 64.796875 
L 19.671875 37.40625 
L 32.078125 37.40625 
Q 38.96875 37.40625 42.71875 40.96875 
Q 46.484375 44.53125 46.484375 51.125 
Q 46.484375 57.671875 42.71875 61.234375 
Q 38.96875 64.796875 32.078125 64.796875 
z
M 9.8125 72.90625 
L 32.078125 72.90625 
Q 44.34375 72.90625 50.609375 67.359375 
Q 56.890625 61.8125 56.890625 51.125 
Q 56.890625 40.328125 50.609375 34.8125 
Q 44.34375 29.296875 32.078125 29.296875 
L 19.671875 29.296875 
L 19.671875 0 
L 9.8125 0 
z
" id="DejaVuSans-80"/>
       <path d="M 19.671875 64.796875 
L 19.671875 8.109375 
L 31.59375 8.109375 
Q 46.6875 8.109375 53.6875 14.9375 
Q 60.6875 21.78125 60.6875 36.53125 
Q 60.6875 51.171875 53.6875 57.984375 
Q 46.6875 64.796875 31.59375 64.796875 
z
M 9.8125 72.90625 
L 30.078125 72.90625 
Q 51.265625 72.90625 61.171875 64.09375 
Q 71.09375 55.28125 71.09375 36.53125 
Q 71.09375 17.671875 61.125 8.828125 
Q 51.171875 0 30.078125 0 
L 9.8125 0 
z
" id="DejaVuSans-68"/>
       <path d="M 9.8125 72.90625 
L 51.703125 72.90625 
L 51.703125 64.59375 
L 19.671875 64.59375 
L 19.671875 43.109375 
L 48.578125 43.109375 
L 48.578125 34.8125 
L 19.671875 34.8125 
L 19.671875 0 
L 9.8125 0 
z
" id="DejaVuSans-70"/>
       <path d="M 47.796875 75.984375 
L 46.390625 68.5 
L 37.796875 68.5 
Q 32.90625 68.5 30.6875 66.578125 
Q 28.46875 64.65625 27.390625 59.515625 
L 26.421875 54.6875 
L 41.21875 54.6875 
L 39.890625 47.703125 
L 25.09375 47.703125 
L 15.828125 0 
L 6.78125 0 
L 16.109375 47.703125 
L 7.515625 47.703125 
L 8.796875 54.6875 
L 17.390625 54.6875 
L 18.109375 58.5 
Q 19.96875 68.171875 24.625 72.078125 
Q 29.296875 75.984375 39.3125 75.984375 
z
" id="DejaVuSans-Oblique-102"/>
       <path d="M 7.171875 54.6875 
L 16.703125 54.6875 
L 24.703125 8.203125 
L 50.875 54.6875 
L 60.40625 54.6875 
L 29.296875 0 
L 17.1875 0 
z
" id="DejaVuSans-Oblique-118"/>
       <path d="M 31 75.875 
Q 24.46875 64.65625 21.28125 53.65625 
Q 18.109375 42.671875 18.109375 31.390625 
Q 18.109375 20.125 21.3125 9.0625 
Q 24.515625 -2 31 -13.1875 
L 23.1875 -13.1875 
Q 15.875 -1.703125 12.234375 9.375 
Q 8.59375 20.453125 8.59375 31.390625 
Q 8.59375 42.28125 12.203125 53.3125 
Q 15.828125 64.359375 23.1875 75.875 
z
" id="DejaVuSans-40"/>
       <path d="M 8.015625 75.875 
L 15.828125 75.875 
Q 23.140625 64.359375 26.78125 53.3125 
Q 30.421875 42.28125 30.421875 31.390625 
Q 30.421875 20.453125 26.78125 9.375 
Q 23.140625 -1.703125 15.828125 -13.1875 
L 8.015625 -13.1875 
Q 14.5 -2 17.703125 9.0625 
Q 20.90625 20.125 20.90625 31.390625 
Q 20.90625 42.671875 17.703125 53.65625 
Q 14.5 64.65625 8.015625 75.875 
z
" id="DejaVuSans-41"/>
      </defs>
      <use transform="translate(0 0.015625)" xlink:href="#DejaVuSans-80"/>
      <use transform="translate(60.302734 0.015625)" xlink:href="#DejaVuSans-68"/>
      <use transform="translate(137.304688 0.015625)" xlink:href="#DejaVuSans-70"/>
      <use transform="translate(194.824219 0.015625)" xlink:href="#DejaVuSans-44"/>
      <use transform="translate(226.611328 0.015625)" xlink:href="#DejaVuSans-32"/>
      <use transform="translate(258.398438 0.015625)" xlink:href="#DejaVuSans-Oblique-102"/>
      <use transform="translate(293.603516 -16.390625)scale(0.7)" xlink:href="#DejaVuSans-Oblique-118"/>
      <use transform="translate(337.763672 0.015625)" xlink:href="#DejaVuSans-40"/>
      <use transform="translate(376.777344 0.015625)" xlink:href="#DejaVuSans-Oblique-118"/>
      <use transform="translate(435.957031 0.015625)" xlink:href="#DejaVuSans-41"/>
     </g>
    </g>
   </g>
   <g id="line2d_17">
    <path clip-path="url(#pb93671f582)" d="M 126.911157 264.708 
L 127.632617 264.589259 
L 128.354076 264.233325 
L 129.075536 263.641056 
L 129.796996 262.813886 
L 130.879185 261.137214 
L 131.961375 258.945739 
L 133.043564 256.251336 
L 134.486484 251.902022 
L 135.929403 246.726468 
L 137.372322 240.77403 
L 139.175972 232.32764 
L 141.340351 220.882658 
L 143.865459 206.030592 
L 146.751298 187.592882 
L 151.801516 153.50569 
L 156.130274 124.753691 
L 159.016113 106.936765 
L 161.541221 92.741201 
L 163.7056 81.856348 
L 165.50925 73.813873 
L 167.312899 66.786445 
L 168.755818 61.934745 
L 170.198738 57.791847 
L 171.641657 54.372756 
L 172.723846 52.288665 
L 173.806036 50.617579 
L 174.888225 49.358559 
L 175.970415 48.50873 
L 176.691875 48.167241 
L 177.413334 48.003704 
L 178.134794 48.015941 
L 178.856254 48.201449 
L 179.577713 48.557417 
L 180.659903 49.404113 
L 181.742092 50.61565 
L 182.824282 52.179089 
L 183.906471 54.080319 
L 185.349391 57.114401 
L 186.79231 60.683496 
L 188.595959 65.834842 
L 190.399608 71.674515 
L 192.563988 79.468547 
L 195.089096 89.453265 
L 198.335665 103.332085 
L 203.025153 124.526135 
L 210.23975 157.097138 
L 213.847048 172.375991 
L 217.093617 185.188669 
L 219.979455 195.703558 
L 222.865294 205.327464 
L 225.390403 212.99251 
L 227.915512 219.948952 
L 230.440621 226.208693 
L 232.605 231.037295 
L 234.769379 235.39156 
L 236.933758 239.295674 
L 239.098137 242.776646 
L 241.262516 245.86339 
L 243.426895 248.585899 
L 245.591274 250.974527 
L 247.755653 253.059387 
L 249.920032 254.869851 
L 252.445141 256.672837 
L 254.970249 258.183018 
L 257.495358 259.439571 
L 260.381197 260.610791 
L 263.267036 261.545087 
L 266.513604 262.364727 
L 270.120903 263.046977 
L 274.449661 263.625232 
L 279.499878 264.06411 
L 285.993016 264.388407 
L 295.011261 264.594193 
L 310.522645 264.691588 
L 370.764527 264.707999 
L 415.134298 264.708 
L 415.134298 264.708 
" style="fill:none;stroke:#1f77b4;stroke-linecap:square;stroke-width:2;"/>
   </g>
   <g id="line2d_18">
    <path clip-path="url(#pb93671f582)" d="M 126.911157 264.708 
L 127.993347 264.613545 
L 129.075536 264.330436 
L 130.157726 263.859444 
L 131.600645 262.941478 
L 133.043564 261.696264 
L 134.486484 260.129806 
L 135.929403 258.249646 
L 137.733052 255.472197 
L 139.536701 252.239582 
L 141.340351 248.575891 
L 143.50473 243.64891 
L 145.669109 238.192771 
L 148.194217 231.235433 
L 151.080056 222.62538 
L 154.687355 211.106757 
L 160.098302 192.924384 
L 167.312899 168.716433 
L 170.920197 157.332031 
L 174.166766 147.809238 
L 177.052604 140.068044 
L 179.577713 133.940575 
L 181.742092 129.216306 
L 183.906471 125.012209 
L 185.710121 121.924246 
L 187.51377 119.225962 
L 189.317419 116.925493 
L 191.121068 115.028051 
L 192.563988 113.801953 
L 194.006907 112.835276 
L 195.449826 112.126841 
L 196.892746 111.674412 
L 198.335665 111.474734 
L 199.778584 111.523586 
L 201.221504 111.815837 
L 202.664423 112.345496 
L 204.107342 113.105778 
L 205.550262 114.089159 
L 207.353911 115.619579 
L 209.15756 117.468428 
L 210.961209 119.617111 
L 213.125588 122.563548 
L 215.289967 125.877749 
L 217.815076 130.1598 
L 220.700915 135.527858 
L 223.947483 142.063541 
L 227.915512 150.586634 
L 233.687189 163.603174 
L 244.148354 187.286827 
L 248.837842 197.317648 
L 252.80587 205.318551 
L 256.413169 212.135107 
L 260.020467 218.475073 
L 263.267036 223.753285 
L 266.513604 228.617666 
L 269.760173 233.068104 
L 273.006741 237.111281 
L 275.89258 240.373178 
L 278.778419 243.334677 
L 281.664257 246.009732 
L 284.550096 248.413999 
L 287.796665 250.816139 
L 291.043233 252.922001 
L 294.289802 254.757166 
L 297.53637 256.347106 
L 301.143669 257.856314 
L 304.750967 259.126115 
L 308.718995 260.282908 
L 313.047753 261.30076 
L 317.737241 262.165057 
L 322.787459 262.87242 
L 328.559136 263.460537 
L 335.413003 263.934196 
L 344.070519 264.296826 
L 355.613874 264.539677 
L 373.650366 264.670774 
L 415.134298 264.707309 
L 415.134298 264.707309 
" style="fill:none;stroke:#ff7f0e;stroke-linecap:square;stroke-width:2;"/>
   </g>
   <g id="line2d_19">
    <path clip-path="url(#pb93671f582)" d="M 126.911157 264.708 
L 128.354076 264.6166 
L 129.796996 264.342693 
L 131.600645 263.745061 
L 133.404294 262.866693 
L 135.207943 261.712005 
L 137.011592 260.286792 
L 138.815242 258.598193 
L 140.979621 256.236178 
L 143.144 253.524046 
L 145.308379 250.481171 
L 147.833488 246.542107 
L 150.719326 241.573995 
L 153.605165 236.167954 
L 157.212463 228.896556 
L 161.541221 219.60079 
L 168.034359 205.013594 
L 175.970415 187.248847 
L 180.299173 178.081062 
L 183.906471 170.926454 
L 187.15304 164.962153 
L 190.038879 160.097418 
L 192.924717 155.688187 
L 195.449826 152.231933 
L 197.974935 149.171286 
L 200.139314 146.874495 
L 202.303693 144.886948 
L 204.468072 143.213676 
L 206.632451 141.857536 
L 208.4361 140.970265 
L 210.23975 140.303106 
L 212.043399 139.854442 
L 213.847048 139.62174 
L 215.650697 139.601599 
L 217.454346 139.789792 
L 219.257996 140.18132 
L 221.061645 140.770463 
L 223.226024 141.729254 
L 225.390403 142.951207 
L 227.554782 144.423033 
L 230.079891 146.436907 
L 232.605 148.747426 
L 235.490838 151.718875 
L 238.376677 155.005825 
L 241.623245 159.031077 
L 245.591274 164.341037 
L 250.280762 171.03669 
L 256.413169 180.220071 
L 271.203092 202.524404 
L 276.61404 210.200507 
L 281.303528 216.481174 
L 285.632286 221.921235 
L 289.600314 226.579713 
L 293.568342 230.909097 
L 297.53637 234.902275 
L 301.504399 238.558631 
L 305.111697 241.594393 
L 308.718995 244.362939 
L 312.326294 246.87399 
L 316.294322 249.352877 
L 320.26235 251.552404 
L 324.230378 253.492047 
L 328.198407 255.192211 
L 332.527165 256.798209 
L 336.855923 258.170694 
L 341.545411 259.424182 
L 346.595628 260.537731 
L 352.006576 261.499103 
L 358.138983 262.348618 
L 364.99285 263.056739 
L 372.568177 263.612647 
L 381.586423 264.050533 
L 393.129777 264.377451 
L 409.00189 264.587339 
L 415.134298 264.627805 
L 415.134298 264.627805 
" style="fill:none;stroke:#2ca02c;stroke-linecap:square;stroke-width:2;"/>
   </g>
   <g id="line2d_20">
    <path clip-path="url(#pb93671f582)" d="M 126.911157 264.708 
L 128.714806 264.615244 
L 130.879185 264.259606 
L 133.043564 263.639306 
L 135.207943 262.757716 
L 137.372322 261.619618 
L 139.536701 260.231179 
L 141.70108 258.599901 
L 144.226189 256.401622 
L 146.751298 253.9009 
L 149.637137 250.69603 
L 152.522976 247.150258 
L 155.769544 242.795329 
L 159.376842 237.562507 
L 163.344871 231.414573 
L 168.395088 223.158702 
L 177.774064 207.272066 
L 184.627931 195.891866 
L 189.317419 188.525779 
L 193.285447 182.690224 
L 196.892746 177.773708 
L 200.139314 173.710849 
L 203.025153 170.415552 
L 205.910992 167.438636 
L 208.79683 164.796616 
L 211.321939 162.769934 
L 213.847048 161.016322 
L 216.372157 159.540378 
L 218.897266 158.344736 
L 221.061645 157.543591 
L 223.226024 156.948305 
L 225.390403 156.557284 
L 227.554782 156.368009 
L 229.719161 156.377089 
L 231.88354 156.580305 
L 234.408649 157.056057 
L 236.933758 157.780076 
L 239.458866 158.742014 
L 241.983975 159.930452 
L 244.869814 161.55013 
L 247.755653 163.429786 
L 251.002221 165.829226 
L 254.24879 168.50051 
L 257.856088 171.748834 
L 261.824116 175.611723 
L 266.513604 180.490483 
L 272.285282 186.828567 
L 282.024987 197.923488 
L 292.125423 209.32065 
L 298.61856 216.30236 
L 304.029507 221.806578 
L 309.079725 226.637553 
L 313.769213 230.832104 
L 318.458701 234.730406 
L 323.148189 238.324499 
L 327.476947 241.370626 
L 331.805705 244.158991 
L 336.134463 246.69583 
L 340.463221 248.990143 
L 345.152709 251.214993 
L 349.842197 253.184791 
L 354.531685 254.917517 
L 359.581902 256.540097 
L 364.63212 257.933728 
L 370.043068 259.199971 
L 375.814745 260.323191 
L 381.947152 261.295022 
L 388.801019 262.154252 
L 396.376346 262.87705 
L 405.033862 263.475511 
L 415.134298 263.947301 
L 415.134298 263.947301 
" style="fill:none;stroke:#d62728;stroke-linecap:square;stroke-width:2;"/>
   </g>
   <g id="patch_3">
    <path d="M 112.5 275.544 
L 112.5 37.152 
" style="fill:none;stroke:#000000;stroke-linecap:square;stroke-linejoin:miter;stroke-width:0.8;"/>
   </g>
   <g id="patch_4">
    <path d="M 429.545455 275.544 
L 429.545455 37.152 
" style="fill:none;stroke:#000000;stroke-linecap:square;stroke-linejoin:miter;stroke-width:0.8;"/>
   </g>
   <g id="patch_5">
    <path d="M 112.5 275.544 
L 429.545455 275.544 
" style="fill:none;stroke:#000000;stroke-linecap:square;stroke-linejoin:miter;stroke-width:0.8;"/>
   </g>
   <g id="patch_6">
    <path d="M 112.5 37.152 
L 429.545455 37.152 
" style="fill:none;stroke:#000000;stroke-linecap:square;stroke-linejoin:miter;stroke-width:0.8;"/>
   </g>
   <g id="text_19">
    <!-- Krypton, 83.798 amu -->
    <g transform="translate(207.396477 31.152)scale(0.12 -0.12)">
     <defs>
      <path d="M 9.8125 72.90625 
L 19.671875 72.90625 
L 19.671875 42.09375 
L 52.390625 72.90625 
L 65.09375 72.90625 
L 28.90625 38.921875 
L 67.671875 0 
L 54.6875 0 
L 19.671875 35.109375 
L 19.671875 0 
L 9.8125 0 
z
" id="DejaVuSans-75"/>
      <path d="M 41.109375 46.296875 
Q 39.59375 47.171875 37.8125 47.578125 
Q 36.03125 48 33.890625 48 
Q 26.265625 48 22.1875 43.046875 
Q 18.109375 38.09375 18.109375 28.8125 
L 18.109375 0 
L 9.078125 0 
L 9.078125 54.6875 
L 18.109375 54.6875 
L 18.109375 46.1875 
Q 20.953125 51.171875 25.484375 53.578125 
Q 30.03125 56 36.53125 56 
Q 37.453125 56 38.578125 55.875 
Q 39.703125 55.765625 41.0625 55.515625 
z
" id="DejaVuSans-114"/>
      <path d="M 32.171875 -5.078125 
Q 28.375 -14.84375 24.75 -17.8125 
Q 21.140625 -20.796875 15.09375 -20.796875 
L 7.90625 -20.796875 
L 7.90625 -13.28125 
L 13.1875 -13.28125 
Q 16.890625 -13.28125 18.9375 -11.515625 
Q 21 -9.765625 23.484375 -3.21875 
L 25.09375 0.875 
L 2.984375 54.6875 
L 12.5 54.6875 
L 29.59375 11.921875 
L 46.6875 54.6875 
L 56.203125 54.6875 
z
" id="DejaVuSans-121"/>
      <path d="M 18.109375 8.203125 
L 18.109375 -20.796875 
L 9.078125 -20.796875 
L 9.078125 54.6875 
L 18.109375 54.6875 
L 18.109375 46.390625 
Q 20.953125 51.265625 25.265625 53.625 
Q 29.59375 56 35.59375 56 
Q 45.5625 56 51.78125 48.09375 
Q 58.015625 40.1875 58.015625 27.296875 
Q 58.015625 14.40625 51.78125 6.484375 
Q 45.5625 -1.421875 35.59375 -1.421875 
Q 29.59375 -1.421875 25.265625 0.953125 
Q 20.953125 3.328125 18.109375 8.203125 
z
M 48.6875 27.296875 
Q 48.6875 37.203125 44.609375 42.84375 
Q 40.53125 48.484375 33.40625 48.484375 
Q 26.265625 48.484375 22.1875 42.84375 
Q 18.109375 37.203125 18.109375 27.296875 
Q 18.109375 17.390625 22.1875 11.75 
Q 26.265625 6.109375 33.40625 6.109375 
Q 40.53125 6.109375 44.609375 11.75 
Q 48.6875 17.390625 48.6875 27.296875 
z
" id="DejaVuSans-112"/>
      <path d="M 18.3125 70.21875 
L 18.3125 54.6875 
L 36.8125 54.6875 
L 36.8125 47.703125 
L 18.3125 47.703125 
L 18.3125 18.015625 
Q 18.3125 11.328125 20.140625 9.421875 
Q 21.96875 7.515625 27.59375 7.515625 
L 36.8125 7.515625 
L 36.8125 0 
L 27.59375 0 
Q 17.1875 0 13.234375 3.875 
Q 9.28125 7.765625 9.28125 18.015625 
L 9.28125 47.703125 
L 2.6875 47.703125 
L 2.6875 54.6875 
L 9.28125 54.6875 
L 9.28125 70.21875 
z
" id="DejaVuSans-116"/>
      <path d="M 30.609375 48.390625 
Q 23.390625 48.390625 19.1875 42.75 
Q 14.984375 37.109375 14.984375 27.296875 
Q 14.984375 17.484375 19.15625 11.84375 
Q 23.34375 6.203125 30.609375 6.203125 
Q 37.796875 6.203125 41.984375 11.859375 
Q 46.1875 17.53125 46.1875 27.296875 
Q 46.1875 37.015625 41.984375 42.703125 
Q 37.796875 48.390625 30.609375 48.390625 
z
M 30.609375 56 
Q 42.328125 56 49.015625 48.375 
Q 55.71875 40.765625 55.71875 27.296875 
Q 55.71875 13.875 49.015625 6.21875 
Q 42.328125 -1.421875 30.609375 -1.421875 
Q 18.84375 -1.421875 12.171875 6.21875 
Q 5.515625 13.875 5.515625 27.296875 
Q 5.515625 40.765625 12.171875 48.375 
Q 18.84375 56 30.609375 56 
z
" id="DejaVuSans-111"/>
      <path d="M 54.890625 33.015625 
L 54.890625 0 
L 45.90625 0 
L 45.90625 32.71875 
Q 45.90625 40.484375 42.875 44.328125 
Q 39.84375 48.1875 33.796875 48.1875 
Q 26.515625 48.1875 22.3125 43.546875 
Q 18.109375 38.921875 18.109375 30.90625 
L 18.109375 0 
L 9.078125 0 
L 9.078125 54.6875 
L 18.109375 54.6875 
L 18.109375 46.1875 
Q 21.34375 51.125 25.703125 53.5625 
Q 30.078125 56 35.796875 56 
Q 45.21875 56 50.046875 50.171875 
Q 54.890625 44.34375 54.890625 33.015625 
z
" id="DejaVuSans-110"/>
      <path d="M 10.984375 1.515625 
L 10.984375 10.5 
Q 14.703125 8.734375 18.5 7.8125 
Q 22.3125 6.890625 25.984375 6.890625 
Q 35.75 6.890625 40.890625 13.453125 
Q 46.046875 20.015625 46.78125 33.40625 
Q 43.953125 29.203125 39.59375 26.953125 
Q 35.25 24.703125 29.984375 24.703125 
Q 19.046875 24.703125 12.671875 31.3125 
Q 6.296875 37.9375 6.296875 49.421875 
Q 6.296875 60.640625 12.9375 67.421875 
Q 19.578125 74.21875 30.609375 74.21875 
Q 43.265625 74.21875 49.921875 64.515625 
Q 56.59375 54.828125 56.59375 36.375 
Q 56.59375 19.140625 48.40625 8.859375 
Q 40.234375 -1.421875 26.421875 -1.421875 
Q 22.703125 -1.421875 18.890625 -0.6875 
Q 15.09375 0.046875 10.984375 1.515625 
z
M 30.609375 32.421875 
Q 37.25 32.421875 41.125 36.953125 
Q 45.015625 41.5 45.015625 49.421875 
Q 45.015625 57.28125 41.125 61.84375 
Q 37.25 66.40625 30.609375 66.40625 
Q 23.96875 66.40625 20.09375 61.84375 
Q 16.21875 57.28125 16.21875 49.421875 
Q 16.21875 41.5 20.09375 36.953125 
Q 23.96875 32.421875 30.609375 32.421875 
z
" id="DejaVuSans-57"/>
      <path d="M 34.28125 27.484375 
Q 23.390625 27.484375 19.1875 25 
Q 14.984375 22.515625 14.984375 16.5 
Q 14.984375 11.71875 18.140625 8.90625 
Q 21.296875 6.109375 26.703125 6.109375 
Q 34.1875 6.109375 38.703125 11.40625 
Q 43.21875 16.703125 43.21875 25.484375 
L 43.21875 27.484375 
z
M 52.203125 31.203125 
L 52.203125 0 
L 43.21875 0 
L 43.21875 8.296875 
Q 40.140625 3.328125 35.546875 0.953125 
Q 30.953125 -1.421875 24.3125 -1.421875 
Q 15.921875 -1.421875 10.953125 3.296875 
Q 6 8.015625 6 15.921875 
Q 6 25.140625 12.171875 29.828125 
Q 18.359375 34.515625 30.609375 34.515625 
L 43.21875 34.515625 
L 43.21875 35.40625 
Q 43.21875 41.609375 39.140625 45 
Q 35.0625 48.390625 27.6875 48.390625 
Q 23 48.390625 18.546875 47.265625 
Q 14.109375 46.140625 10.015625 43.890625 
L 10.015625 52.203125 
Q 14.9375 54.109375 19.578125 55.046875 
Q 24.21875 56 28.609375 56 
Q 40.484375 56 46.34375 49.84375 
Q 52.203125 43.703125 52.203125 31.203125 
z
" id="DejaVuSans-97"/>
      <path d="M 52 44.1875 
Q 55.375 50.25 60.0625 53.125 
Q 64.75 56 71.09375 56 
Q 79.640625 56 84.28125 50.015625 
Q 88.921875 44.046875 88.921875 33.015625 
L 88.921875 0 
L 79.890625 0 
L 79.890625 32.71875 
Q 79.890625 40.578125 77.09375 44.375 
Q 74.3125 48.1875 68.609375 48.1875 
Q 61.625 48.1875 57.5625 43.546875 
Q 53.515625 38.921875 53.515625 30.90625 
L 53.515625 0 
L 44.484375 0 
L 44.484375 32.71875 
Q 44.484375 40.625 41.703125 44.40625 
Q 38.921875 48.1875 33.109375 48.1875 
Q 26.21875 48.1875 22.15625 43.53125 
Q 18.109375 38.875 18.109375 30.90625 
L 18.109375 0 
L 9.078125 0 
L 9.078125 54.6875 
L 18.109375 54.6875 
L 18.109375 46.1875 
Q 21.1875 51.21875 25.484375 53.609375 
Q 29.78125 56 35.6875 56 
Q 41.65625 56 45.828125 52.96875 
Q 50 49.953125 52 44.1875 
z
" id="DejaVuSans-109"/>
      <path d="M 8.5 21.578125 
L 8.5 54.6875 
L 17.484375 54.6875 
L 17.484375 21.921875 
Q 17.484375 14.15625 20.5 10.265625 
Q 23.53125 6.390625 29.59375 6.390625 
Q 36.859375 6.390625 41.078125 11.03125 
Q 45.3125 15.671875 45.3125 23.6875 
L 45.3125 54.6875 
L 54.296875 54.6875 
L 54.296875 0 
L 45.3125 0 
L 45.3125 8.40625 
Q 42.046875 3.421875 37.71875 1 
Q 33.40625 -1.421875 27.6875 -1.421875 
Q 18.265625 -1.421875 13.375 4.4375 
Q 8.5 10.296875 8.5 21.578125 
z
M 31.109375 56 
z
" id="DejaVuSans-117"/>
     </defs>
     <use xlink:href="#DejaVuSans-75"/>
     <use x="65.576172" xlink:href="#DejaVuSans-114"/>
     <use x="106.689453" xlink:href="#DejaVuSans-121"/>
     <use x="165.869141" xlink:href="#DejaVuSans-112"/>
     <use x="229.345703" xlink:href="#DejaVuSans-116"/>
     <use x="268.554688" xlink:href="#DejaVuSans-111"/>
     <use x="329.736328" xlink:href="#DejaVuSans-110"/>
     <use x="393.115234" xlink:href="#DejaVuSans-44"/>
     <use x="424.902344" xlink:href="#DejaVuSans-32"/>
     <use x="456.689453" xlink:href="#DejaVuSans-56"/>
     <use x="520.3125" xlink:href="#DejaVuSans-51"/>
     <use x="583.935547" xlink:href="#DejaVuSans-46"/>
     <use x="615.722656" xlink:href="#DejaVuSans-55"/>
     <use x="679.345703" xlink:href="#DejaVuSans-57"/>
     <use x="742.96875" xlink:href="#DejaVuSans-56"/>
     <use x="806.591797" xlink:href="#DejaVuSans-32"/>
     <use x="838.378906" xlink:href="#DejaVuSans-97"/>
     <use x="899.658203" xlink:href="#DejaVuSans-109"/>
     <use x="997.070312" xlink:href="#DejaVuSans-117"/>
    </g>
   </g>
   <g id="legend_1">
    <g id="patch_7">
     <path d="M 361.722017 103.8645 
L 422.545455 103.8645 
Q 424.545455 103.8645 424.545455 101.8645 
L 424.545455 44.152 
Q 424.545455 42.152 422.545455 42.152 
L 361.722017 42.152 
Q 359.722017 42.152 359.722017 44.152 
L 359.722017 101.8645 
Q 359.722017 103.8645 361.722017 103.8645 
z
" style="fill:#ffffff;opacity:0.8;stroke:#cccccc;stroke-linejoin:miter;"/>
    </g>
    <g id="line2d_21">
     <path d="M 363.722017 50.250437 
L 383.722017 50.250437 
" style="fill:none;stroke:#1f77b4;stroke-linecap:square;stroke-width:2;"/>
    </g>
    <g id="line2d_22"/>
    <g id="text_20">
     <!-- 100 K -->
     <g transform="translate(391.722017 53.750437)scale(0.1 -0.1)">
      <use xlink:href="#DejaVuSans-49"/>
      <use x="63.623047" xlink:href="#DejaVuSans-48"/>
      <use x="127.246094" xlink:href="#DejaVuSans-48"/>
      <use x="190.869141" xlink:href="#DejaVuSans-32"/>
      <use x="222.65625" xlink:href="#DejaVuSans-75"/>
     </g>
    </g>
    <g id="line2d_23">
     <path d="M 363.722017 64.928562 
L 383.722017 64.928562 
" style="fill:none;stroke:#ff7f0e;stroke-linecap:square;stroke-width:2;"/>
    </g>
    <g id="line2d_24"/>
    <g id="text_21">
     <!-- 200 K -->
     <g transform="translate(391.722017 68.428562)scale(0.1 -0.1)">
      <use xlink:href="#DejaVuSans-50"/>
      <use x="63.623047" xlink:href="#DejaVuSans-48"/>
      <use x="127.246094" xlink:href="#DejaVuSans-48"/>
      <use x="190.869141" xlink:href="#DejaVuSans-32"/>
      <use x="222.65625" xlink:href="#DejaVuSans-75"/>
     </g>
    </g>
    <g id="line2d_25">
     <path d="M 363.722017 79.606687 
L 383.722017 79.606687 
" style="fill:none;stroke:#2ca02c;stroke-linecap:square;stroke-width:2;"/>
    </g>
    <g id="line2d_26"/>
    <g id="text_22">
     <!-- 300 K -->
     <g transform="translate(391.722017 83.106687)scale(0.1 -0.1)">
      <use xlink:href="#DejaVuSans-51"/>
      <use x="63.623047" xlink:href="#DejaVuSans-48"/>
      <use x="127.246094" xlink:href="#DejaVuSans-48"/>
      <use x="190.869141" xlink:href="#DejaVuSans-32"/>
      <use x="222.65625" xlink:href="#DejaVuSans-75"/>
     </g>
    </g>
    <g id="line2d_27">
     <path d="M 363.722017 94.284812 
L 383.722017 94.284812 
" style="fill:none;stroke:#d62728;stroke-linecap:square;stroke-width:2;"/>
    </g>
    <g id="line2d_28"/>
    <g id="text_23">
     <!-- 400 K -->
     <g transform="translate(391.722017 97.784812)scale(0.1 -0.1)">
      <use xlink:href="#DejaVuSans-52"/>
      <use x="63.623047" xlink:href="#DejaVuSans-48"/>
      <use x="127.246094" xlink:href="#DejaVuSans-48"/>
      <use x="190.869141" xlink:href="#DejaVuSans-32"/>
      <use x="222.65625" xlink:href="#DejaVuSans-75"/>
     </g>
    </g>
   </g>
  </g>
  <g id="axes_2">
   <g id="patch_8">
    <path d="M 492.954545 275.544 
L 810 275.544 
L 810 37.152 
L 492.954545 37.152 
z
" style="fill:#ffffff;"/>
   </g>
   <g id="matplotlib.axis_3">
    <g id="xtick_10">
     <g id="line2d_29">
      <g>
       <use style="stroke:#000000;stroke-width:0.8;" x="507.365702" xlink:href="#m274a7f01e7" y="275.544"/>
      </g>
     </g>
     <g id="text_24">
      <!-- 0 -->
      <g transform="translate(504.184452 290.142437)scale(0.1 -0.1)">
       <use xlink:href="#DejaVuSans-48"/>
      </g>
     </g>
    </g>
    <g id="xtick_11">
     <g id="line2d_30">
      <g>
       <use style="stroke:#000000;stroke-width:0.8;" x="565.033398" xlink:href="#m274a7f01e7" y="275.544"/>
      </g>
     </g>
     <g id="text_25">
      <!-- 5 -->
      <g transform="translate(561.852148 290.142437)scale(0.1 -0.1)">
       <use xlink:href="#DejaVuSans-53"/>
      </g>
     </g>
    </g>
    <g id="xtick_12">
     <g id="line2d_31">
      <g>
       <use style="stroke:#000000;stroke-width:0.8;" x="622.701093" xlink:href="#m274a7f01e7" y="275.544"/>
      </g>
     </g>
     <g id="text_26">
      <!-- 10 -->
      <g transform="translate(616.338593 290.142437)scale(0.1 -0.1)">
       <use xlink:href="#DejaVuSans-49"/>
       <use x="63.623047" xlink:href="#DejaVuSans-48"/>
      </g>
     </g>
    </g>
    <g id="xtick_13">
     <g id="line2d_32">
      <g>
       <use style="stroke:#000000;stroke-width:0.8;" x="680.368788" xlink:href="#m274a7f01e7" y="275.544"/>
      </g>
     </g>
     <g id="text_27">
      <!-- 15 -->
      <g transform="translate(674.006288 290.142437)scale(0.1 -0.1)">
       <use xlink:href="#DejaVuSans-49"/>
       <use x="63.623047" xlink:href="#DejaVuSans-53"/>
      </g>
     </g>
    </g>
    <g id="xtick_14">
     <g id="line2d_33">
      <g>
       <use style="stroke:#000000;stroke-width:0.8;" x="738.036483" xlink:href="#m274a7f01e7" y="275.544"/>
      </g>
     </g>
     <g id="text_28">
      <!-- 20 -->
      <g transform="translate(731.673983 290.142437)scale(0.1 -0.1)">
       <use xlink:href="#DejaVuSans-50"/>
       <use x="63.623047" xlink:href="#DejaVuSans-48"/>
      </g>
     </g>
    </g>
    <g id="xtick_15">
     <g id="line2d_34">
      <g>
       <use style="stroke:#000000;stroke-width:0.8;" x="795.704178" xlink:href="#m274a7f01e7" y="275.544"/>
      </g>
     </g>
     <g id="text_29">
      <!-- 25 -->
      <g transform="translate(789.341678 290.142437)scale(0.1 -0.1)">
       <use xlink:href="#DejaVuSans-50"/>
       <use x="63.623047" xlink:href="#DejaVuSans-53"/>
      </g>
     </g>
    </g>
    <g id="text_30">
     <!-- v, $[ \AA / ps ]$ -->
     <g transform="translate(630.527273 305.522125)scale(0.1 -0.1)">
      <use transform="translate(0 0.171875)" xlink:href="#DejaVuSans-118"/>
      <use transform="translate(59.179688 0.171875)" xlink:href="#DejaVuSans-44"/>
      <use transform="translate(90.966797 0.171875)" xlink:href="#DejaVuSans-32"/>
      <use transform="translate(122.753906 0.171875)" xlink:href="#DejaVuSans-91"/>
      <use transform="translate(161.767578 0.171875)" xlink:href="#DejaVuSans-Oblique-197"/>
      <use transform="translate(230.175781 0.171875)" xlink:href="#DejaVuSans-47"/>
      <use transform="translate(263.867188 0.171875)" xlink:href="#DejaVuSans-Oblique-112"/>
      <use transform="translate(327.34375 0.171875)" xlink:href="#DejaVuSans-Oblique-115"/>
      <use transform="translate(379.443359 0.171875)" xlink:href="#DejaVuSans-93"/>
     </g>
    </g>
   </g>
   <g id="matplotlib.axis_4">
    <g id="ytick_8">
     <g id="line2d_35">
      <g>
       <use style="stroke:#000000;stroke-width:0.8;" x="492.954545" xlink:href="#m6197f10f22" y="264.708"/>
      </g>
     </g>
     <g id="text_31">
      <!-- 0.000 -->
      <g transform="translate(457.32642 268.507219)scale(0.1 -0.1)">
       <use xlink:href="#DejaVuSans-48"/>
       <use x="63.623047" xlink:href="#DejaVuSans-46"/>
       <use x="95.410156" xlink:href="#DejaVuSans-48"/>
       <use x="159.033203" xlink:href="#DejaVuSans-48"/>
       <use x="222.65625" xlink:href="#DejaVuSans-48"/>
      </g>
     </g>
    </g>
    <g id="ytick_9">
     <g id="line2d_36">
      <g>
       <use style="stroke:#000000;stroke-width:0.8;" x="492.954545" xlink:href="#m6197f10f22" y="213.983573"/>
      </g>
     </g>
     <g id="text_32">
      <!-- 0.001 -->
      <g transform="translate(457.32642 217.782791)scale(0.1 -0.1)">
       <use xlink:href="#DejaVuSans-48"/>
       <use x="63.623047" xlink:href="#DejaVuSans-46"/>
       <use x="95.410156" xlink:href="#DejaVuSans-48"/>
       <use x="159.033203" xlink:href="#DejaVuSans-48"/>
       <use x="222.65625" xlink:href="#DejaVuSans-49"/>
      </g>
     </g>
    </g>
    <g id="ytick_10">
     <g id="line2d_37">
      <g>
       <use style="stroke:#000000;stroke-width:0.8;" x="492.954545" xlink:href="#m6197f10f22" y="163.259145"/>
      </g>
     </g>
     <g id="text_33">
      <!-- 0.002 -->
      <g transform="translate(457.32642 167.058364)scale(0.1 -0.1)">
       <use xlink:href="#DejaVuSans-48"/>
       <use x="63.623047" xlink:href="#DejaVuSans-46"/>
       <use x="95.410156" xlink:href="#DejaVuSans-48"/>
       <use x="159.033203" xlink:href="#DejaVuSans-48"/>
       <use x="222.65625" xlink:href="#DejaVuSans-50"/>
      </g>
     </g>
    </g>
    <g id="ytick_11">
     <g id="line2d_38">
      <g>
       <use style="stroke:#000000;stroke-width:0.8;" x="492.954545" xlink:href="#m6197f10f22" y="112.534718"/>
      </g>
     </g>
     <g id="text_34">
      <!-- 0.003 -->
      <g transform="translate(457.32642 116.333937)scale(0.1 -0.1)">
       <use xlink:href="#DejaVuSans-48"/>
       <use x="63.623047" xlink:href="#DejaVuSans-46"/>
       <use x="95.410156" xlink:href="#DejaVuSans-48"/>
       <use x="159.033203" xlink:href="#DejaVuSans-48"/>
       <use x="222.65625" xlink:href="#DejaVuSans-51"/>
      </g>
     </g>
    </g>
    <g id="ytick_12">
     <g id="line2d_39">
      <g>
       <use style="stroke:#000000;stroke-width:0.8;" x="492.954545" xlink:href="#m6197f10f22" y="61.81029"/>
      </g>
     </g>
     <g id="text_35">
      <!-- 0.004 -->
      <g transform="translate(457.32642 65.609509)scale(0.1 -0.1)">
       <use xlink:href="#DejaVuSans-48"/>
       <use x="63.623047" xlink:href="#DejaVuSans-46"/>
       <use x="95.410156" xlink:href="#DejaVuSans-48"/>
       <use x="159.033203" xlink:href="#DejaVuSans-48"/>
       <use x="222.65625" xlink:href="#DejaVuSans-52"/>
      </g>
     </g>
    </g>
    <g id="text_36">
     <!-- PDF, $f_v(v)$ -->
     <g transform="translate(451.246733 180.098)rotate(-90)scale(0.1 -0.1)">
      <use transform="translate(0 0.015625)" xlink:href="#DejaVuSans-80"/>
      <use transform="translate(60.302734 0.015625)" xlink:href="#DejaVuSans-68"/>
      <use transform="translate(137.304688 0.015625)" xlink:href="#DejaVuSans-70"/>
      <use transform="translate(194.824219 0.015625)" xlink:href="#DejaVuSans-44"/>
      <use transform="translate(226.611328 0.015625)" xlink:href="#DejaVuSans-32"/>
      <use transform="translate(258.398438 0.015625)" xlink:href="#DejaVuSans-Oblique-102"/>
      <use transform="translate(293.603516 -16.390625)scale(0.7)" xlink:href="#DejaVuSans-Oblique-118"/>
      <use transform="translate(337.763672 0.015625)" xlink:href="#DejaVuSans-40"/>
      <use transform="translate(376.777344 0.015625)" xlink:href="#DejaVuSans-Oblique-118"/>
      <use transform="translate(435.957031 0.015625)" xlink:href="#DejaVuSans-41"/>
     </g>
    </g>
   </g>
   <g id="line2d_40">
    <path clip-path="url(#p2bb0f7b81e)" d="M 507.365702 264.708 
L 511.633112 264.594428 
L 515.900521 264.255215 
L 520.167931 263.694849 
L 524.550676 262.896926 
L 529.164091 261.825652 
L 533.892842 260.498266 
L 538.967599 258.839543 
L 544.503698 256.788406 
L 550.731809 254.233099 
L 558.22861 250.90321 
L 571.030838 244.920981 
L 581.757029 240.014297 
L 589.023159 236.933664 
L 595.25127 234.532672 
L 600.902704 232.58943 
L 606.208132 230.997052 
L 611.282889 229.70261 
L 616.242311 228.665908 
L 621.086397 227.878518 
L 625.930484 227.317035 
L 630.77457 226.981237 
L 635.618657 226.867576 
L 640.578078 226.974418 
L 645.652836 227.307033 
L 650.958263 227.881457 
L 656.494362 228.708131 
L 662.376467 229.81457 
L 668.719914 231.236224 
L 675.870708 233.073182 
L 684.290191 235.476586 
L 695.59306 238.954165 
L 721.889529 247.118918 
L 732.039043 249.988645 
L 741.265874 252.368149 
L 750.031364 254.400624 
L 758.681518 256.178345 
L 767.331672 257.72985 
L 776.212497 259.095977 
L 785.439329 260.288183 
L 795.127501 261.31453 
L 795.588843 261.358109 
L 795.588843 261.358109 
" style="fill:none;stroke:#1f77b4;stroke-linecap:square;stroke-width:2;"/>
   </g>
   <g id="line2d_41">
    <path clip-path="url(#p2bb0f7b81e)" d="M 507.365702 264.708 
L 508.865063 264.595891 
L 510.364423 264.260297 
L 511.863783 263.703411 
L 513.478478 262.860411 
L 515.093174 261.771375 
L 516.823204 260.340893 
L 518.668571 258.528099 
L 520.744608 256.156424 
L 522.93598 253.30253 
L 525.358023 249.775612 
L 528.126073 245.338336 
L 531.470799 239.527898 
L 536.084215 231.019231 
L 544.388363 215.665535 
L 547.848424 209.764169 
L 550.847145 205.079108 
L 553.499859 201.343661 
L 555.921902 198.314883 
L 558.113274 195.916557 
L 560.189311 193.961729 
L 562.150013 192.409707 
L 563.995379 191.21606 
L 565.840745 190.284361 
L 567.570776 189.64925 
L 569.300807 189.243364 
L 571.030838 189.063578 
L 572.760869 189.105185 
L 574.4909 189.362006 
L 576.336266 189.864657 
L 578.181632 190.592932 
L 580.142334 191.600438 
L 582.218371 192.912261 
L 584.525079 194.640973 
L 587.062457 196.837694 
L 589.830507 199.539445 
L 593.059898 203.022631 
L 596.865965 207.47232 
L 602.171393 214.049348 
L 613.358926 227.993936 
L 617.972342 233.335743 
L 622.00908 237.676467 
L 625.699813 241.330979 
L 629.27521 244.564503 
L 632.735272 247.39832 
L 636.195334 249.942153 
L 639.655395 252.203166 
L 643.115457 254.193706 
L 646.575519 255.930015 
L 650.150916 257.477263 
L 653.841648 258.835042 
L 657.763052 260.039937 
L 661.915126 261.082438 
L 666.413206 261.981154 
L 671.372628 262.742329 
L 677.024062 263.376806 
L 683.598179 263.880709 
L 691.556321 264.257403 
L 702.051841 264.51617 
L 717.968125 264.661069 
L 754.183438 264.706842 
L 795.588843 264.707993 
L 795.588843 264.707993 
" style="fill:none;stroke:#ff7f0e;stroke-linecap:square;stroke-width:2;"/>
   </g>
   <g id="line2d_42">
    <path clip-path="url(#p2bb0f7b81e)" d="M 507.365702 264.708 
L 508.17305 264.579737 
L 508.980398 264.195554 
L 509.787746 263.557271 
L 510.710429 262.520588 
L 511.748447 260.970411 
L 512.901801 258.785609 
L 514.170491 255.844619 
L 515.554515 252.032868 
L 517.053875 247.252093 
L 518.783906 240.991671 
L 520.859943 232.605279 
L 523.512657 220.88125 
L 533.20083 177.013688 
L 535.392202 168.627598 
L 537.237569 162.399446 
L 538.852264 157.661689 
L 540.351624 153.906427 
L 541.735649 151.018524 
L 543.004338 148.873752 
L 544.157692 147.347197 
L 545.195711 146.319245 
L 546.118394 145.679559 
L 547.041077 145.295296 
L 547.96376 145.162711 
L 548.886443 145.276836 
L 549.809126 145.631555 
L 550.731809 146.219689 
L 551.769828 147.150156 
L 552.923182 148.502567 
L 554.191871 150.35484 
L 555.575896 152.778822 
L 557.190591 156.087591 
L 559.035957 160.422545 
L 561.111994 165.884109 
L 563.764708 173.541303 
L 567.570776 185.312124 
L 574.72157 207.520778 
L 577.950961 216.759269 
L 580.719011 224.029537 
L 583.256389 230.092412 
L 585.678433 235.311373 
L 587.98514 239.758624 
L 590.176513 243.518001 
L 592.367885 246.840371 
L 594.559258 249.749135 
L 596.635295 252.149021 
L 598.826667 254.336985 
L 601.018039 256.203229 
L 603.209412 257.781697 
L 605.51612 259.169049 
L 607.938163 260.363192 
L 610.475541 261.36881 
L 613.243591 262.227981 
L 616.357646 262.955761 
L 619.933043 263.551311 
L 624.085118 264.009431 
L 629.27521 264.348122 
L 636.310669 264.569783 
L 647.844208 264.683029 
L 683.021502 264.707954 
L 795.588843 264.708 
L 795.588843 264.708 
" style="fill:none;stroke:#2ca02c;stroke-linecap:square;stroke-width:2;"/>
   </g>
   <g id="line2d_43">
    <path clip-path="url(#p2bb0f7b81e)" d="M 507.365702 264.708 
L 507.711709 264.567615 
L 508.057715 264.14686 
L 508.519056 263.151917 
L 509.095733 261.218386 
L 509.787746 257.907371 
L 510.595093 252.727322 
L 511.517777 245.169945 
L 512.555795 234.763543 
L 513.824484 219.679363 
L 515.43918 197.562116 
L 517.976558 159.170689 
L 520.975279 114.465173 
L 522.705309 91.953974 
L 524.089334 76.737195 
L 525.242688 66.321577 
L 526.280706 58.875403 
L 527.20339 53.861637 
L 528.010737 50.736961 
L 528.587414 49.227218 
L 529.164091 48.313922 
L 529.625433 48.006756 
L 529.971439 48.019354 
L 530.317445 48.236684 
L 530.778787 48.838569 
L 531.355464 50.078587 
L 532.047476 52.25289 
L 532.854824 55.681789 
L 533.777507 60.68452 
L 534.815525 67.547272 
L 536.084215 77.446173 
L 537.69891 91.918999 
L 540.005618 114.885793 
L 545.541717 170.806207 
L 547.617754 189.218786 
L 549.46312 203.69512 
L 551.193151 215.518918 
L 552.807846 225.020033 
L 554.307206 232.565072 
L 555.806566 238.960341 
L 557.190591 243.929665 
L 558.574616 248.092986 
L 559.95864 251.542316 
L 561.342665 254.36916 
L 562.72669 256.661325 
L 564.110715 258.500661 
L 565.494739 259.961592 
L 566.878764 261.110345 
L 568.378124 262.069376 
L 569.992819 262.839709 
L 571.838186 263.46673 
L 574.029558 263.959104 
L 576.682272 264.313164 
L 580.257669 264.549342 
L 586.024439 264.675572 
L 601.594716 264.707781 
L 795.588843 264.708 
L 795.588843 264.708 
" style="fill:none;stroke:#d62728;stroke-linecap:square;stroke-width:2;"/>
   </g>
   <g id="patch_9">
    <path d="M 492.954545 275.544 
L 492.954545 37.152 
" style="fill:none;stroke:#000000;stroke-linecap:square;stroke-linejoin:miter;stroke-width:0.8;"/>
   </g>
   <g id="patch_10">
    <path d="M 810 275.544 
L 810 37.152 
" style="fill:none;stroke:#000000;stroke-linecap:square;stroke-linejoin:miter;stroke-width:0.8;"/>
   </g>
   <g id="patch_11">
    <path d="M 492.954545 275.544 
L 810 275.544 
" style="fill:none;stroke:#000000;stroke-linecap:square;stroke-linejoin:miter;stroke-width:0.8;"/>
   </g>
   <g id="patch_12">
    <path d="M 492.954545 37.152 
L 810 37.152 
" style="fill:none;stroke:#000000;stroke-linecap:square;stroke-linejoin:miter;stroke-width:0.8;"/>
   </g>
   <g id="text_37">
    <!-- T = 298.15 -->
    <g transform="translate(617.976648 31.152)scale(0.12 -0.12)">
     <defs>
      <path d="M -0.296875 72.90625 
L 61.375 72.90625 
L 61.375 64.59375 
L 35.5 64.59375 
L 35.5 0 
L 25.59375 0 
L 25.59375 64.59375 
L -0.296875 64.59375 
z
" id="DejaVuSans-84"/>
      <path d="M 10.59375 45.40625 
L 73.1875 45.40625 
L 73.1875 37.203125 
L 10.59375 37.203125 
z
M 10.59375 25.484375 
L 73.1875 25.484375 
L 73.1875 17.1875 
L 10.59375 17.1875 
z
" id="DejaVuSans-61"/>
     </defs>
     <use xlink:href="#DejaVuSans-84"/>
     <use x="61.083984" xlink:href="#DejaVuSans-32"/>
     <use x="92.871094" xlink:href="#DejaVuSans-61"/>
     <use x="176.660156" xlink:href="#DejaVuSans-32"/>
     <use x="208.447266" xlink:href="#DejaVuSans-50"/>
     <use x="272.070312" xlink:href="#DejaVuSans-57"/>
     <use x="335.693359" xlink:href="#DejaVuSans-56"/>
     <use x="399.316406" xlink:href="#DejaVuSans-46"/>
     <use x="431.103516" xlink:href="#DejaVuSans-49"/>
     <use x="494.726562" xlink:href="#DejaVuSans-53"/>
    </g>
   </g>
   <g id="legend_2">
    <g id="patch_13">
     <path d="M 687.920312 103.8645 
L 803 103.8645 
Q 805 103.8645 805 101.8645 
L 805 44.152 
Q 805 42.152 803 42.152 
L 687.920312 42.152 
Q 685.920312 42.152 685.920312 44.152 
L 685.920312 101.8645 
Q 685.920312 103.8645 687.920312 103.8645 
z
" style="fill:#ffffff;opacity:0.8;stroke:#cccccc;stroke-linejoin:miter;"/>
    </g>
    <g id="line2d_44">
     <path d="M 689.920312 50.250437 
L 709.920312 50.250437 
" style="fill:none;stroke:#1f77b4;stroke-linecap:square;stroke-width:2;"/>
    </g>
    <g id="line2d_45"/>
    <g id="text_38">
     <!-- Helium,4.0026 -->
     <g transform="translate(717.920312 53.750437)scale(0.1 -0.1)">
      <defs>
       <path d="M 9.8125 72.90625 
L 19.671875 72.90625 
L 19.671875 43.015625 
L 55.515625 43.015625 
L 55.515625 72.90625 
L 65.375 72.90625 
L 65.375 0 
L 55.515625 0 
L 55.515625 34.71875 
L 19.671875 34.71875 
L 19.671875 0 
L 9.8125 0 
z
" id="DejaVuSans-72"/>
       <path d="M 56.203125 29.59375 
L 56.203125 25.203125 
L 14.890625 25.203125 
Q 15.484375 15.921875 20.484375 11.0625 
Q 25.484375 6.203125 34.421875 6.203125 
Q 39.59375 6.203125 44.453125 7.46875 
Q 49.3125 8.734375 54.109375 11.28125 
L 54.109375 2.78125 
Q 49.265625 0.734375 44.1875 -0.34375 
Q 39.109375 -1.421875 33.890625 -1.421875 
Q 20.796875 -1.421875 13.15625 6.1875 
Q 5.515625 13.8125 5.515625 26.8125 
Q 5.515625 40.234375 12.765625 48.109375 
Q 20.015625 56 32.328125 56 
Q 43.359375 56 49.78125 48.890625 
Q 56.203125 41.796875 56.203125 29.59375 
z
M 47.21875 32.234375 
Q 47.125 39.59375 43.09375 43.984375 
Q 39.0625 48.390625 32.421875 48.390625 
Q 24.90625 48.390625 20.390625 44.140625 
Q 15.875 39.890625 15.1875 32.171875 
z
" id="DejaVuSans-101"/>
       <path d="M 9.421875 75.984375 
L 18.40625 75.984375 
L 18.40625 0 
L 9.421875 0 
z
" id="DejaVuSans-108"/>
       <path d="M 9.421875 54.6875 
L 18.40625 54.6875 
L 18.40625 0 
L 9.421875 0 
z
M 9.421875 75.984375 
L 18.40625 75.984375 
L 18.40625 64.59375 
L 9.421875 64.59375 
z
" id="DejaVuSans-105"/>
      </defs>
      <use xlink:href="#DejaVuSans-72"/>
      <use x="75.195312" xlink:href="#DejaVuSans-101"/>
      <use x="136.71875" xlink:href="#DejaVuSans-108"/>
      <use x="164.501953" xlink:href="#DejaVuSans-105"/>
      <use x="192.285156" xlink:href="#DejaVuSans-117"/>
      <use x="255.664062" xlink:href="#DejaVuSans-109"/>
      <use x="353.076172" xlink:href="#DejaVuSans-44"/>
      <use x="384.863281" xlink:href="#DejaVuSans-52"/>
      <use x="448.486328" xlink:href="#DejaVuSans-46"/>
      <use x="480.273438" xlink:href="#DejaVuSans-48"/>
      <use x="543.896484" xlink:href="#DejaVuSans-48"/>
      <use x="607.519531" xlink:href="#DejaVuSans-50"/>
      <use x="671.142578" xlink:href="#DejaVuSans-54"/>
     </g>
    </g>
    <g id="line2d_46">
     <path d="M 689.920312 64.928562 
L 709.920312 64.928562 
" style="fill:none;stroke:#ff7f0e;stroke-linecap:square;stroke-width:2;"/>
    </g>
    <g id="line2d_47"/>
    <g id="text_39">
     <!-- Oxygen,15.9994 -->
     <g transform="translate(717.920312 68.428562)scale(0.1 -0.1)">
      <defs>
       <path d="M 39.40625 66.21875 
Q 28.65625 66.21875 22.328125 58.203125 
Q 16.015625 50.203125 16.015625 36.375 
Q 16.015625 22.609375 22.328125 14.59375 
Q 28.65625 6.59375 39.40625 6.59375 
Q 50.140625 6.59375 56.421875 14.59375 
Q 62.703125 22.609375 62.703125 36.375 
Q 62.703125 50.203125 56.421875 58.203125 
Q 50.140625 66.21875 39.40625 66.21875 
z
M 39.40625 74.21875 
Q 54.734375 74.21875 63.90625 63.9375 
Q 73.09375 53.65625 73.09375 36.375 
Q 73.09375 19.140625 63.90625 8.859375 
Q 54.734375 -1.421875 39.40625 -1.421875 
Q 24.03125 -1.421875 14.8125 8.828125 
Q 5.609375 19.09375 5.609375 36.375 
Q 5.609375 53.65625 14.8125 63.9375 
Q 24.03125 74.21875 39.40625 74.21875 
z
" id="DejaVuSans-79"/>
       <path d="M 54.890625 54.6875 
L 35.109375 28.078125 
L 55.90625 0 
L 45.3125 0 
L 29.390625 21.484375 
L 13.484375 0 
L 2.875 0 
L 24.125 28.609375 
L 4.6875 54.6875 
L 15.28125 54.6875 
L 29.78125 35.203125 
L 44.28125 54.6875 
z
" id="DejaVuSans-120"/>
       <path d="M 45.40625 27.984375 
Q 45.40625 37.75 41.375 43.109375 
Q 37.359375 48.484375 30.078125 48.484375 
Q 22.859375 48.484375 18.828125 43.109375 
Q 14.796875 37.75 14.796875 27.984375 
Q 14.796875 18.265625 18.828125 12.890625 
Q 22.859375 7.515625 30.078125 7.515625 
Q 37.359375 7.515625 41.375 12.890625 
Q 45.40625 18.265625 45.40625 27.984375 
z
M 54.390625 6.78125 
Q 54.390625 -7.171875 48.1875 -13.984375 
Q 42 -20.796875 29.203125 -20.796875 
Q 24.46875 -20.796875 20.265625 -20.09375 
Q 16.0625 -19.390625 12.109375 -17.921875 
L 12.109375 -9.1875 
Q 16.0625 -11.328125 19.921875 -12.34375 
Q 23.78125 -13.375 27.78125 -13.375 
Q 36.625 -13.375 41.015625 -8.765625 
Q 45.40625 -4.15625 45.40625 5.171875 
L 45.40625 9.625 
Q 42.625 4.78125 38.28125 2.390625 
Q 33.9375 0 27.875 0 
Q 17.828125 0 11.671875 7.65625 
Q 5.515625 15.328125 5.515625 27.984375 
Q 5.515625 40.671875 11.671875 48.328125 
Q 17.828125 56 27.875 56 
Q 33.9375 56 38.28125 53.609375 
Q 42.625 51.21875 45.40625 46.390625 
L 45.40625 54.6875 
L 54.390625 54.6875 
z
" id="DejaVuSans-103"/>
      </defs>
      <use xlink:href="#DejaVuSans-79"/>
      <use x="78.710938" xlink:href="#DejaVuSans-120"/>
      <use x="137.890625" xlink:href="#DejaVuSans-121"/>
      <use x="197.070312" xlink:href="#DejaVuSans-103"/>
      <use x="260.546875" xlink:href="#DejaVuSans-101"/>
      <use x="322.070312" xlink:href="#DejaVuSans-110"/>
      <use x="385.449219" xlink:href="#DejaVuSans-44"/>
      <use x="417.236328" xlink:href="#DejaVuSans-49"/>
      <use x="480.859375" xlink:href="#DejaVuSans-53"/>
      <use x="544.482422" xlink:href="#DejaVuSans-46"/>
      <use x="576.269531" xlink:href="#DejaVuSans-57"/>
      <use x="639.892578" xlink:href="#DejaVuSans-57"/>
      <use x="703.515625" xlink:href="#DejaVuSans-57"/>
      <use x="767.138672" xlink:href="#DejaVuSans-52"/>
     </g>
    </g>
    <g id="line2d_48">
     <path d="M 689.920312 79.606687 
L 709.920312 79.606687 
" style="fill:none;stroke:#2ca02c;stroke-linecap:square;stroke-width:2;"/>
    </g>
    <g id="line2d_49"/>
    <g id="text_40">
     <!-- Argon,39.948 -->
     <g transform="translate(717.920312 83.106687)scale(0.1 -0.1)">
      <defs>
       <path d="M 34.1875 63.1875 
L 20.796875 26.90625 
L 47.609375 26.90625 
z
M 28.609375 72.90625 
L 39.796875 72.90625 
L 67.578125 0 
L 57.328125 0 
L 50.6875 18.703125 
L 17.828125 18.703125 
L 11.1875 0 
L 0.78125 0 
z
" id="DejaVuSans-65"/>
      </defs>
      <use xlink:href="#DejaVuSans-65"/>
      <use x="68.408203" xlink:href="#DejaVuSans-114"/>
      <use x="107.771484" xlink:href="#DejaVuSans-103"/>
      <use x="171.248047" xlink:href="#DejaVuSans-111"/>
      <use x="232.429688" xlink:href="#DejaVuSans-110"/>
      <use x="295.808594" xlink:href="#DejaVuSans-44"/>
      <use x="327.595703" xlink:href="#DejaVuSans-51"/>
      <use x="391.21875" xlink:href="#DejaVuSans-57"/>
      <use x="454.841797" xlink:href="#DejaVuSans-46"/>
      <use x="486.628906" xlink:href="#DejaVuSans-57"/>
      <use x="550.251953" xlink:href="#DejaVuSans-52"/>
      <use x="613.875" xlink:href="#DejaVuSans-56"/>
     </g>
    </g>
    <g id="line2d_50">
     <path d="M 689.920312 94.284812 
L 709.920312 94.284812 
" style="fill:none;stroke:#d62728;stroke-linecap:square;stroke-width:2;"/>
    </g>
    <g id="line2d_51"/>
    <g id="text_41">
     <!-- Xenon,131.29 -->
     <g transform="translate(717.920312 97.784812)scale(0.1 -0.1)">
      <defs>
       <path d="M 6.296875 72.90625 
L 16.890625 72.90625 
L 35.015625 45.796875 
L 53.21875 72.90625 
L 63.8125 72.90625 
L 40.375 37.890625 
L 65.375 0 
L 54.78125 0 
L 34.28125 31 
L 13.625 0 
L 2.984375 0 
L 29 38.921875 
z
" id="DejaVuSans-88"/>
      </defs>
      <use xlink:href="#DejaVuSans-88"/>
      <use x="64.005859" xlink:href="#DejaVuSans-101"/>
      <use x="125.529297" xlink:href="#DejaVuSans-110"/>
      <use x="188.908203" xlink:href="#DejaVuSans-111"/>
      <use x="250.089844" xlink:href="#DejaVuSans-110"/>
      <use x="313.46875" xlink:href="#DejaVuSans-44"/>
      <use x="345.255859" xlink:href="#DejaVuSans-49"/>
      <use x="408.878906" xlink:href="#DejaVuSans-51"/>
      <use x="472.501953" xlink:href="#DejaVuSans-49"/>
      <use x="536.125" xlink:href="#DejaVuSans-46"/>
      <use x="567.912109" xlink:href="#DejaVuSans-50"/>
      <use x="631.535156" xlink:href="#DejaVuSans-57"/>
     </g>
    </g>
   </g>
  </g>
 </g>
 <defs>
  <clipPath id="pb93671f582">
   <rect height="238.392" width="317.045455" x="112.5" y="37.152"/>
  </clipPath>
  <clipPath id="p2bb0f7b81e">
   <rect height="238.392" width="317.045455" x="492.954545" y="37.152"/>
  </clipPath>
 </defs>
</svg>
