<?xml version="1.0" encoding="UTF-8" standalone="no"?>
<svg
   width="728.4317mm"
   height="252.89226mm"
   viewBox="0 0 2064.843 716.85867"
   version="1.2"
   id="svg270"
   sodipodi:docname="PME_decomp.svg"
   inkscape:version="1.1-dev (b39e6d56, 2020-09-19)"
   xmlns:inkscape="http://www.inkscape.org/namespaces/inkscape"
   xmlns:sodipodi="http://sodipodi.sourceforge.net/DTD/sodipodi-0.dtd"
   xmlns:xlink="http://www.w3.org/1999/xlink"
   xmlns="http://www.w3.org/2000/svg"
   xmlns:svg="http://www.w3.org/2000/svg"
   xmlns:rdf="http://www.w3.org/1999/02/22-rdf-syntax-ns#"
   xmlns:cc="http://creativecommons.org/ns#"
   xmlns:dc="http://purl.org/dc/elements/1.1/">
  <sodipodi:namedview
     pagecolor="#ffffff"
     bordercolor="#666666"
     borderopacity="1"
     objecttolerance="10"
     gridtolerance="10"
     guidetolerance="10"
     inkscape:pageopacity="0"
     inkscape:pageshadow="2"
     inkscape:window-width="942"
     inkscape:window-height="802"
     id="namedview272"
     showgrid="false"
     fit-margin-top="0"
     fit-margin-left="0"
     fit-margin-right="0"
     fit-margin-bottom="0"
     inkscape:zoom="0.15509633"
     inkscape:cx="1376.5638"
     inkscape:cy="477.12283"
     inkscape:window-x="0"
     inkscape:window-y="23"
     inkscape:window-maximized="0"
     inkscape:current-layer="svg270" />
  <title
     id="title202">Qt SVG Document</title>
  <desc
     id="desc204">Generated with Qt</desc>
  <defs
     id="defs206" />
  <g
     fill="none"
     stroke="#000000"
     stroke-width="1"
     fill-rule="evenodd"
     stroke-linecap="square"
     stroke-linejoin="bevel"
     id="g268"
     inkscape:tile-cx="352.66373"
     inkscape:tile-cy="365.95004"
     inkscape:tile-w="688.28088"
     inkscape:tile-h="716.85898"
     inkscape:tile-x0="8.5232918"
     inkscape:tile-y0="7.0191815"
     transform="translate(-8.52329,-7.01918)">
    <g
       fill="none"
       stroke="#000000"
       stroke-opacity="1"
       stroke-width="1"
       stroke-linecap="square"
       stroke-linejoin="bevel"
       font-family="'.AppleSystemUIFont'"
       font-size="13px"
       font-weight="400"
       font-style="normal"
       id="g208" />
    <g
       fill="none"
       stroke="#000000"
       stroke-opacity="1"
       stroke-width="1"
       stroke-linecap="square"
       stroke-linejoin="bevel"
       transform="scale(1.00274)"
       font-family="'.AppleSystemUIFont'"
       font-size="13px"
       font-weight="400"
       font-style="normal"
       id="g210" />
    <g
       fill="none"
       stroke="#000000"
       stroke-opacity="1"
       stroke-width="1"
       stroke-linecap="round"
       stroke-linejoin="round"
       transform="scale(1.00274)"
       font-family="'.AppleSystemUIFont'"
       font-size="13px"
       font-weight="400"
       font-style="normal"
       id="g214">
      <polyline
         fill="none"
         vector-effect="none"
         points="12.5,11.5 12.5,11.5 12.5,718.5 690.5,718.5 690.5,11.5 12.5,11.5 "
         id="polyline212" />
    </g>
    <g
       fill="none"
       stroke="#000000"
       stroke-opacity="1"
       stroke-width="1"
       stroke-linecap="square"
       stroke-linejoin="bevel"
       transform="scale(1.00274)"
       font-family="'.AppleSystemUIFont'"
       font-size="13px"
       font-weight="400"
       font-style="normal"
       id="g216" />
    <g
       fill="none"
       stroke="#000000"
       stroke-opacity="1"
       stroke-width="1"
       stroke-linecap="square"
       stroke-linejoin="bevel"
       transform="scale(1.00274)"
       font-family="'.AppleSystemUIFont'"
       font-size="13px"
       font-weight="400"
       font-style="normal"
       id="g218" />
    <g
       fill="none"
       stroke="#000000"
       stroke-opacity="1"
       stroke-width="1"
       stroke-linecap="square"
       stroke-linejoin="bevel"
       transform="scale(1.00274)"
       font-family="'.AppleSystemUIFont'"
       font-size="13px"
       font-weight="400"
       font-style="normal"
       id="g220" />
    <g
       fill="none"
       stroke="#000000"
       stroke-opacity="1"
       stroke-width="1"
       stroke-linecap="square"
       stroke-linejoin="bevel"
       transform="scale(1.00274)"
       font-family="'.AppleSystemUIFont'"
       font-size="13px"
       font-weight="400"
       font-style="normal"
       id="g222" />
    <g
       fill="none"
       stroke="#9400d3"
       stroke-opacity="1"
       stroke-width="8"
       stroke-linecap="round"
       stroke-linejoin="round"
       transform="scale(1.00274)"
       font-family="'.AppleSystemUIFont'"
       font-size="13px"
       font-weight="400"
       font-style="normal"
       id="g228">
      <polyline
         fill="none"
         vector-effect="none"
         points="12.5,690.6 12.5,690.6 19.4,690 26.2,689.4 33.1,688.8 39.9,688.1 46.8,687.4 53.6,686.7 60.5,685.9 67.3,685.1 74.2,684.3 81,683.4 87.9,682.5 94.7,681.5 101.6,680.5 108.4,679.4 115.3,678.3 122.1,677.1 129,675.8 135.8,674.4 142.7,672.9 149.6,671.4 156.4,669.7 163.3,667.9 170.1,666 177,663.9 183.8,661.7 190.7,659.3 197.5,656.6 204.4,653.7 211.2,650.5 218.1,647 224.9,643.1 231.8,638.8 238.6,634 245.5,628.5 252.3,622.2 259.2,615.1 266,606.8 272.9,597 279.7,585.4 286.6,571.4 293.5,554 300.3,532 307.2,503.3 314,464.1 320.9,407.4 327.7,318.4 334.6,158.2 334.6,158.2 337.2,11 "
         id="polyline224" />
      <polyline
         fill="none"
         vector-effect="none"
         points="366.1,11 368.8,158.2 375.7,318.4 382.5,407.4 389.4,464.1 396.2,503.3 403.1,532 409.9,554 416.8,571.4 423.7,585.4 430.5,597 437.4,606.8 444.2,615.1 451.1,622.2 457.9,628.5 464.8,634 471.6,638.8 478.5,643.1 485.3,647 492.2,650.5 499,653.7 505.9,656.6 512.7,659.3 519.6,661.7 526.4,663.9 533.3,666 540.1,667.9 547,669.7 553.8,671.4 560.7,672.9 567.6,674.4 574.4,675.8 581.3,677.1 588.1,678.3 595,679.4 601.8,680.5 608.7,681.5 615.5,682.5 622.4,683.4 629.2,684.3 636.1,685.1 642.9,685.9 649.8,686.7 656.6,687.4 663.5,688.1 670.3,688.8 677.2,689.4 684,690 690.9,690.6 "
         id="polyline226" />
    </g>
    <g
       fill="none"
       stroke="#000000"
       stroke-opacity="1"
       stroke-width="1"
       stroke-linecap="square"
       stroke-linejoin="bevel"
       transform="scale(1.00274)"
       font-family="'.AppleSystemUIFont'"
       font-size="13px"
       font-weight="400"
       font-style="normal"
       id="g230" />
    <g
       fill="none"
       stroke="#000000"
       stroke-opacity="1"
       stroke-width="1"
       stroke-linecap="square"
       stroke-linejoin="bevel"
       transform="scale(1.00274)"
       font-family="'.AppleSystemUIFont'"
       font-size="13px"
       font-weight="400"
       font-style="normal"
       id="g232" />
    <g
       fill="none"
       stroke="#000000"
       stroke-opacity="1"
       stroke-width="1"
       stroke-linecap="square"
       stroke-linejoin="bevel"
       transform="scale(1.00274)"
       font-family="'.AppleSystemUIFont'"
       font-size="13px"
       font-weight="400"
       font-style="normal"
       id="g234" />
    <g
       fill="none"
       stroke="#000000"
       stroke-opacity="1"
       stroke-width="1"
       stroke-linecap="square"
       stroke-linejoin="bevel"
       transform="scale(1.00274)"
       font-family="'.AppleSystemUIFont'"
       font-size="13px"
       font-weight="400"
       font-style="normal"
       id="g236" />
    <g
       fill="none"
       stroke="#009e73"
       stroke-opacity="1"
       stroke-dasharray="24, 12"
       stroke-dashoffset="0"
       stroke-width="6"
       stroke-linecap="round"
       stroke-linejoin="round"
       transform="scale(1.00274)"
       font-family="'.AppleSystemUIFont'"
       font-size="13px"
       font-weight="400"
       font-style="normal"
       id="g240">
      <polyline
         fill="none"
         vector-effect="none"
         points="12.5,690.6 12.5,690.6 19.4,690 26.2,689.4 33.1,688.8 39.9,688.1 46.8,687.4 53.6,686.7 60.5,685.9 67.3,685.1 74.2,684.3 81,683.4 87.9,682.5 94.7,681.5 101.6,680.5 108.4,679.4 115.3,678.3 122.1,677.1 129,675.8 135.8,674.4 142.7,672.9 149.6,671.4 156.4,669.7 163.3,667.9 170.1,666 177,663.9 183.8,661.7 190.7,659.3 197.5,656.7 204.4,653.8 211.2,650.8 218.1,647.4 224.9,643.8 231.8,639.8 238.6,635.5 245.5,630.9 252.3,625.9 259.2,620.7 266,615.1 272.9,609.3 279.7,603.2 286.6,597.1 293.5,591 300.3,585.1 307.2,579.4 314,574.2 320.9,569.5 327.7,565.6 334.6,562.5 341.4,560.4 348.3,559.3 355.1,559.3 362,560.4 368.8,562.5 375.7,565.6 382.5,569.5 389.4,574.2 396.2,579.4 403.1,585.1 409.9,591 416.8,597.1 423.7,603.2 430.5,609.3 437.4,615.1 444.2,620.7 451.1,625.9 457.9,630.9 464.8,635.5 471.6,639.8 478.5,643.8 485.3,647.4 492.2,650.8 499,653.8 505.9,656.7 512.7,659.3 519.6,661.7 526.4,663.9 533.3,666 540.1,667.9 547,669.7 553.8,671.4 560.7,672.9 567.6,674.4 574.4,675.8 581.3,677.1 588.1,678.3 595,679.4 601.8,680.5 608.7,681.5 615.5,682.5 622.4,683.4 629.2,684.3 636.1,685.1 642.9,685.9 649.8,686.7 656.6,687.4 663.5,688.1 670.3,688.8 677.2,689.4 684,690 690.9,690.6 "
         id="polyline238" />
    </g>
    <g
       fill="none"
       stroke="#000000"
       stroke-opacity="1"
       stroke-width="1"
       stroke-linecap="square"
       stroke-linejoin="bevel"
       transform="scale(1.00274)"
       font-family="'.AppleSystemUIFont'"
       font-size="13px"
       font-weight="400"
       font-style="normal"
       id="g242" />
    <g
       fill="none"
       stroke="#000000"
       stroke-opacity="1"
       stroke-width="1"
       stroke-linecap="square"
       stroke-linejoin="bevel"
       transform="scale(1.00274)"
       font-family="'.AppleSystemUIFont'"
       font-size="13px"
       font-weight="400"
       font-style="normal"
       id="g244" />
    <g
       fill="none"
       stroke="#000000"
       stroke-opacity="1"
       stroke-width="1"
       stroke-linecap="square"
       stroke-linejoin="bevel"
       transform="scale(1.00274)"
       font-family="'.AppleSystemUIFont'"
       font-size="13px"
       font-weight="400"
       font-style="normal"
       id="g246" />
    <g
       fill="none"
       stroke="#000000"
       stroke-opacity="1"
       stroke-width="1"
       stroke-linecap="square"
       stroke-linejoin="bevel"
       transform="scale(1.00274)"
       font-family="'.AppleSystemUIFont'"
       font-size="13px"
       font-weight="400"
       font-style="normal"
       id="g248" />
    <g
       fill="none"
       stroke="#56b4e9"
       stroke-opacity="1"
       stroke-dasharray="24, 12"
       stroke-dashoffset="0"
       stroke-width="6"
       stroke-linecap="round"
       stroke-linejoin="round"
       transform="scale(1.00274)"
       font-family="'.AppleSystemUIFont'"
       font-size="13px"
       font-weight="400"
       font-style="normal"
       id="g254">
      <polyline
         fill="none"
         vector-effect="none"
         points="12.5,718.9 12.5,718.9 19.4,718.9 26.2,718.9 33.1,718.9 39.9,718.9 46.8,718.9 53.6,718.9 60.5,718.9 67.3,718.9 74.2,718.9 81,718.9 87.9,718.9 94.7,718.9 101.6,718.9 108.4,718.9 115.3,718.9 122.1,718.9 129,718.9 135.8,718.9 142.7,718.9 149.6,718.9 156.4,718.9 163.3,718.9 170.1,718.9 177,718.9 183.8,718.9 190.7,718.9 197.5,718.8 204.4,718.8 211.2,718.7 218.1,718.5 224.9,718.3 231.8,717.9 238.6,717.3 245.5,716.5 252.3,715.2 259.2,713.3 266,710.6 272.9,706.7 279.7,701.1 286.6,693.1 293.5,681.9 300.3,665.8 307.2,642.8 314,608.8 320.9,556.8 327.7,471.8 334.6,314.7 334.6,314.7 340.1,11 "
         id="polyline250" />
      <polyline
         fill="none"
         vector-effect="none"
         points="363.2,11 368.8,314.7 375.7,471.8 382.5,556.8 389.4,608.8 396.2,642.8 403.1,665.8 409.9,681.9 416.8,693.1 423.7,701.1 430.5,706.7 437.4,710.6 444.2,713.3 451.1,715.2 457.9,716.5 464.8,717.3 471.6,717.9 478.5,718.3 485.3,718.5 492.2,718.7 499,718.8 505.9,718.8 512.7,718.9 519.6,718.9 526.4,718.9 533.3,718.9 540.1,718.9 547,718.9 553.8,718.9 560.7,718.9 567.6,718.9 574.4,718.9 581.3,718.9 588.1,718.9 595,718.9 601.8,718.9 608.7,718.9 615.5,718.9 622.4,718.9 629.2,718.9 636.1,718.9 642.9,718.9 649.8,718.9 656.6,718.9 663.5,718.9 670.3,718.9 677.2,718.9 684,718.9 690.9,718.9 "
         id="polyline252" />
    </g>
    <g
       fill="none"
       stroke="#000000"
       stroke-opacity="1"
       stroke-width="1"
       stroke-linecap="square"
       stroke-linejoin="bevel"
       transform="scale(1.00274)"
       font-family="'.AppleSystemUIFont'"
       font-size="13px"
       font-weight="400"
       font-style="normal"
       id="g256" />
    <g
       fill="none"
       stroke="#000000"
       stroke-opacity="1"
       stroke-width="1"
       stroke-linecap="square"
       stroke-linejoin="bevel"
       transform="scale(1.00274)"
       font-family="'.AppleSystemUIFont'"
       font-size="13px"
       font-weight="400"
       font-style="normal"
       id="g258" />
    <g
       fill="none"
       stroke="#000000"
       stroke-opacity="1"
       stroke-width="1"
       stroke-linecap="round"
       stroke-linejoin="round"
       transform="scale(1.00274)"
       font-family="'.AppleSystemUIFont'"
       font-size="13px"
       font-weight="400"
       font-style="normal"
       id="g262">
      <polyline
         fill="none"
         vector-effect="none"
         points="12.5,11.5 12.5,718.5 690.5,718.5 690.5,11.5 12.5,11.5 "
         id="polyline260" />
    </g>
    <g
       fill="none"
       stroke="#000000"
       stroke-opacity="1"
       stroke-width="1"
       stroke-linecap="square"
       stroke-linejoin="bevel"
       transform="scale(1.00274)"
       font-family="'.AppleSystemUIFont'"
       font-size="13px"
       font-weight="400"
       font-style="normal"
       id="g264" />
    <g
       fill="none"
       stroke="#000000"
       stroke-opacity="1"
       stroke-width="1"
       stroke-linecap="square"
       stroke-linejoin="bevel"
       font-family="'.AppleSystemUIFont'"
       font-size="13px"
       font-weight="400"
       font-style="normal"
       id="g266" />
  </g>
  <metadata
     id="metadata274">
    <rdf:RDF>
      <cc:Work
         rdf:about="">
        <dc:title>Qt SVG Document</dc:title>
      </cc:Work>
    </rdf:RDF>
  </metadata>
  <use
     x="0"
     y="0"
     inkscape:tiled-clone-of="#g268"
     xlink:href="#g268"
     id="use276"
     width="100%"
     height="100%" />
  <use
     x="0"
     y="0"
     inkscape:tiled-clone-of="#g268"
     xlink:href="#g268"
     transform="translate(688.28088)"
     id="use278"
     width="100%"
     height="100%" />
  <use
     x="0"
     y="0"
     inkscape:tiled-clone-of="#g268"
     xlink:href="#g268"
     transform="translate(1376.5618)"
     id="use280"
     width="100%"
     height="100%" />
</svg>
